<svg width="103" height="24" viewBox="0 0 103 24" fill="none" xmlns="http://www.w3.org/2000/svg">
<g clip-path="url(#clip0_22960_7056)">
<path d="M0 23.6058V7.08204H3.47673L3.80526 9.34463C4.33091 8.5133 5.02226 7.86481 5.88787 7.39344C6.75062 6.92492 7.73908 6.68781 8.85609 6.68781C9.68742 6.68781 10.4359 6.79636 11.1015 7.01634C11.7672 7.23631 12.3585 7.56199 12.8728 7.99908C13.387 8.43617 13.8069 8.98182 14.1355 9.63888C14.7468 8.72185 15.5439 7.99908 16.5295 7.47628C17.5122 6.95063 18.5835 6.69066 19.7434 6.69066C21.1203 6.69066 22.2888 6.97063 23.2515 7.52771C24.2143 8.08478 24.9456 8.90468 25.4484 9.98741C25.9512 11.0701 26.2026 12.3986 26.2026 13.9698V23.6086H22.3002V14.364C22.3002 12.9642 22.0145 11.8929 21.4489 11.1501C20.8804 10.4074 20.0405 10.036 18.9235 10.036C18.1578 10.036 17.4865 10.2217 16.9066 10.5931C16.3266 10.9644 15.8724 11.5072 15.5467 12.2157C15.2182 12.9271 15.0554 13.7955 15.0554 14.8211V23.6086H11.153V14.364C11.153 12.9642 10.8673 11.8929 10.3016 11.1501C9.73313 10.4074 8.8818 10.036 7.74479 10.036C7.02488 10.036 6.37353 10.2217 5.7936 10.5931C5.21367 10.9644 4.75943 11.5072 4.43376 12.2157C4.10523 12.9271 3.94239 13.7955 3.94239 14.8211V23.6086H0V23.6058Z" fill="white"/>
<path d="M75.6969 24.0001C74.8227 24.0001 74.0342 23.8858 73.3371 23.6544C72.6372 23.4258 72.0259 23.1087 71.5002 22.7031C70.9746 22.2974 70.5375 21.8346 70.1889 21.309L69.7633 23.603H66.2551V6.10352e-05H70.1889V9.5075C70.7146 8.69903 71.4231 8.02768 72.3201 7.4906C73.2172 6.95638 74.3313 6.68784 75.6654 6.68784C77.2167 6.68784 78.5879 7.06493 79.7792 7.81913C80.9705 8.57333 81.9104 9.60177 82.5989 10.9016C83.2874 12.2015 83.6331 13.6956 83.6331 15.3782C83.6331 17.0609 83.2931 18.4921 82.616 19.8034C81.939 21.1147 81.0048 22.1431 79.8135 22.8859C78.6222 23.6287 77.251 24.0001 75.6997 24.0001H75.6969ZM74.877 20.589C75.794 20.589 76.6139 20.3662 77.3367 19.9177C78.0566 19.4692 78.6194 18.8578 79.025 18.0808C79.4307 17.3066 79.6307 16.3924 79.6307 15.3439C79.6307 14.2955 79.4278 13.4099 79.025 12.6214C78.6194 11.8358 78.0566 11.2216 77.3367 10.7845C76.6139 10.3474 75.7968 10.1303 74.877 10.1303C73.9571 10.1303 73.1115 10.3503 72.4001 10.7845C71.6888 11.2216 71.1317 11.8329 70.7289 12.6214C70.3232 13.407 70.1232 14.3155 70.1232 15.3439C70.1232 16.3724 70.3261 17.3066 70.7289 18.0808C71.1345 18.8578 71.6916 19.4692 72.4001 19.9177C73.1115 20.3662 73.9342 20.589 74.877 20.589Z" fill="white"/>
<path d="M92.9433 24.0001C91.5892 24.0001 90.4636 23.7715 89.5666 23.3116C88.6695 22.8516 88.0039 22.2403 87.5668 21.4747C87.1297 20.709 86.9126 19.8806 86.9126 18.9835C86.9126 17.9351 87.1811 17.0266 87.7154 16.261C88.2496 15.4954 89.0438 14.9012 90.0922 14.4755C91.1407 14.0498 92.4319 13.8356 93.9603 13.8356H98.1255C98.1255 12.9614 98.0056 12.2358 97.7656 11.6558C97.5256 11.0759 97.1542 10.6445 96.6514 10.3617C96.1486 10.0789 95.503 9.93604 94.7174 9.93604C93.8203 9.93604 93.0547 10.1389 92.4234 10.5417C91.7892 10.9473 91.3949 11.5644 91.2435 12.3929H87.3754C87.5068 11.213 87.9011 10.2017 88.5553 9.35896C89.2095 8.51906 90.0808 7.862 91.1607 7.39063C92.2434 6.92211 93.429 6.685 94.7174 6.685C96.2686 6.685 97.5913 6.95354 98.6855 7.48776C99.7768 8.02484 100.614 8.7876 101.194 9.78177C101.774 10.7759 102.062 11.9729 102.062 13.3728V23.603H98.7169L98.3227 20.9462C98.1027 21.3832 97.8256 21.7889 97.4856 22.1603C97.1457 22.5317 96.76 22.8545 96.3229 23.1288C95.8858 23.403 95.3887 23.6144 94.8317 23.7687C94.2746 23.9201 93.6461 23.9972 92.9462 23.9972L92.9433 24.0001ZM93.8289 20.8862C94.4631 20.8862 95.0259 20.7719 95.5173 20.5405C96.0087 20.3119 96.4343 19.9834 96.7971 19.5577C97.1571 19.1321 97.4371 18.655 97.6342 18.1322C97.8313 17.6066 97.9627 17.0495 98.0284 16.461V16.3953H94.3888C93.6232 16.3953 92.989 16.4924 92.4862 16.6895C91.9834 16.8866 91.6235 17.1552 91.4035 17.4923C91.1835 17.8322 91.075 18.2293 91.075 18.6893C91.075 19.1492 91.1835 19.5406 91.4035 19.8691C91.6206 20.1977 91.9377 20.4491 92.3548 20.6233C92.769 20.7976 93.2604 20.8862 93.8289 20.8862Z" fill="white"/>
<path d="M46.9516 19.272L48.9 21.2118C52.0996 24.4 57.3018 24.3943 60.4957 21.2003C62.047 19.6491 62.8983 17.5893 62.8983 15.3982C62.8983 13.207 62.0441 11.1444 60.4957 9.59601C57.3018 6.40211 52.0996 6.39639 48.9 9.58459L40.3067 18.1464C38.7926 19.6548 36.3329 19.652 34.8217 18.1407C33.3075 16.6266 33.3075 14.164 34.8217 12.6528C35.5787 11.8957 36.5729 11.5186 37.567 11.5186C38.5612 11.5186 39.5497 11.8957 40.3067 12.6471L42.2436 14.5697L45.3118 11.5186L43.3578 9.58173C40.1582 6.39354 34.9559 6.39925 31.762 9.59316C28.5624 12.7928 28.5624 17.9979 31.762 21.2003C33.3618 22.8002 35.4616 23.6001 37.5642 23.6001C39.6668 23.6001 41.758 22.803 43.3578 21.2118L51.951 12.6499C53.4652 11.1415 55.9249 11.1444 57.4361 12.6556C58.1703 13.3898 58.5731 14.364 58.5731 15.401C58.5731 16.4381 58.1703 17.4122 57.4361 18.1464C55.9249 19.6577 53.4652 19.6577 51.951 18.1521L50.0141 16.2267L46.9488 19.2777L46.9516 19.272Z" fill="white"/>
</g>
<defs>
<clipPath id="clip0_22960_7056">
<rect width="102.056" height="24" fill="white"/>
</clipPath>
</defs>
</svg>
