<svg width="103" height="24" viewBox="0 0 103 24" fill="none" xmlns="http://www.w3.org/2000/svg">
<g clip-path="url(#clip0_23120_3509)">
<path d="M46.9517 19.272L48.9 21.2118C52.0996 24.4 57.3019 24.3943 60.4958 21.2004C62.047 19.6491 62.8983 17.5894 62.8983 15.3982C62.8983 13.207 62.0442 11.1444 60.4958 9.59603C57.3019 6.40213 52.0996 6.39641 48.9 9.58461L40.3067 18.1464C38.7926 19.6548 36.3329 19.652 34.8217 18.1407C33.3076 16.6266 33.3076 14.1641 34.8217 12.6528C35.5787 11.8958 36.5729 11.5187 37.5671 11.5187C38.5612 11.5187 39.5497 11.8958 40.3067 12.6471L42.2437 14.5697L45.3119 11.5187L43.3578 9.58175C40.1582 6.39356 34.956 6.39927 31.762 9.59318C28.5624 12.7928 28.5624 17.9979 31.762 21.2004C33.3619 22.8002 35.4616 23.6001 37.5642 23.6001C39.6668 23.6001 41.758 22.803 43.3578 21.2118L51.9511 12.65C53.4652 11.1416 55.9249 11.1444 57.4361 12.6557C58.1703 13.3899 58.5731 14.364 58.5731 15.4011C58.5731 16.4381 58.1703 17.4122 57.4361 18.1464C55.9249 19.6577 53.4652 19.6577 51.9511 18.1522L50.0142 16.2267L46.9488 19.2777L46.9517 19.272Z" fill="white"/>
<path d="M9.15527e-05 23.6058V7.08205H3.47682L3.80535 9.34463C4.331 8.5133 5.02235 7.86481 5.88796 7.39344C6.75072 6.92492 7.73917 6.68781 8.85618 6.68781C9.68751 6.68781 10.436 6.79637 11.1016 7.01634C11.7673 7.23631 12.3586 7.56199 12.8728 7.99908C13.3871 8.43617 13.807 8.98182 14.1356 9.63889C14.7469 8.72185 15.544 7.99908 16.5296 7.47628C17.5123 6.95063 18.5836 6.69066 19.7435 6.69066C21.1204 6.69066 22.2889 6.97063 23.2516 7.52771C24.2143 8.08478 24.9457 8.90469 25.4485 9.98741C25.9513 11.0701 26.2027 12.3986 26.2027 13.9698V23.6087H22.3003V14.364C22.3003 12.9642 22.0146 11.8929 21.449 11.1501C20.8805 10.4074 20.0406 10.036 18.9236 10.036C18.1579 10.036 17.4866 10.2217 16.9067 10.5931C16.3267 10.9644 15.8725 11.5072 15.5468 12.2157C15.2183 12.9271 15.0554 13.7955 15.0554 14.8211V23.6087H11.153V14.364C11.153 12.9642 10.8674 11.8929 10.3017 11.1501C9.73322 10.4074 8.88189 10.036 7.74488 10.036C7.02497 10.036 6.37362 10.2217 5.79369 10.5931C5.21376 10.9644 4.75952 11.5072 4.43385 12.2157C4.10532 12.9271 3.94248 13.7955 3.94248 14.8211V23.6087H9.15527e-05V23.6058Z" fill="white"/>
<path d="M75.6968 24C74.8226 24 74.0342 23.8858 73.3371 23.6544C72.6372 23.4258 72.0258 23.1087 71.5002 22.703C70.9745 22.2974 70.5374 21.8346 70.1889 21.3089L69.7632 23.6029H66.2551V3.43323e-05H70.1889V9.50747C70.7146 8.699 71.4231 8.02765 72.3201 7.49057C73.2171 6.95635 74.3313 6.68781 75.6654 6.68781C77.2166 6.68781 78.5879 7.06491 79.7792 7.8191C80.9705 8.5733 81.9104 9.60175 82.5989 10.9016C83.2874 12.2014 83.633 13.6955 83.633 15.3782C83.633 17.0609 83.2931 18.4921 82.616 19.8034C81.9389 21.1147 81.0048 22.1431 79.8135 22.8859C78.6222 23.6286 77.2509 24 75.6997 24H75.6968ZM74.8769 20.589C75.794 20.589 76.6139 20.3662 77.3366 19.9177C78.0565 19.4691 78.6193 18.8578 79.025 18.0807C79.4307 17.3065 79.6306 16.3924 79.6306 15.3439C79.6306 14.2955 79.4278 13.4099 79.025 12.6214C78.6193 11.8358 78.0565 11.2216 77.3366 10.7845C76.6139 10.3474 75.7968 10.1303 74.8769 10.1303C73.957 10.1303 73.1114 10.3502 72.4001 10.7845C71.6887 11.2216 71.1317 11.8329 70.7288 12.6214C70.3232 13.407 70.1232 14.3155 70.1232 15.3439C70.1232 16.3724 70.326 17.3065 70.7288 18.0807C71.1345 18.8578 71.6916 19.4691 72.4001 19.9177C73.1114 20.3662 73.9342 20.589 74.8769 20.589Z" fill="white"/>
<path d="M92.9433 24C91.5892 24 90.4636 23.7715 89.5666 23.3115C88.6696 22.8516 88.0039 22.2402 87.5668 21.4746C87.1298 20.709 86.9126 19.8805 86.9126 18.9835C86.9126 17.935 87.1812 17.0266 87.7154 16.2609C88.2496 15.4953 89.0438 14.9011 90.0923 14.4754C91.1407 14.0498 92.432 13.8355 93.9604 13.8355H98.1256C98.1256 12.9613 98.0056 12.2357 97.7656 11.6558C97.5257 11.0759 97.1543 10.6445 96.6515 10.3617C96.1487 10.0788 95.503 9.93599 94.7174 9.93599C93.8204 9.93599 93.0548 10.1388 92.4234 10.5416C91.7892 10.9473 91.395 11.5644 91.2436 12.3928H87.3754C87.5069 11.213 87.9011 10.2017 88.5553 9.35891C89.2095 8.51901 90.0808 7.86195 91.1607 7.39058C92.2434 6.92206 93.429 6.68495 94.7174 6.68495C96.2687 6.68495 97.5914 6.95349 98.6855 7.48771C99.7768 8.02479 100.614 8.78755 101.194 9.78172C101.774 10.7759 102.062 11.9729 102.062 13.3727V23.6029H98.7169L98.3227 20.9461C98.1027 21.3832 97.8256 21.7889 97.4857 22.1602C97.1457 22.5316 96.76 22.8544 96.323 23.1287C95.8859 23.403 95.3888 23.6144 94.8317 23.7686C94.2746 23.92 93.6461 23.9972 92.9462 23.9972L92.9433 24ZM93.829 20.8861C94.4632 20.8861 95.026 20.7718 95.5173 20.5404C96.0087 20.3119 96.4344 19.9834 96.7972 19.5577C97.1571 19.132 97.4371 18.655 97.6342 18.1322C97.8313 17.6065 97.9628 17.0494 98.0285 16.4609V16.3952H94.3889C93.6233 16.3952 92.9891 16.4923 92.4863 16.6895C91.9835 16.8866 91.6235 17.1551 91.4035 17.4922C91.1836 17.8322 91.075 18.2293 91.075 18.6892C91.075 19.1492 91.1836 19.5406 91.4035 19.8691C91.6207 20.1976 91.9378 20.449 92.3548 20.6233C92.7691 20.7976 93.2605 20.8861 93.829 20.8861Z" fill="white"/>
</g>
<defs>
<clipPath id="clip0_23120_3509">
<rect width="102.056" height="24" fill="white"/>
</clipPath>
</defs>
</svg>
