<svg width="311" height="74" viewBox="0 0 311 74" fill="none" xmlns="http://www.w3.org/2000/svg">
<g clip-path="url(#clip0_23212_4192)">
<path d="M143.077 58.7281L149.014 64.6392C158.765 74.3547 174.618 74.3373 184.351 64.6044C189.078 59.8772 191.672 53.6005 191.672 46.9233C191.672 40.246 189.069 33.9606 184.351 29.2421C174.618 19.5092 158.765 19.4918 149.014 29.2073L122.828 55.2981C118.214 59.8946 110.718 59.8859 106.113 55.2807C101.499 50.6667 101.499 43.1624 106.113 38.5571C108.42 36.2502 111.45 35.101 114.479 35.101C117.509 35.101 120.521 36.2502 122.828 38.5397L128.73 44.3986L138.08 35.101L132.125 29.1986C122.375 19.4831 106.522 19.5005 96.7893 29.2334C87.039 38.9837 87.039 54.8454 96.7893 64.6044C101.664 69.4795 108.063 71.9171 114.47 71.9171C120.878 71.9171 127.25 69.4883 132.125 64.6392L158.312 38.5484C162.926 33.9519 170.422 33.9606 175.027 38.5659C177.264 40.8032 178.492 43.7718 178.492 46.932C178.492 50.0921 177.264 53.0607 175.027 55.2981C170.422 59.9034 162.926 59.9034 158.312 55.3155L152.41 49.4479L143.068 58.7455L143.077 58.7281Z" fill="#0062FF"/>
<path d="M0 71.9346V21.5813H10.5948L11.5959 28.4761C13.1977 25.9428 15.3045 23.9666 17.9423 22.5302C20.5714 21.1024 23.5836 20.3799 26.9875 20.3799C29.5208 20.3799 31.8017 20.7107 33.8301 21.381C35.8585 22.0514 37.6606 23.0438 39.2276 24.3758C40.7946 25.7077 42.0743 27.3705 43.0755 29.3728C44.9385 26.5783 47.3673 24.3758 50.3708 22.7826C53.3655 21.1808 56.6301 20.3886 60.1646 20.3886C64.3607 20.3886 67.9213 21.2417 70.8551 22.9393C73.7889 24.6369 76.0176 27.1355 77.5498 30.4349C79.082 33.7343 79.8481 37.7824 79.8481 42.5705V71.9433H67.9562V43.7719C67.9562 39.5062 67.0856 36.2415 65.3619 33.9781C63.6295 31.7146 61.07 30.5829 57.6661 30.5829C55.333 30.5829 53.2872 31.1488 51.5199 32.2805C49.7527 33.4122 48.3685 35.0663 47.376 37.2253C46.3749 39.393 45.8787 42.0395 45.8787 45.1648V71.9433H33.9868V43.7719C33.9868 39.5062 33.1162 36.2415 31.3925 33.9781C29.6601 31.7146 27.0658 30.5829 23.601 30.5829C21.4071 30.5829 19.4223 31.1488 17.655 32.2805C15.8878 33.4122 14.5036 35.0663 13.5111 37.2253C12.51 39.393 12.0138 42.0395 12.0138 45.1648V71.9433H0V71.9346Z" fill="white"/>
<path d="M230.673 73.136C228.01 73.136 225.607 72.7878 223.483 72.0826C221.35 71.3862 219.487 70.4199 217.885 69.1837C216.283 67.9475 214.951 66.5371 213.889 64.9353L212.592 71.9259H201.901V0H213.889V28.9723C215.491 26.5086 217.65 24.4628 220.383 22.8262C223.117 21.1982 226.512 20.3799 230.578 20.3799C235.305 20.3799 239.484 21.529 243.114 23.8273C246.744 26.1256 249.608 29.2596 251.706 33.2207C253.804 37.1818 254.858 41.7348 254.858 46.8624C254.858 51.99 253.822 56.3516 251.759 60.3474C249.695 64.3433 246.849 67.4774 243.218 69.7408C239.588 72.0043 235.409 73.136 230.682 73.136H230.673ZM228.175 62.7415C230.969 62.7415 233.468 62.0625 235.671 60.6957C237.864 59.3289 239.579 57.4659 240.816 55.0979C242.052 52.7387 242.661 49.9529 242.661 46.7579C242.661 43.563 242.043 40.8642 240.816 38.4615C239.579 36.0674 237.864 34.1957 235.671 32.8638C233.468 31.5318 230.978 30.8702 228.175 30.8702C225.372 30.8702 222.795 31.5405 220.627 32.8638C218.459 34.1957 216.762 36.0587 215.534 38.4615C214.298 40.8555 213.689 43.6239 213.689 46.7579C213.689 49.892 214.307 52.7387 215.534 55.0979C216.771 57.4659 218.468 59.3289 220.627 60.6957C222.795 62.0625 225.302 62.7415 228.175 62.7415Z" fill="white"/>
<path d="M283.229 73.1359C279.103 73.1359 275.673 72.4395 272.939 71.0379C270.206 69.6363 268.177 67.7733 266.845 65.4401C265.513 63.107 264.852 60.5824 264.852 57.8488C264.852 54.6539 265.67 51.8855 267.298 49.5524C268.926 47.2193 271.346 45.4085 274.541 44.1113C277.736 42.8142 281.671 42.1613 286.328 42.1613H299.021C299.021 39.4974 298.656 37.2861 297.924 35.5189C297.193 33.7516 296.061 32.4371 294.529 31.5752C292.997 30.7134 291.029 30.2781 288.635 30.2781C285.902 30.2781 283.569 30.8962 281.645 32.1237C279.712 33.3599 278.511 35.2403 278.049 37.7649H266.262C266.662 34.1695 267.864 31.0877 269.857 28.5196C271.851 25.9601 274.506 23.9578 277.797 22.5214C281.096 21.0937 284.709 20.3711 288.635 20.3711C293.362 20.3711 297.393 21.1894 300.727 22.8174C304.053 24.454 306.604 26.7784 308.371 29.808C310.138 32.8376 311.018 36.4852 311.018 40.751V71.9258H300.823L299.622 63.8296C298.952 65.1616 298.107 66.3978 297.071 67.5295C296.035 68.6612 294.86 69.645 293.528 70.4807C292.196 71.3164 290.681 71.9607 288.984 72.4308C287.286 72.8922 285.371 73.1272 283.238 73.1272L283.229 73.1359ZM285.928 63.6468C287.861 63.6468 289.576 63.2986 291.073 62.5934C292.57 61.897 293.867 60.8958 294.973 59.5987C296.07 58.3015 296.923 56.8477 297.524 55.2546C298.124 53.6527 298.525 51.9551 298.725 50.1618V49.9615H287.634C285.301 49.9615 283.368 50.2575 281.836 50.8582C280.304 51.4589 279.207 52.2772 278.537 53.3045C277.866 54.3405 277.536 55.5505 277.536 56.9522C277.536 58.3538 277.866 59.5464 278.537 60.5476C279.198 61.5487 280.165 62.3148 281.436 62.8459C282.698 63.3769 284.195 63.6468 285.928 63.6468Z" fill="white"/>
</g>
<defs>
<clipPath id="clip0_23212_4192">
<rect width="311" height="73.136" fill="white"/>
</clipPath>
</defs>
</svg>
