<svg width="172" height="38" viewBox="0 0 172 38" fill="none" xmlns="http://www.w3.org/2000/svg">
<g clip-path="url(#clip0_22852_1771)">
<path d="M100.286 32.0749C100.286 32.8335 100.14 33.482 99.8388 34.0205C99.2426 35.1033 98.0892 35.6969 96.4705 35.6969H94.2126V28.4902H96.6465C97.4128 28.4902 98.0677 28.6337 98.6092 28.9187C99.6922 29.4906 100.288 30.5793 100.288 32.0729L100.286 32.0749ZM99.7997 32.0749C99.7997 31.4106 99.6785 30.8427 99.4342 30.371C98.9474 29.4257 97.9954 28.9029 96.623 28.9029H94.7151V35.29H96.449C97.1763 35.29 97.794 35.1643 98.2925 34.9049C99.2875 34.3939 99.8017 33.4093 99.8017 32.0749H99.7997Z" fill="white"/>
<path d="M107.402 33.0908H102.732C102.738 33.5192 102.826 33.9044 103 34.2503C103.356 34.9656 104.038 35.4157 104.974 35.4157C105.309 35.4157 105.598 35.3665 105.833 35.2624C106.308 35.0639 106.609 34.7455 106.757 34.4822L107.201 34.6413C107.109 34.8222 106.966 34.999 106.775 35.1798C106.382 35.5434 105.786 35.8126 104.976 35.8126C104.423 35.8126 103.948 35.6908 103.538 35.4491C102.722 34.9656 102.253 34.0911 102.253 33.0141C102.253 32.4815 102.369 31.9981 102.591 31.5736C103.039 30.7265 103.848 30.2156 104.855 30.2156C105.549 30.2156 106.179 30.4573 106.648 30.9191C107.119 31.381 107.402 32.0452 107.402 32.8864V33.0888V33.0908ZM102.738 32.7016H106.916C106.9 32.344 106.812 32.0138 106.663 31.717C106.319 31.0351 105.684 30.6126 104.853 30.6126C104.449 30.6126 104.087 30.7108 103.77 30.9152C103.174 31.2886 102.787 31.9371 102.736 32.7016H102.738Z" fill="white"/>
<path d="M109.263 34.4389L109.723 34.3407C109.903 35.0501 110.472 35.4235 111.375 35.4235C112.364 35.4235 113.036 34.9558 113.036 34.3013C113.036 33.7904 112.675 33.4602 111.947 33.301L110.974 33.0868C109.973 32.8667 109.477 32.3832 109.477 31.6856C109.477 31.3947 109.564 31.1353 109.733 30.9152C110.077 30.4809 110.7 30.2175 111.482 30.2175C112.516 30.2175 113.161 30.6636 113.451 31.4537L113.003 31.5637C112.784 30.9761 112.319 30.6027 111.482 30.6027C110.585 30.6027 109.957 31.037 109.957 31.6699C109.957 32.1808 110.335 32.5267 111.123 32.6977L112.069 32.906C113.025 33.1084 113.529 33.588 113.529 34.2856C113.529 34.5883 113.435 34.8516 113.255 35.0776C112.89 35.5395 112.221 35.8146 111.375 35.8146C110.237 35.8146 109.477 35.3194 109.263 34.4409V34.4389Z" fill="white"/>
<path d="M115.601 28.9972C115.601 28.8164 115.775 28.6611 115.99 28.6611C116.205 28.6611 116.383 28.8144 116.383 28.9972C116.383 29.18 116.207 29.3372 115.994 29.3372C115.781 29.3372 115.601 29.178 115.601 28.9972ZM116.231 35.6968H115.756V30.2884H116.231V35.6968Z" fill="white"/>
<path d="M118.719 36.752L119.124 36.5378C119.218 36.7147 119.343 36.868 119.513 37.0056C119.847 37.2748 120.338 37.4458 120.995 37.4458C122.17 37.4458 122.909 36.9132 122.909 35.8087V34.4684H122.86C122.766 34.6983 122.631 34.9027 122.449 35.0835C122.078 35.4471 121.558 35.6711 120.885 35.6711C120.404 35.6711 119.982 35.5611 119.617 35.3351C118.883 34.8949 118.446 34.0754 118.446 32.9925C118.446 32.4481 118.549 31.9706 118.752 31.552C119.157 30.7167 119.912 30.2156 120.895 30.2156C121.245 30.2156 121.552 30.2706 121.808 30.3866C122.328 30.6165 122.672 31.0351 122.864 31.4969H122.918V30.2883H123.389V35.8284C123.389 36.2745 123.292 36.6479 123.088 36.9505C122.69 37.544 121.941 37.8349 120.995 37.8349C119.851 37.8349 119.054 37.4183 118.721 36.752H118.719ZM122.912 32.9866C122.912 32.5307 122.836 32.1238 122.678 31.7662C122.367 31.0508 121.765 30.6126 120.928 30.6126C120.508 30.6126 120.152 30.7167 119.851 30.925C119.255 31.3476 118.926 32.1022 118.926 32.9866C118.926 33.4366 119.009 33.8336 119.167 34.1736C119.489 34.8615 120.095 35.2722 120.928 35.2722C122.154 35.2722 122.912 34.3977 122.912 32.9846V32.9866Z" fill="white"/>
<path d="M126.425 35.6967H125.95V30.2883H126.415V31.1451H126.464C126.754 30.5889 127.41 30.2214 128.28 30.2214C128.691 30.2214 129.057 30.2981 129.369 30.4474C129.993 30.756 130.358 31.3377 130.358 32.1297V35.6967H129.883V32.1513C129.883 31.2277 129.199 30.6184 128.189 30.6184C127.854 30.6184 127.555 30.6852 127.285 30.8169C126.756 31.0803 126.427 31.5637 126.427 32.1965V35.6986L126.425 35.6967Z" fill="white"/>
<path d="M137.691 35.5828C136.915 35.2703 136.45 34.6925 136.389 33.9496H136.898C136.925 34.2464 137.029 34.5058 137.22 34.72C137.598 35.1602 138.248 35.402 139.058 35.402C139.496 35.402 139.883 35.3371 140.217 35.2035C140.884 34.9401 141.282 34.4449 141.282 33.8239C141.282 33.5703 141.216 33.3561 141.079 33.1753C140.805 32.8176 140.282 32.5602 139.5 32.3558L138.553 32.1023C137.269 31.7564 136.591 31.1786 136.591 30.2942C136.591 29.9267 136.7 29.5966 136.925 29.3057C137.363 28.7338 138.166 28.3879 139.128 28.3879C139.615 28.3879 140.041 28.4705 140.413 28.6356C141.152 28.9657 141.611 29.5592 141.654 30.2903H141.167C141.079 29.4059 140.282 28.7948 139.116 28.7948C138.724 28.7948 138.374 28.8616 138.061 28.9873C137.443 29.2448 137.072 29.7066 137.072 30.2844C137.072 30.532 137.142 30.7463 137.285 30.9271C137.57 31.2946 138.094 31.5363 138.745 31.7132L139.636 31.949C140.242 32.1082 140.768 32.3165 141.157 32.6133C141.546 32.91 141.763 33.3011 141.763 33.8219C141.763 34.2012 141.654 34.5412 141.435 34.8438C140.991 35.4432 140.166 35.8166 139.056 35.8166C138.53 35.8166 138.076 35.74 137.689 35.5808L137.691 35.5828Z" fill="white"/>
<path d="M146.545 35.691C146.375 35.7519 146.195 35.7853 145.982 35.7853C145.151 35.7853 144.494 35.2802 144.494 34.4941V30.6736H143.591V30.2885H144.494V29.0032H144.969V30.2885H146.254V30.6736H144.969V34.4234C144.969 35.0228 145.413 35.3687 146.007 35.3687C146.154 35.3687 146.275 35.3529 146.422 35.3136L146.543 35.6929L146.545 35.691Z" fill="white"/>
<path d="M149.587 35.5317C148.969 35.229 148.604 34.6473 148.604 33.8612V30.2883H149.079V33.8455C149.079 34.7416 149.763 35.3508 150.746 35.3508C151.069 35.3508 151.364 35.284 151.632 35.1583C152.167 34.9008 152.517 34.4213 152.517 33.7845V30.2883H152.992V35.6967H152.517V34.8163H152.474C152.185 35.3725 151.516 35.7675 150.642 35.7616C150.244 35.7616 149.894 35.6849 149.587 35.5317Z" fill="white"/>
<path d="M156.362 35.4492C155.629 34.9717 155.209 34.0912 155.209 33.0084C155.209 32.464 155.313 31.9864 155.516 31.5619C155.921 30.7208 156.669 30.2157 157.649 30.2157C157.999 30.2157 158.306 30.2708 158.567 30.3867C159.087 30.6166 159.441 31.0352 159.623 31.4971H159.672V28.4902H160.147V35.6969H159.682V34.5157H159.621C159.527 34.7516 159.392 34.9658 159.217 35.1584C158.861 35.5534 158.343 35.8128 157.643 35.8128C157.156 35.8128 156.73 35.691 156.364 35.4492H156.362ZM158.751 35.1033C159.342 34.6847 159.67 33.9262 159.67 33.0044C159.67 32.5485 159.594 32.1358 159.435 31.7742C159.119 31.0549 158.511 30.6147 157.68 30.6147C157.266 30.6147 156.91 30.7188 156.615 30.9272C156.018 31.3497 155.69 32.1044 155.69 33.0044C155.69 33.4604 155.772 33.8672 155.93 34.2308C156.247 34.9618 156.849 35.4178 157.68 35.4178C158.096 35.4178 158.45 35.3136 158.751 35.1053V35.1033Z" fill="white"/>
<path d="M162.56 28.9972C162.56 28.8164 162.736 28.6611 162.949 28.6611C163.162 28.6611 163.342 28.8144 163.342 28.9972C163.342 29.18 163.168 29.3372 162.953 29.3372C162.737 29.3372 162.56 29.178 162.56 28.9972ZM163.189 35.6968H162.714V30.2884H163.189V35.6968Z" fill="white"/>
<path d="M166.673 35.4491C165.885 34.9656 165.404 34.0911 165.404 33.0141C165.404 32.4697 165.519 31.9922 165.742 31.5677C166.196 30.7265 167.011 30.2156 168.017 30.2156C168.52 30.2156 168.97 30.3374 169.362 30.5733C170.15 31.0567 170.631 31.9371 170.631 33.0141C170.631 33.5526 170.516 34.0302 170.293 34.4546C169.839 35.2958 169.03 35.8126 168.017 35.8126C167.515 35.8126 167.065 35.6908 166.673 35.4491ZM169.144 35.0934C169.779 34.6649 170.15 33.9122 170.15 33.0161C170.15 32.57 170.062 32.1651 169.882 31.8015C169.527 31.0764 168.876 30.6145 168.017 30.6145C167.597 30.6145 167.224 30.7187 166.901 30.9329C166.262 31.3613 165.885 32.1199 165.885 33.0161C165.885 33.4622 165.973 33.869 166.153 34.2306C166.508 34.9558 167.163 35.4176 168.017 35.4176C168.45 35.4176 168.821 35.3076 169.144 35.0934Z" fill="white"/>
<path d="M37.9705 24.9625V0.834961H43.1138V20.1731H54.2918V24.9645H37.9705V24.9625Z" fill="white"/>
<path d="M62.2112 25.2729C60.1546 25.2729 58.3815 24.6126 56.8958 23.29C55.4101 21.9693 54.6672 20.2163 54.6672 18.0329V6.69531H59.6385V16.7594C59.6385 17.9091 59.9865 18.8387 60.6844 19.5521C61.3803 20.2655 62.2327 20.6212 63.2394 20.6212C64.4495 20.6212 65.4269 20.1908 66.1698 19.328C66.9127 18.4672 67.2841 17.404 67.2841 16.1404V6.69531H72.2554V24.9644H67.2841V23.2762C65.9118 24.6087 64.2208 25.2749 62.2092 25.2749L62.2112 25.2729Z" fill="white"/>
<path d="M72.8066 24.9624L78.3273 15.8279L72.8066 6.69336H78.2921L82.1666 13.0706L86.0412 6.69336H91.5267L86.0061 15.8279L91.5267 24.9624H86.0412L82.1666 18.5852L78.2921 24.9624H72.8066Z" fill="white"/>
<path d="M95.5047 24.9624L91.3896 6.69336H96.3277L98.83 19.7918L101.813 6.69336H107.779L110.763 19.8252L113.232 6.69336H118.203L114.088 24.9624H107.643L104.796 11.3117L101.95 24.9624H95.5047Z" fill="white"/>
<path d="M124.271 25.2395C123.54 25.2395 122.814 25.1589 122.093 24.9978C121.374 24.8366 120.637 24.5556 119.882 24.1527C119.128 23.7518 118.522 23.1426 118.064 22.325C117.607 21.5094 117.378 20.5386 117.378 19.4125C117.378 17.459 118.023 16.0342 119.315 15.138C120.607 14.2419 122.349 13.7938 124.545 13.7938H129.721V12.933C129.721 11.3942 128.542 10.6238 126.189 10.6238C124.177 10.6238 122.953 11.2567 122.519 12.5203L117.786 12.5891C117.786 10.7516 118.586 9.25798 120.187 8.1083C121.786 6.95862 123.753 6.38477 126.085 6.38477C128.417 6.38477 130.302 6.9429 131.948 8.0572C133.594 9.17151 134.417 10.6022 134.417 12.3493V24.9644H129.719V23.2055C129.238 23.7577 128.513 24.2333 127.541 24.6362C126.57 25.0371 125.479 25.2395 124.267 25.2395H124.271ZM124.683 21.1714C125.917 21.1714 127.066 20.7921 128.13 20.0335C129.193 19.2749 129.725 18.367 129.725 17.3097H125.473C124.421 17.3097 123.616 17.5101 123.057 17.913C122.496 18.3159 122.263 18.8603 122.353 19.5501C122.49 20.631 123.268 21.1694 124.685 21.1694L124.683 21.1714Z" fill="white"/>
<path d="M139.94 24.9624L134.454 6.69336H139.734L143.918 21.5154L148.101 6.69336H153.417L147.931 24.9624H139.941H139.94Z" fill="white"/>
<path d="M161.781 25.2395C159.176 25.2395 156.965 24.3138 155.147 22.4645C153.328 20.6152 152.421 18.4023 152.421 15.8298C152.421 13.2573 153.34 10.952 155.182 9.12629C157.021 7.2986 159.222 6.38672 161.781 6.38672C163.998 6.38672 165.965 7.10011 167.679 8.52296C169.394 9.94777 170.479 11.7401 170.936 13.8999C171.233 15.2088 171.245 16.4744 170.971 17.6909H157.324C157.598 18.703 158.136 19.4773 158.935 20.0178C159.735 20.5582 160.685 20.8275 161.781 20.8275C163.517 20.8275 164.946 20.3106 166.067 19.2769L170.387 20.517C169.677 21.9418 168.5 23.0856 166.854 23.9463C165.208 24.8071 163.517 25.2395 161.779 25.2395H161.781ZM157.324 13.898H166.137C165.863 13.0254 165.337 12.2904 164.559 11.691C163.781 11.0935 162.845 10.7948 161.748 10.7948C160.651 10.7948 159.707 11.0935 158.919 11.691C158.132 12.2884 157.6 13.0234 157.324 13.898Z" fill="white"/>
<path d="M24.4445 1.59351V12.8623L16.4392 20.9101V25.0804H20.3294L30.0491 15.2776V1.59351H24.4445Z" fill="white"/>
<path d="M12.9517 6.21973L11.4816 7.69565V15.5469L5.77141 21.2874V1.59351H0.166748V23.4315L1.84991 25.1236H4.09021H5.77141H9.32736L16.3962 17.8207V6.21973H12.9517Z" fill="white"/>
</g>
<defs>
<clipPath id="clip0_22852_1771">
<rect width="171" height="37" fill="white" transform="translate(0.166748 0.834961)"/>
</clipPath>
</defs>
</svg>
