<svg width="156" height="52" viewBox="0 0 156 52" fill="none" xmlns="http://www.w3.org/2000/svg">
<g clip-path="url(#clip0_22844_1515)">
<path d="M3.54149 47.9327L3.43117 47.9692C3.46794 48.1151 3.50471 48.3381 3.50471 48.5936V51.1318H0.166504V25.3723H3.50471V36.3403C3.50471 36.5592 3.50471 36.8917 3.46794 37.0377L3.54149 37.0742C4.469 34.5724 7.58248 33.0641 10.365 33.0641C15.7053 33.0641 19.1539 36.8552 19.1539 42.0817C19.1539 47.5637 15.4847 51.5008 10.2915 51.5008C7.21474 51.5008 4.69372 50.2114 3.54149 47.9327ZM9.88286 48.5206C13.4785 48.5206 15.8156 45.7228 15.8156 42.0452C15.8156 38.8826 13.5153 36.0483 9.69491 36.0483C6.28315 36.0483 3.57417 38.6231 3.57417 42.1953C3.57417 46.0229 6.13197 48.5246 9.87877 48.5246L9.88286 48.5206Z" fill="white"/>
<path d="M30.6109 33.0681C36.4334 33.0681 39.698 36.7498 39.698 42.3047V43.2251H24.9764C25.2379 46.5743 27.9796 48.6706 31.8367 48.6706C34.4312 48.6706 35.7673 48.2286 37.8062 47.3812L37.8798 50.2884C36.2863 51.0264 33.467 51.5048 31.6119 51.5048C26.1981 51.5048 21.5605 48.6706 21.5605 42.1223C21.5605 36.8228 25.4177 33.0681 30.6109 33.0681ZM25.0499 40.5734H36.2863C36.0656 37.8121 33.7652 35.8253 30.6109 35.8253C27.6445 35.8253 25.3441 37.7756 25.0499 40.5734Z" fill="white"/>
<path d="M51.1182 33.0681C56.9407 33.0681 60.2053 36.7498 60.2053 42.3047V43.2251H45.4837C45.7452 46.5743 48.4869 48.6706 52.344 48.6706C54.9386 48.6706 56.2747 48.2286 58.3136 47.3812L58.3871 50.2884C56.7936 51.0264 53.9743 51.5048 52.1193 51.5048C46.7054 51.5048 42.0679 48.6706 42.0679 42.1223C42.0679 36.8228 45.925 33.0681 51.1182 33.0681ZM45.5573 40.5734H56.7936C56.5729 37.8121 54.2726 35.8253 51.1182 35.8253C48.1518 35.8253 45.8514 37.7756 45.5573 40.5734Z" fill="white"/>
<path d="M81.9015 33.5549L78.1752 47.3165C77.8769 48.4275 77.8769 49.1655 78.5102 49.1655C79.4418 49.1655 81.0067 46.7245 81.6441 45.4676L82.5389 46.0231C81.3091 48.687 79.3682 51.1279 76.6838 51.1279C74.743 51.1279 74.2976 49.648 75.0821 47.134L76.1649 43.5456H76.0913C74.077 47.0611 70.7959 51.132 67.0328 51.132C64.4995 51.132 63.7886 49.3195 63.7886 46.9151C63.7886 42.3292 67.6293 33.1899 75.9075 33.1899C77.1006 33.1899 78.0689 33.5589 78.7022 34.0049L78.8126 33.5589H81.9056L81.9015 33.5549ZM76.1976 34.4793C70.7551 34.4793 67.3597 42.9901 67.3597 46.8016C67.3597 48.1721 67.6947 49.1695 68.8143 49.1695C71.985 49.1695 76.4182 41.3642 77.501 37.9218C77.7992 36.9243 78.0975 35.9958 78.3222 35.1849C77.7992 34.7023 77.0188 34.4834 76.1976 34.4834V34.4793Z" fill="white"/>
<path d="M97.9348 45.8728C95.5487 49.9438 92.5291 51.1642 89.62 51.1642C87.0458 51.1642 84.5493 49.7572 84.5493 45.5404C84.5493 39.8435 88.4269 33.1816 94.7274 33.1816C97.3751 33.1816 99.1279 34.5521 99.1279 36.3281C99.1279 37.5121 97.8245 38.2541 96.9665 38.2541C96.3332 38.2541 95.9981 37.8486 95.9613 37.1796C95.7366 35.1441 95.0297 34.4427 93.947 34.4427C90.7395 34.4427 88.1695 40.326 88.1695 44.8389C88.1695 47.2798 88.6925 49.3518 91.2257 49.3518C93.5384 49.3518 95.7366 47.1704 97.1544 45.1349L97.9389 45.8769L97.9348 45.8728Z" fill="white"/>
<path d="M107.479 34.9981L104.386 47.5393C104.162 48.3908 104.198 49.1652 104.873 49.1652C105.841 49.1652 107.745 46.9068 108.562 45.5038L109.347 46.1688C107.929 48.7962 105.731 51.1277 102.895 51.1277C101.105 51.1277 100.656 49.6477 101.179 47.6123L104.309 34.9941H101.4L101.771 33.6236H104.644L105.465 30.4771L108.673 28.6282L109.081 28.8877L107.814 33.6236H111.917L111.508 34.9941H107.484L107.479 34.9981Z" fill="white"/>
<path d="M120.232 46.0959C119.038 48.7599 117.098 51.1278 114.528 51.1278C112.587 51.1278 112.105 49.6478 112.628 47.6124L115.574 36.8107C115.909 35.6267 115.798 35.2942 114.83 35.2212L112.816 35.0712L113.077 34.1832L119.529 33.2223L119.717 33.4088L115.913 47.3204C115.614 48.3949 115.541 49.2059 116.211 49.2059C117.179 49.2059 118.748 46.765 119.418 45.5445L120.24 46.1L120.232 46.0959ZM121.126 28.0039C121.126 29.4473 120.232 30.4083 118.851 30.4083C117.768 30.4083 116.914 29.7068 116.914 28.4093C116.914 27.2619 117.657 26.0779 119.226 26.0779C120.195 26.0779 121.126 26.6334 121.126 28.0039Z" fill="white"/>
<path d="M129.85 33.2222L130.038 33.4087L126.904 46.6919C126.495 48.3584 127.202 49.2058 128.097 49.2058C131.153 49.2058 135.664 43.6184 135.664 37.5161C135.664 36.2591 135.517 34.9251 135.256 33.9642C136.04 33.5222 137.045 33.2262 137.867 33.2262C138.165 33.2262 138.986 34.5562 138.986 35.9267C138.949 38.1081 137.27 42.1425 134.884 45.3619C132.461 48.5814 129.368 51.1318 126.344 51.1318C124.293 51.1318 123.063 49.5788 123.811 46.4324L126.046 36.8876C126.307 35.7401 126.307 35.2982 125.523 35.2211L123.325 35.0711L123.549 34.1831L129.85 33.2222Z" fill="white"/>
<path d="M154.084 46.0595C151.661 49.9439 148.49 51.1278 145.695 51.1278C143.497 51.1278 140.514 50.2399 140.514 45.3945C140.514 42.4711 141.597 39.2881 143.423 37.0337C145.36 34.6658 147.824 33.1858 150.991 33.1858C153.9 33.1858 155.166 34.8523 155.166 36.7377C155.166 41.5101 147.746 42.8806 144.13 43.286C144.093 43.5455 144.057 44.397 144.057 44.5795C144.057 47.2799 144.8 49.3519 147.227 49.3519C149.875 49.3519 151.889 47.2069 153.23 45.358L154.088 46.0595H154.084ZM151.996 36.4782C151.996 35.2942 151.326 34.4063 150.096 34.4063C147.338 34.4063 144.837 37.9217 144.241 42.1021C148.751 41.4736 151.996 39.8071 151.996 36.4782Z" fill="white"/>
<path d="M92.0348 16.1682C92.0348 12.2108 89.7753 9.55497 85.7261 9.41711C85.2562 7.44247 83.7894 5.97873 81.8159 5.44351C81.9221 4.68122 82.1632 3.86623 82.6821 3.26208C83.2296 2.61333 84.0223 2.29706 85.101 2.28895L85.0887 0.504883C83.4339 0.512992 82.1387 1.08065 81.2397 2.19164C80.4839 3.12422 80.1529 4.28386 80.0221 5.32592C79.8914 4.28386 79.5645 3.12827 78.8209 2.2038C77.922 1.08876 76.6267 0.517047 74.9638 0.504883L74.9515 2.28895C76.0302 2.29706 76.8188 2.61333 77.3704 3.26208C77.877 3.85812 78.1263 4.68933 78.2325 5.48405C76.2753 6.04766 74.8493 7.48707 74.4244 9.41306C70.2404 9.46577 67.8992 12.1419 67.8992 16.1722V16.8453H78.6738C78.4817 19.2944 76.4756 20.8311 73.6522 20.8311C71.7522 20.8311 70.7757 20.5067 69.2843 19.8904L69.2312 22.0191C70.3998 22.5584 72.4591 22.9071 73.8197 22.9071C76.3489 22.9071 78.6411 22.0597 79.969 20.2026C81.301 22.0597 83.5933 22.9071 86.1184 22.9071C87.4749 22.9071 89.5383 22.5584 90.7069 22.0191L90.6538 19.8904C89.1624 20.5108 88.1858 20.8311 86.2859 20.8311C83.4625 20.8311 81.4563 19.2944 81.2643 16.8453H92.0389V16.1722L92.0348 16.1682ZM80.1243 7.13837C81.8772 7.13837 83.2705 8.11555 83.7526 9.58741C82.1713 9.94828 80.8516 10.8322 79.969 12.081C79.1191 10.8768 77.8648 10.0172 76.3611 9.63201C76.7902 8.11555 78.2202 7.13432 80.1202 7.13432L80.1243 7.13837ZM70.3998 14.9031C70.5632 12.8839 72.2466 11.4282 74.5511 11.4282C76.7207 11.4282 78.4041 12.8555 78.6207 14.9031H70.3957H70.3998ZM81.3174 14.9031C81.5339 12.8555 83.2173 11.4282 85.387 11.4282C87.6955 11.4282 89.3748 12.8839 89.5383 14.9031H81.3133H81.3174Z" fill="white"/>
</g>
<defs>
<clipPath id="clip0_22844_1515">
<rect width="155" height="51" fill="white" transform="translate(0.166504 0.504883)"/>
</clipPath>
</defs>
</svg>
