<svg width="158" height="31" viewBox="0 0 158 31" fill="none" xmlns="http://www.w3.org/2000/svg">
<path d="M0.675781 7.7818C0.675781 6.78378 0.858346 5.85422 1.22652 4.99464C1.59317 4.13506 2.09218 3.38655 2.72355 2.74909C3.35492 2.11164 4.09735 1.61262 4.95237 1.25206C5.80586 0.891493 6.72021 0.710449 7.69541 0.710449C8.57324 0.710449 9.37653 0.842809 10.1037 1.10753C10.831 1.37225 11.4471 1.70239 11.9522 2.09946V3.00164C11.4471 2.56805 10.8218 2.19835 10.0764 1.89256C9.33089 1.58524 8.51847 1.4331 7.64064 1.4331C6.7628 1.4331 5.94735 1.59589 5.19579 1.91994C4.44423 2.244 3.78852 2.68976 3.22865 3.25419C2.66878 3.82014 2.23063 4.48955 1.91114 5.26545C1.59165 6.04135 1.43343 6.87963 1.43343 7.7818C1.43343 8.68398 1.59317 9.50248 1.91114 10.2708C2.22911 11.0406 2.66878 11.7085 3.22865 12.2729C3.78852 12.8389 4.44271 13.2831 5.19579 13.6087C5.94735 13.9327 6.7628 14.0955 7.64064 14.0955C8.51847 14.0955 9.33393 13.9571 10.0125 13.6802C10.691 13.4033 11.3269 13.0123 11.9157 12.5072V13.4276C11.3741 13.849 10.7488 14.1822 10.0398 14.4287C9.32936 14.6752 8.52456 14.7984 7.62238 14.7984C6.6487 14.7984 5.74044 14.6204 4.8976 14.2659C4.05476 13.9114 3.32145 13.4185 2.69617 12.7871C2.07088 12.1558 1.57796 11.4133 1.21739 10.5583C0.856825 9.70482 0.675781 8.7783 0.675781 7.78028L0.675781 7.7818Z" fill="white"/>
<path d="M20.6286 0.384766H20.6651L26.457 14.5655H25.6263L23.8037 10.0196H17.417L15.5761 14.5655H14.7637L20.6286 0.384766ZM23.5161 9.31524L21.8928 5.23795C21.6768 4.70851 21.4623 4.17908 21.2523 3.64964C21.0424 3.1202 20.834 2.58467 20.6301 2.04459C20.4262 2.5862 20.2148 3.12172 19.9987 3.64964C19.7827 4.17908 19.559 4.7146 19.3308 5.25469L17.6893 9.31372H23.5161V9.31524Z" fill="white"/>
<path d="M31.435 0.384766H31.4715L36.1619 13.1947L40.9071 0.403022H40.9618L43.5953 14.5655H42.8194L40.6545 2.69421L36.1802 14.9991H36.1254L31.6875 2.69421L29.4861 14.5655H28.7102L31.435 0.384766Z" fill="white"/>
<path d="M47.5098 14.5656V0.961426H48.2492V14.564H47.5098V14.5656Z" fill="white"/>
<path d="M53.1936 14.5656V0.961426H53.933V13.8612H58.4971V14.564H53.1936V14.5656Z" fill="white"/>
<path d="M66.8144 0.384766H66.8509L72.6428 14.5655H71.8121L69.9895 10.0196H63.6027L61.7619 14.5655H60.9495L66.8144 0.384766ZM69.7004 9.31524L68.0771 5.23795C67.8611 4.70851 67.6466 4.17908 67.4366 3.64964C67.2267 3.1202 67.0182 2.58467 66.8144 2.04459C66.609 2.5862 66.399 3.12172 66.183 3.64964C65.967 4.17908 65.7433 4.7146 65.5151 5.25469L63.8735 9.31372H69.7004V9.31524Z" fill="white"/>
<path d="M82.0405 11.6066C82.3523 12.3642 82.8194 12.9682 83.4386 13.4201C84.0578 13.8704 84.8063 14.0971 85.6841 14.0971C86.1406 14.0971 86.5559 14.0225 86.9286 13.8719C87.3014 13.7213 87.6209 13.5144 87.8856 13.2497C88.1503 12.985 88.3572 12.6731 88.5078 12.311C88.6584 11.9504 88.733 11.5594 88.733 11.138C88.733 10.7166 88.6752 10.3408 88.5611 10.0107C88.447 9.68053 88.2629 9.37626 88.0103 9.09937C87.7578 8.82248 87.4307 8.5608 87.0275 8.31434C86.6244 8.06788 86.1406 7.81837 85.5746 7.56582C85.0573 7.32545 84.5857 7.0942 84.1582 6.87055C83.7307 6.64843 83.3671 6.40197 83.0674 6.13117C82.7661 5.86036 82.5319 5.55152 82.3645 5.20161C82.1956 4.85321 82.112 4.43788 82.112 3.95712C82.112 3.47637 82.1987 3.0732 82.3736 2.67612C82.5486 2.27904 82.7859 1.93673 83.0856 1.64767C83.3853 1.35861 83.7413 1.13041 84.1506 0.961533C84.5598 0.79266 85.0041 0.708984 85.4864 0.708984C86.2805 0.708984 86.953 0.896113 87.5068 1.26885C88.0605 1.64159 88.5169 2.15886 88.8775 2.82065L88.2461 3.18122C87.9099 2.59245 87.5281 2.15277 87.1005 1.86371C86.673 1.57465 86.136 1.43012 85.4864 1.43012C85.1258 1.43012 84.785 1.49401 84.467 1.62029C84.1476 1.74656 83.8722 1.92152 83.6364 2.14364C83.4021 2.36576 83.215 2.63352 83.0765 2.94693C82.9381 3.26033 82.8696 3.60264 82.8696 3.97538C82.8696 4.34811 82.9381 4.67369 83.0765 4.94906C83.215 5.22595 83.4188 5.47545 83.6896 5.69757C83.9604 5.91969 84.2906 6.13421 84.6816 6.33807C85.0725 6.54346 85.5198 6.75341 86.0249 6.96944C86.6259 7.23416 87.1462 7.50193 87.5859 7.77273C88.024 8.04353 88.3861 8.34172 88.6691 8.66578C88.9521 8.98983 89.159 9.35496 89.2913 9.7566C89.4237 10.1598 89.4891 10.6253 89.4891 11.1547C89.4891 11.6842 89.3933 12.1893 89.2 12.6335C89.0068 13.0793 88.7406 13.4612 88.3968 13.7791C88.0545 14.0986 87.6513 14.3481 87.1873 14.5276C86.7248 14.7087 86.2227 14.7984 85.6811 14.7984C84.5979 14.7984 83.6911 14.5307 82.9563 13.9952C82.223 13.4596 81.6814 12.7659 81.333 11.9109L82.0359 11.6036L82.0405 11.6066Z" fill="white"/>
<path d="M97.9526 0.384766H97.9891L103.781 14.5655H102.95L101.128 10.0196H94.7409L92.9001 14.5655H92.0876L97.9526 0.384766ZM100.84 9.31524L99.2168 5.23795C99.0008 4.70851 98.7863 4.17908 98.5763 3.64964C98.3664 3.1202 98.1579 2.58467 97.9541 2.04459C97.7502 2.5862 97.5387 3.12172 97.3227 3.64964C97.1067 4.17908 96.883 4.7146 96.6548 5.25469L95.0133 9.31372H100.84V9.31524Z" fill="white"/>
<path d="M117.131 0.961259H117.888V14.9975H117.817L107.805 2.36853V14.5639H107.065V0.492676H107.12L117.132 13.1034V0.961259H117.131Z" fill="white"/>
<path d="M121.371 0.961426H129.11V1.6643H125.609V14.564H124.852V1.66582H121.369V0.961426H121.371Z" fill="white"/>
<path d="M131.726 7.74516C131.726 6.74713 131.911 5.82062 132.285 4.96712C132.658 4.11363 133.16 3.37424 133.792 2.74744C134.423 2.12215 135.162 1.62923 136.011 1.26866C136.859 0.908094 137.752 0.727051 138.69 0.727051C139.629 0.727051 140.522 0.905052 141.37 1.25953C142.217 1.61401 142.958 2.10694 143.589 2.73831C144.221 3.36968 144.723 4.11515 145.095 4.97473C145.468 5.83431 145.655 6.76387 145.655 7.76189C145.655 8.75991 145.468 9.68947 145.095 10.549C144.723 11.4086 144.218 12.1541 143.58 12.787C142.943 13.4184 142.2 13.9113 141.351 14.2658C140.502 14.6202 139.605 14.7983 138.654 14.7983C137.703 14.7983 136.843 14.6202 136.002 14.2658C135.159 13.9113 134.423 13.4214 133.792 12.7961C133.16 12.1708 132.658 11.4254 132.285 10.5582C131.913 9.69252 131.726 8.75383 131.726 7.74363V7.74516ZM132.501 7.74516C132.501 8.6595 132.67 9.50082 133.007 10.2706C133.343 11.0405 133.795 11.7083 134.359 12.2728C134.924 12.8387 135.579 13.2799 136.326 13.5994C137.072 13.9189 137.854 14.0771 138.672 14.0771C139.491 14.0771 140.311 13.9174 141.062 13.5994C141.814 13.2814 142.473 12.8387 143.039 12.2728C143.604 11.7068 144.052 11.0405 144.382 10.2706C144.712 9.50082 144.878 8.66559 144.878 7.76341C144.878 6.86124 144.712 6.02296 144.382 5.24706C144.052 4.47116 143.603 3.80023 143.039 3.2358C142.473 2.67137 141.814 2.22865 141.062 1.90916C140.311 1.59119 139.52 1.43145 138.69 1.43145C137.861 1.43145 137.07 1.59119 136.319 1.90916C135.567 2.22865 134.908 2.66985 134.342 3.2358C133.776 3.80175 133.329 4.46811 132.999 5.23793C132.669 6.00774 132.503 6.84298 132.503 7.74516H132.501Z" fill="white"/>
<path d="M149.875 11.6066C150.187 12.3642 150.654 12.9682 151.274 13.4201C151.893 13.8704 152.641 14.0971 153.519 14.0971C153.976 14.0971 154.391 14.0225 154.764 13.8719C155.136 13.7213 155.456 13.5144 155.721 13.2497C155.985 12.985 156.192 12.6731 156.343 12.311C156.493 11.9504 156.568 11.5594 156.568 11.138C156.568 10.7166 156.51 10.3408 156.396 10.0107C156.282 9.68053 156.098 9.37626 155.845 9.09937C155.593 8.82248 155.266 8.5608 154.862 8.31434C154.459 8.06788 153.976 7.81837 153.41 7.56582C152.892 7.32545 152.421 7.0942 151.993 6.87055C151.566 6.64843 151.202 6.40197 150.902 6.13117C150.601 5.86036 150.367 5.55152 150.199 5.20161C150.031 4.85321 149.947 4.43788 149.947 3.95712C149.947 3.47637 150.034 3.0732 150.209 2.67612C150.384 2.27904 150.621 1.93673 150.921 1.64767C151.22 1.35861 151.576 1.13041 151.986 0.961533C152.395 0.79266 152.839 0.708984 153.321 0.708984C154.115 0.708984 154.788 0.896113 155.342 1.26885C155.895 1.64159 156.352 2.15886 156.712 2.82065L156.081 3.18122C155.745 2.59245 155.363 2.15277 154.936 1.86371C154.508 1.57465 153.971 1.43012 153.321 1.43012C152.961 1.43012 152.62 1.49401 152.302 1.62029C151.983 1.74656 151.707 1.92152 151.471 2.14364C151.237 2.36576 151.05 2.63352 150.911 2.94693C150.773 3.26033 150.705 3.60264 150.705 3.97538C150.705 4.34811 150.773 4.67369 150.911 4.94906C151.05 5.22595 151.254 5.47545 151.525 5.69757C151.795 5.91969 152.126 6.13421 152.517 6.33807C152.908 6.54346 153.355 6.75341 153.86 6.96944C154.461 7.23416 154.981 7.50193 155.421 7.77273C155.859 8.04353 156.221 8.34172 156.504 8.66578C156.787 8.98983 156.994 9.35496 157.126 9.7566C157.259 10.1598 157.324 10.6253 157.324 11.1547C157.324 11.6842 157.228 12.1893 157.035 12.6335C156.842 13.0793 156.576 13.4612 156.232 13.7791C155.889 14.0986 155.486 14.3481 155.022 14.5276C154.56 14.7087 154.058 14.7984 153.516 14.7984C152.433 14.7984 151.526 14.5307 150.791 13.9952C150.058 13.4596 149.516 12.7659 149.168 11.9109L149.871 11.6036L149.875 11.6066Z" fill="white"/>
<path d="M47.9107 20.3233C47.9107 20.2305 47.9442 20.1529 48.0111 20.0921C48.078 20.0297 48.1526 19.9993 48.2348 19.9993C48.3169 19.9993 48.3915 20.0297 48.4584 20.0921C48.5253 20.1544 48.5588 20.2305 48.5588 20.3233C48.5588 20.4055 48.5253 20.4785 48.4584 20.5394C48.3915 20.6017 48.3123 20.6322 48.218 20.6322C48.1359 20.6322 48.0628 20.6017 48.002 20.5394C47.9411 20.477 47.9092 20.4055 47.9092 20.3233H47.9107ZM48.0811 30.0814V23.185H48.3899V30.0814H48.0811Z" fill="white"/>
<path d="M51.2198 23.185H51.5286V24.7155H51.5438C51.626 24.4888 51.7325 24.2728 51.8603 24.0659C51.9896 23.8605 52.1509 23.6764 52.3471 23.5167C52.5434 23.3569 52.7716 23.2276 53.0348 23.1302C53.298 23.0329 53.5992 22.9827 53.94 22.9827C54.6824 22.9827 55.2484 23.1941 55.6409 23.6171C56.0319 24.04 56.2281 24.6896 56.2281 25.566V30.0814H55.9193V25.6116C55.9193 24.8281 55.7444 24.2424 55.3929 23.8559C55.043 23.4695 54.5425 23.2763 53.8928 23.2763C53.1824 23.2763 52.6088 23.5167 52.1767 23.9959C51.7447 24.4751 51.5271 25.1385 51.5271 25.9828V30.0814H51.2183V23.185H51.2198Z" fill="white"/>
<path d="M57.9473 23.4787V23.185H59.1841V20.6033H59.493V23.185H60.7922V23.4787H59.493V30.0814H59.1841V23.4787H57.9473Z" fill="white"/>
<path d="M61.8906 26.6173C61.8906 26.1016 61.9728 25.6224 62.1386 25.1796C62.3029 24.7369 62.5357 24.352 62.8339 24.028C63.1321 23.7039 63.4881 23.4514 63.9004 23.2703C64.3127 23.0908 64.766 22.9995 65.2605 22.9995C65.7549 22.9995 66.2326 23.0984 66.6297 23.2931C67.0268 23.4894 67.3615 23.7465 67.6353 24.066C67.9077 24.3855 68.1176 24.7415 68.2621 25.1325C68.4067 25.525 68.4782 25.916 68.4782 26.307V26.5398H62.2147C62.204 27.0144 62.2694 27.4632 62.4079 27.8846C62.5479 28.3076 62.7502 28.6727 63.018 28.9831C63.2857 29.2919 63.6113 29.5369 63.9916 29.7179C64.3735 29.8989 64.801 29.9887 65.2757 29.9887C65.6165 29.9887 65.9177 29.9507 66.1809 29.8731C66.4441 29.7955 66.6814 29.6951 66.8929 29.5719C67.1044 29.4486 67.2869 29.3041 67.4421 29.1383C67.5973 28.974 67.7358 28.7975 67.859 28.6119L68.1222 28.7518C67.8742 29.1854 67.5243 29.5475 67.0709 29.8427C66.6175 30.1363 66.0196 30.2839 65.2772 30.2839C64.7721 30.2839 64.3111 30.1911 63.8928 30.0054C63.4744 29.8198 63.1169 29.5642 62.8187 29.2402C62.519 28.9161 62.2907 28.5297 62.131 28.0809C61.9713 27.6321 61.8906 27.1453 61.8906 26.6189V26.6173ZM62.2299 26.2613H68.1678C68.1572 25.9008 68.0872 25.5448 67.9594 25.1949C67.8301 24.8449 67.6429 24.527 67.395 24.244C67.147 23.961 66.8457 23.7313 66.4897 23.5563C66.1337 23.3814 65.7245 23.2931 65.2605 23.2931C64.8269 23.2931 64.4359 23.3707 64.086 23.5244C63.7361 23.6796 63.4287 23.888 63.1655 24.1512C62.9023 24.4144 62.6909 24.7263 62.5311 25.0868C62.3714 25.4474 62.271 25.8399 62.2299 26.2613Z" fill="white"/>
<path d="M70.6736 30.0814V23.1683H70.9824V24.5603H70.9976C71.1117 24.0963 71.2913 23.7175 71.5392 23.4239C71.7872 23.1302 72.1067 22.9827 72.4977 22.9827C72.662 22.9827 72.805 22.9979 72.9237 23.0298C73.0424 23.0603 73.158 23.1013 73.2721 23.1531L73.1321 23.4467C72.9572 23.3326 72.735 23.2763 72.4673 23.2763C72.271 23.2763 72.0854 23.3311 71.9105 23.4391C71.7355 23.5471 71.5773 23.7099 71.4388 23.9259C71.2989 24.142 71.1893 24.4188 71.1057 24.7535C71.0235 25.0882 70.9824 25.4823 70.9824 25.9372V30.0814H70.6736Z" fill="white"/>
<path d="M74.8802 20.3233C74.8802 20.2305 74.9137 20.1529 74.9806 20.0921C75.0475 20.0297 75.1221 19.9993 75.2042 19.9993C75.2864 19.9993 75.3609 20.0297 75.4279 20.0921C75.4948 20.1544 75.5283 20.2305 75.5283 20.3233C75.5283 20.4055 75.4948 20.4785 75.4279 20.5394C75.3609 20.6017 75.2803 20.6322 75.1875 20.6322C75.1053 20.6322 75.0323 20.6017 74.9715 20.5394C74.9091 20.477 74.8787 20.4055 74.8787 20.3233H74.8802ZM75.0506 30.0814V23.185H75.3594V30.0814H75.0506Z" fill="white"/>
<path d="M81.1588 22.9995C81.6745 22.9995 82.1507 23.0923 82.5889 23.2779C83.027 23.4635 83.4089 23.7191 83.7329 24.0432C84.057 24.3672 84.3126 24.7491 84.4982 25.1872C84.6838 25.6254 84.7766 26.1016 84.7766 26.6173C84.7766 27.1331 84.6838 27.6306 84.4982 28.0794C84.3126 28.5282 84.057 28.9146 83.7329 29.2387C83.4089 29.5627 83.027 29.8183 82.5889 30.0039C82.1507 30.1895 81.6745 30.2823 81.1588 30.2823C80.643 30.2823 80.182 30.1895 79.7439 30.0039C79.3057 29.8183 78.9239 29.5627 78.5998 29.2387C78.2758 28.9146 78.0202 28.5282 77.8346 28.0794C77.649 27.6306 77.5562 27.1437 77.5562 26.6173C77.5562 26.0909 77.649 25.6254 77.8346 25.1872C78.0202 24.7491 78.2758 24.3672 78.5998 24.0432C78.9239 23.7191 79.3057 23.4635 79.7439 23.2779C80.182 23.0923 80.6537 22.9995 81.1588 22.9995ZM77.8802 26.6173C77.8802 27.1118 77.9654 27.5667 78.1358 27.979C78.3062 28.3913 78.5374 28.7473 78.8311 29.0455C79.1247 29.3452 79.47 29.5764 79.8671 29.7407C80.2642 29.905 80.6948 29.9887 81.1588 29.9887C81.6228 29.9887 82.0549 29.9066 82.458 29.7407C82.8597 29.5764 83.2081 29.3436 83.5017 29.0455C83.7953 28.7473 84.0281 28.3913 84.197 27.979C84.3673 27.5667 84.4525 27.1133 84.4525 26.6173C84.4525 26.1214 84.3673 25.703 84.197 25.2953C84.0266 24.8875 83.7953 24.5346 83.5017 24.2364C83.2081 23.9382 82.8597 23.7024 82.458 23.5335C82.0564 23.3631 81.6228 23.2779 81.1588 23.2779C80.6948 23.2779 80.2642 23.3631 79.8671 23.5335C79.47 23.7039 79.1247 23.9382 78.8311 24.2364C78.5374 24.5361 78.3047 24.8891 78.1358 25.2953C77.9654 25.703 77.8802 26.1427 77.8802 26.6173Z" fill="white"/>
<path d="M86.9568 30.0814V23.1683H87.2656V24.5603H87.2808C87.3949 24.0963 87.5745 23.7175 87.8225 23.4239C88.0704 23.1302 88.3899 22.9827 88.7809 22.9827C88.9452 22.9827 89.0882 22.9979 89.2069 23.0298C89.3256 23.0603 89.4412 23.1013 89.5553 23.1531L89.4153 23.4467C89.2404 23.3326 89.0182 23.2763 88.7505 23.2763C88.5542 23.2763 88.3686 23.3311 88.1937 23.4391C88.0187 23.5471 87.8605 23.7099 87.722 23.9259C87.5821 24.142 87.4725 24.4188 87.3889 24.7535C87.3067 25.0882 87.2656 25.4823 87.2656 25.9372V30.0814H86.9568Z" fill="white"/>
<path d="M91.1634 20.3233C91.1634 20.2305 91.1969 20.1529 91.2638 20.0921C91.3307 20.0297 91.4053 19.9993 91.4874 19.9993C91.5696 19.9993 91.6441 20.0297 91.7111 20.0921C91.778 20.1544 91.8115 20.2305 91.8115 20.3233C91.8115 20.4055 91.778 20.4785 91.7111 20.5394C91.6441 20.6017 91.565 20.6322 91.4707 20.6322C91.3885 20.6322 91.3155 20.6017 91.2547 20.5394C91.1938 20.477 91.1619 20.4055 91.1619 20.3233H91.1634ZM91.3323 30.0814V23.185H91.6411V30.0814H91.3323Z" fill="white"/>
<path d="M93.978 28.3501C94.1225 28.8552 94.372 29.2553 94.7281 29.549C95.0841 29.8426 95.5405 29.9902 96.0973 29.9902C96.3864 29.9902 96.6389 29.9445 96.8549 29.8517C97.071 29.7589 97.2535 29.6327 97.4041 29.4729C97.5532 29.3132 97.6643 29.1321 97.7373 28.9313C97.8088 28.7305 97.8453 28.522 97.8453 28.3045C97.8453 28.0672 97.8119 27.8557 97.7449 27.6701C97.678 27.4845 97.5745 27.3202 97.4361 27.1756C97.2961 27.0311 97.1212 26.8972 96.9097 26.774C96.6982 26.6508 96.4426 26.526 96.1445 26.4028C95.5253 26.1548 95.0612 25.9022 94.7524 25.6451C94.4436 25.388 94.2884 25.0214 94.2884 24.5467C94.2884 24.0416 94.4603 23.6582 94.8072 23.395C95.1525 23.1318 95.5618 23.001 96.0364 23.001C96.47 23.001 96.8306 23.1044 97.1196 23.3098C97.4087 23.5167 97.6141 23.7693 97.7389 24.0675L97.4909 24.2379C97.3768 23.9701 97.1988 23.7434 96.9569 23.5578C96.715 23.3722 96.4076 23.2794 96.0364 23.2794C95.6439 23.2794 95.3077 23.3828 95.0232 23.5882C94.7402 23.7951 94.5987 24.1146 94.5987 24.5467C94.5987 24.9483 94.7433 25.2557 95.0323 25.4671C95.3214 25.6786 95.7641 25.9083 96.362 26.1548C96.6708 26.278 96.9371 26.4073 97.1577 26.5412C97.3798 26.6751 97.5654 26.8242 97.7145 26.99C97.8636 27.1543 97.9747 27.3399 98.0462 27.5468C98.1177 27.7538 98.1542 27.9957 98.1542 28.2741C98.1542 28.5312 98.1101 28.7822 98.0233 29.0241C97.9351 29.266 97.8043 29.4805 97.6293 29.6661C97.4543 29.8517 97.2368 30.0008 96.9797 30.1149C96.7211 30.229 96.4274 30.2853 96.0988 30.2853C95.4796 30.2853 94.9699 30.1256 94.5683 29.8061C94.1667 29.4866 93.8776 29.0484 93.7026 28.4916L93.9811 28.3532L93.978 28.3501Z" fill="white"/>
<path d="M99.251 23.4787V23.185H100.488V20.6033H100.797V23.185H102.096V23.4787H100.797V30.0814H100.488V23.4787H99.251Z" fill="white"/>
<path d="M106.612 22.9995C107.272 22.9995 107.888 23.1806 108.46 23.5411C109.032 23.9017 109.467 24.4692 109.767 25.242H109.782V23.1851H110.091V30.0815L109.782 30.0663V28.0246H109.767C109.622 28.4065 109.437 28.7381 109.21 29.0226C108.983 29.3071 108.731 29.5414 108.452 29.7255C108.174 29.9111 107.877 30.0496 107.564 30.1424C107.249 30.2352 106.933 30.2823 106.613 30.2823C106.138 30.2823 105.693 30.1895 105.276 30.0039C104.857 29.8183 104.495 29.5612 104.185 29.2311C103.876 28.9009 103.633 28.5145 103.458 28.0718C103.283 27.6291 103.195 27.1437 103.195 26.6189C103.195 26.094 103.283 25.6269 103.458 25.1888C103.633 24.7506 103.875 24.3687 104.185 24.0447C104.495 23.7206 104.857 23.4651 105.276 23.2794C105.693 23.0938 106.138 23.001 106.613 23.001L106.612 22.9995ZM106.642 29.9887C107.076 29.9887 107.482 29.9096 107.864 29.7483C108.246 29.5886 108.58 29.3619 108.869 29.0683C109.158 28.7747 109.388 28.4186 109.557 28.0018C109.727 27.5834 109.813 27.1224 109.813 26.6173C109.813 26.1122 109.727 25.6695 109.557 25.2572C109.387 24.8449 109.157 24.492 108.869 24.1984C108.58 23.9047 108.246 23.678 107.864 23.5183C107.482 23.3586 107.076 23.2779 106.642 23.2779C106.208 23.2779 105.804 23.3631 105.428 23.5335C105.052 23.7039 104.722 23.9382 104.438 24.2364C104.155 24.5361 103.929 24.8891 103.765 25.2953C103.601 25.703 103.517 26.1427 103.517 26.6173C103.517 27.092 103.599 27.5667 103.765 27.979C103.929 28.3913 104.155 28.7473 104.438 29.0455C104.721 29.3452 105.051 29.5764 105.428 29.7407C105.804 29.905 106.208 29.9887 106.642 29.9887Z" fill="white"/>
</svg>
