<svg width="138" height="39" viewBox="0 0 138 39" fill="none" xmlns="http://www.w3.org/2000/svg">
<path d="M21.7941 0C7.47739 0 0.335693 8.15813 0.335693 18.2256C0.335693 25.7589 4.33456 32.2246 12.3504 34.999C12.1054 35.2911 11.8423 35.5747 11.5579 35.8495C11.2736 36.1214 10.9832 36.376 10.6837 36.6045C9.96382 37.1658 9.20156 37.6113 8.39392 37.9411C9.56757 38.4271 10.9499 38.6701 12.544 38.6701C12.7134 38.6701 12.8828 38.6672 13.0492 38.6585C14.2773 38.6036 15.4297 38.3432 16.5036 37.8861V37.8832C17.3899 37.5043 18.2156 36.9864 18.993 36.3355C19.8944 36.4078 20.8261 36.4454 21.7941 36.4454C36.262 36.4454 43.2524 28.2844 43.2524 18.2198C43.2524 8.15813 36.5765 0 21.7941 0ZM29.7615 26.4416C28.848 27.4975 27.6593 28.296 26.2013 28.8399L26.4584 30.2372C26.5673 30.8331 26.1468 31.4088 25.5237 31.5158L23.0433 31.9324C22.4172 32.0366 21.8183 31.6345 21.7063 31.0385L21.4492 29.6412C19.8793 29.6094 18.4758 29.2478 17.2356 28.5535C15.8048 27.7492 14.8248 26.6817 14.2954 25.3481C14.1381 24.4599 14.7643 24.0462 15.2422 23.9652L18.0644 23.4908C18.4486 23.4271 18.9991 23.5313 19.2864 24.0347C19.5526 24.5149 19.961 24.8736 20.5145 25.1079C21.3615 25.4667 22.2266 25.5708 23.1159 25.4204C24.0022 25.27 24.7796 24.8881 25.4481 24.2748C26.1166 23.6615 26.3646 22.8891 26.1922 21.9575C26.0198 21.026 25.5207 20.3751 24.6949 20.0019C23.8691 19.6287 22.9889 19.5217 22.0602 19.6779C22.0239 19.6837 21.9876 19.6923 21.9513 19.701C21.4613 19.7907 19.3802 20.0858 17.1025 19.027C16.6004 18.7926 16.1436 18.5323 15.7353 18.2459C15.5749 18.1446 15.1121 17.7656 14.8278 17.5197C13.6965 16.4696 13.0794 15.2603 12.9373 14.2189L12.9252 14.2218C12.6287 12.5757 13.1248 11.0598 14.4104 9.67404C15.218 8.80326 16.2132 8.13209 17.3989 7.65765L17.1418 6.26035C17.0329 5.6644 17.4534 5.08871 18.0765 4.98167L20.5569 4.56219C21.183 4.45804 21.782 4.86016 21.8939 5.45611L22.151 6.8563C23.4245 6.91705 24.592 7.22371 25.6538 7.77626C26.8516 8.40114 27.7046 9.21695 28.2128 10.2266C28.355 11.0482 27.6774 11.4272 27.3144 11.5197L24.4166 12.0087C24.1232 12.0434 23.6725 11.9595 23.37 11.6384C23.3609 11.6297 23.3519 11.621 23.3398 11.6123C23.1673 11.4387 22.9647 11.2854 22.7287 11.1494C22.03 10.756 21.2617 10.6287 20.4177 10.7705C19.5738 10.9122 18.8962 11.2825 18.382 11.8814C17.8678 12.4802 17.6772 13.1485 17.8133 13.8804C17.9495 14.6152 18.3699 15.1793 19.0777 15.5699C19.7855 15.9633 20.5508 16.0906 21.3736 15.9517C28.0464 15.1273 30.2455 18.2111 30.9564 20.0308C31.0925 20.4069 31.1983 20.8061 31.277 21.2227C31.6279 23.1321 31.1227 24.8678 29.7615 26.4416Z" fill="white"/>
<path d="M61.2987 25.5417C63.6157 25.5417 65.5093 24.6651 66.9793 22.912L70.0012 25.8888C67.6025 28.4722 64.7772 29.7625 61.5225 29.7625C58.2677 29.7625 55.5877 28.7789 53.4824 26.8146C51.3771 24.8502 50.3245 22.3681 50.3245 19.371C50.3245 16.3739 51.3983 13.8744 53.5429 11.8695C55.6906 9.86473 58.3131 8.86377 61.4166 8.86377C64.8801 8.86377 67.7809 10.1251 70.1192 12.6506L67.1881 15.83C65.6968 14.0566 63.8426 13.1714 61.6253 13.1714C59.8528 13.1714 58.3343 13.7268 57.076 14.8319C55.8176 15.9399 55.1884 17.4327 55.1884 19.3131C55.1884 21.1935 55.7813 22.7008 56.9701 23.8377C58.1649 24.9746 59.6047 25.5417 61.2987 25.5417Z" fill="white"/>
<path d="M89.0216 22.0618C89.0216 24.2315 88.2382 26.0569 86.6683 27.5381C85.0984 29.0222 83.1262 29.7628 80.7517 29.7628C78.3771 29.7628 76.4049 29.0222 74.835 27.5381C73.2651 26.054 72.4817 24.2286 72.4817 22.0618C72.4817 19.892 73.2682 18.0637 74.835 16.5709C76.4049 15.0782 78.3771 14.3318 80.7517 14.3318C83.1262 14.3318 85.0984 15.0782 86.6683 16.5709C88.2382 18.0637 89.0216 19.892 89.0216 22.0618ZM76.8708 22.0618C76.8708 23.2855 77.2337 24.2807 77.9597 25.0502C78.6857 25.8197 79.6173 26.2045 80.7517 26.2045C81.886 26.2045 82.8146 25.8197 83.5436 25.0502C84.2696 24.2807 84.6326 23.2855 84.6326 22.0618C84.6326 20.838 84.2696 19.8371 83.5436 19.0589C82.8176 18.2807 81.886 17.8901 80.7517 17.8901C79.6173 17.8901 78.6887 18.2807 77.9597 19.0589C77.2337 19.8371 76.8708 20.838 76.8708 22.0618Z" fill="white"/>
<path d="M100.392 14.3318C102.292 14.3318 103.946 15.0406 105.362 16.4581C106.777 17.8757 107.482 19.6982 107.482 21.92C107.482 24.1418 106.756 26.0078 105.301 27.5092C103.849 29.0106 102.195 29.7599 100.344 29.7599C98.4924 29.7599 96.9558 29.028 95.7368 27.5642V29.5372H91.3779V8.9104H95.7368V16.2498C96.9406 14.9711 98.4924 14.3318 100.392 14.3318ZM95.6823 22.0762C95.6823 23.2913 96.0362 24.2807 96.744 25.0502C97.4518 25.8197 98.3079 26.2045 99.3152 26.2045C100.322 26.2045 101.206 25.8197 101.959 25.0502C102.715 24.2807 103.093 23.2942 103.093 22.0878C103.093 20.8843 102.724 19.8718 101.989 19.0589C101.251 18.2431 100.371 17.8352 99.3424 17.8352C98.317 17.8352 97.4488 18.2373 96.741 19.0444C96.0362 19.8516 95.6823 20.8612 95.6823 22.0762Z" fill="white"/>
<path d="M118.069 18.2515C116.772 18.2515 115.801 18.6912 115.162 19.5706C114.524 20.4501 114.204 21.6131 114.204 23.0596V29.5369H109.845V14.5803H114.204V16.5533C114.766 15.9429 115.468 15.4222 116.312 14.9969C117.156 14.5716 118.012 14.3489 118.883 14.3286L118.913 18.2486H118.069V18.2515Z" fill="white"/>
<path d="M130.949 14.5833V23.1522C130.949 25.4492 130.069 26.6006 128.306 26.6006C126.542 26.6006 125.659 25.4521 125.659 23.1522V14.5833H121.27V23.6469C121.27 25.6662 121.851 27.1907 123.015 28.2206C124.177 29.2476 125.617 29.7626 127.332 29.7626H129.28C130.995 29.7626 132.435 29.2476 133.596 28.2206C134.758 27.1907 135.341 25.6662 135.341 23.6469V14.5833H130.949Z" fill="white"/>
<path d="M137.323 9.24581C137.553 9.46568 137.664 9.72894 137.664 10.0385C137.664 10.348 137.55 10.6113 137.323 10.8312C137.096 11.051 136.818 11.1609 136.491 11.1609C136.164 11.1609 135.886 11.051 135.662 10.834C135.435 10.6171 135.323 10.3509 135.323 10.0443C135.323 9.73472 135.438 9.47146 135.668 9.24871C135.895 9.02595 136.173 8.91602 136.497 8.91602C136.818 8.91602 137.093 9.02595 137.323 9.24581ZM137.165 10.6547C137.338 10.4811 137.426 10.2757 137.426 10.0327C137.426 9.78969 137.335 9.5814 137.153 9.40782C136.972 9.23424 136.751 9.14745 136.497 9.14745C136.24 9.14745 136.019 9.23713 135.837 9.41071C135.656 9.58718 135.562 9.79547 135.562 10.0414C135.562 10.2844 135.653 10.4956 135.831 10.6691C136.01 10.8427 136.231 10.9295 136.494 10.9295C136.757 10.9295 136.978 10.8398 137.159 10.6605H136.784L136.503 10.2728H136.361V10.6605H136.004V9.39914H136.527C136.736 9.39914 136.884 9.43385 136.972 9.50039C137.06 9.56982 137.105 9.67976 137.105 9.83019C137.105 10.0153 137.017 10.1426 136.842 10.215L137.165 10.6547ZM136.7 9.95459C136.73 9.92855 136.745 9.88805 136.745 9.83019C136.745 9.77233 136.73 9.73472 136.697 9.71158C136.663 9.68843 136.612 9.67976 136.533 9.67976H136.355V9.9922H136.527C136.612 9.9922 136.669 9.98062 136.7 9.95459Z" fill="white"/>
</svg>
