<svg width="132" height="58" viewBox="0 0 132 58" fill="none" xmlns="http://www.w3.org/2000/svg">
<g clip-path="url(#clip0_22844_1489)">
<path d="M43.4817 26.8153H26.6299C26.652 26.9717 26.6631 27.1026 26.6888 27.2335C27.1825 30.0668 29.3084 32.1472 32.1821 32.4091C34.6284 32.6309 36.839 32.089 38.6664 30.376C38.9427 30.1177 39.1859 29.8268 39.4548 29.5431C40.6117 30.8197 41.7649 32.0963 42.9291 33.3802C42.288 34.2894 41.518 35.0532 40.6227 35.6933C38.7069 37.0609 36.5479 37.7956 34.2084 38.0174C33.5232 38.0829 32.8305 38.1593 32.1452 38.1302C28.8699 37.9883 25.8709 37.1082 23.3951 34.8605C21.2509 32.9146 20.0572 30.4996 19.604 27.6845C19.3866 26.3206 19.4014 24.9495 19.4493 23.5856C19.5414 20.9633 20.2119 18.4901 21.6414 16.2569C23.4025 13.5 25.952 11.8524 29.1757 11.2159C30.83 10.8886 32.4989 10.8704 34.1605 11.1505C38.6443 11.907 41.4886 14.5111 42.8038 18.7701C43.1981 20.0467 43.4154 21.3597 43.4191 22.7054C43.4191 23.9566 43.4633 25.2041 43.4854 26.4552C43.4854 26.5643 43.4854 26.6734 43.4854 26.8189L43.4817 26.8153ZM36.5516 22.0216C36.4927 21.3961 36.4816 20.7923 36.3748 20.2031C36.1316 18.8756 35.4906 17.7845 34.2342 17.1589C33.8068 16.9443 33.3132 16.8461 32.8379 16.737C31.7989 16.4969 30.7784 16.5951 29.7947 17.0061C29.0836 17.3044 28.5126 17.7881 28.052 18.3991C27.2452 19.4721 26.8841 20.705 26.6962 22.0253H36.5516V22.0216Z" fill="white"/>
<path d="M127.395 33.3803C126.51 34.6169 125.412 35.5807 124.112 36.3263C122.413 37.3011 120.575 37.8539 118.622 38.0212C117.956 38.0794 117.281 38.1558 116.618 38.1303C113.07 37.9812 109.88 36.9483 107.341 34.3659C105.772 32.7693 104.784 30.8707 104.265 28.7103C103.845 26.9609 103.837 25.1896 103.926 23.4184C104.069 20.5088 104.876 17.7991 106.674 15.446C108.55 12.9873 111.084 11.598 114.146 11.1324C114.71 11.0451 115.284 11.0233 115.855 11.016C116.559 11.0088 117.27 11.0051 117.97 11.0706C121.975 11.4561 125.674 13.722 127.203 18.5447C127.649 19.945 127.892 21.3816 127.892 22.8583C127.892 24.0876 127.933 25.3206 127.958 26.5499C127.958 26.6263 127.951 26.7063 127.944 26.8154H111.077C111.224 27.7029 111.442 28.5357 111.876 29.2995C112.919 31.129 114.503 32.1692 116.614 32.3983C118.615 32.6129 120.509 32.2746 122.181 31.129C122.819 30.6925 123.364 30.1215 123.972 29.5905C125.077 30.8089 126.227 32.0819 127.398 33.3767L127.395 33.3803ZM120.977 22.0218C121.013 20.7852 120.873 19.6068 120.21 18.5411C119.47 17.3591 118.342 16.799 116.979 16.6571C115.004 16.4534 113.38 17.039 112.274 18.7448C111.818 19.4467 111.53 20.2178 111.35 21.0289C111.276 21.3489 111.213 21.6726 111.14 22.0218H120.977Z" fill="white"/>
<path d="M83.8761 26.8154H66.9838C67.1348 27.3792 67.2306 27.9247 67.4259 28.4339C68.3322 30.758 70.038 32.1292 72.5544 32.3983C74.9823 32.6602 77.1929 32.1073 79.024 30.4234C79.3113 30.1615 79.5619 29.8596 79.8603 29.5468C81.0098 30.8125 82.1666 32.0892 83.3345 33.3803C82.8114 34.1259 82.1924 34.7769 81.4887 35.3443C79.934 36.5955 78.1545 37.3811 76.2018 37.7739C75.4281 37.9303 74.636 38.0212 73.8476 38.0721C73.0739 38.123 72.2854 38.1485 71.5154 38.0721C69.0359 37.8212 66.7074 37.1192 64.6921 35.5989C62.7247 34.115 61.3174 32.231 60.5437 29.8996C60.1973 28.8558 59.9652 27.7829 59.9026 26.6918C59.84 25.6043 59.7589 24.5059 59.84 23.4257C60.0868 20.1123 61.03 17.0426 63.3879 14.5476C65.1785 12.6527 67.4075 11.5325 69.9901 11.1579C72.0754 10.856 74.1681 10.896 76.2055 11.5252C79.5471 12.5581 81.7466 14.7731 82.9514 17.981C83.5519 19.5777 83.8209 21.2434 83.8688 22.9419C83.9056 24.1567 83.8872 25.3715 83.8909 26.5863C83.8909 26.6517 83.8835 26.7209 83.8761 26.8227V26.8154ZM67.1017 22.0145H76.9276C76.8944 21.4798 76.9018 20.9597 76.8281 20.4542C76.6292 19.1048 76.0434 17.9774 74.8202 17.2427C74.1312 16.8317 73.3649 16.6826 72.5802 16.6353C70.9001 16.5298 69.4854 17.0499 68.4501 18.4138C67.6469 19.4722 67.3043 20.6979 67.1017 22.0181V22.0145Z" fill="white"/>
<path d="M24.0988 8.7684C21.9325 9.81588 20.223 11.3725 18.7898 13.2856C18.6424 12.9765 18.5098 12.6819 18.3624 12.3946C17.2055 10.0887 15.2787 8.7975 12.7402 8.46289C11.4691 8.29558 10.1649 8.35014 8.87541 8.31741C8.37066 8.30286 7.8696 8.31741 7.34643 8.31741V31.7546C7.39801 31.7619 7.44591 31.7801 7.4938 31.7801C8.86435 31.7764 10.2386 31.8019 11.6091 31.7546C13.1344 31.7037 14.5639 31.2891 15.846 30.438C15.8866 30.4125 15.9308 30.3907 16.0118 30.3434C16.5755 32.3366 17.4745 34.1514 18.7714 35.8027C18.6608 35.8645 18.5613 35.9227 18.4582 35.9736C16.7818 36.7701 15.0245 37.2939 13.1749 37.4866C12.4491 37.563 11.716 37.6103 10.9865 37.6139C7.44591 37.6248 3.90164 37.6212 0.361058 37.6212H0V2.41446H0.368427C3.83901 2.41446 7.30959 2.41082 10.7839 2.41446C12.0034 2.41446 13.2044 2.52721 14.4129 2.74179C16.1408 3.04731 17.7545 3.61833 19.2761 4.45121C21.1551 5.4805 22.7209 6.86986 23.9809 8.58655C24.0214 8.6411 24.0583 8.6993 24.1025 8.76476L24.0988 8.7684Z" fill="white"/>
<path d="M89.2994 16.5953H85.4382V11.4671H89.2883V5.05493H96.3805V11.4525H100.905V16.588H96.3842C96.3842 16.7153 96.3842 16.8208 96.3842 16.9263C96.3842 21.138 96.3842 25.3497 96.3879 29.5651C96.3879 29.9761 96.4247 30.398 96.5168 30.798C96.7674 31.8964 97.3311 32.1219 98.1748 32.271C98.6611 32.3583 99.1732 32.3511 99.6706 32.3365C100.161 32.322 100.647 32.242 101.155 32.191V37.523C100.444 37.6648 99.7148 37.843 98.9742 37.9521C98.37 38.0394 97.7511 38.0467 97.1358 38.0831C95.7984 38.1594 94.4942 37.9885 93.2452 37.5048C91.1562 36.6974 90.0325 35.1043 89.5499 33.0021C89.3657 32.2056 89.292 31.4018 89.2957 30.5871C89.2993 26.0553 89.2957 21.5235 89.2957 16.9954V16.5953H89.2994Z" fill="white"/>
<path d="M54.962 37.6029H47.8809V0.504883H54.962V37.6029Z" fill="white"/>
<path d="M127.564 3.11255C130.051 3.13437 131.724 5.08747 131.963 6.97874C132.324 9.80838 130.073 12.1143 127.332 12.0052C124.893 11.907 122.922 10.0593 123.007 7.38246C123.084 4.9238 125.048 3.11255 127.564 3.11619V3.11255ZM127.502 10.8413C129.347 10.8413 130.851 9.38284 130.851 7.58613C130.851 5.72759 129.381 4.2655 127.509 4.25822C125.829 4.25459 124.027 5.5421 124.149 7.76798C124.248 9.55378 125.711 10.8268 127.498 10.8413H127.502Z" fill="white"/>
<path d="M75.5755 48.5541C75.5755 47.4302 75.5755 46.3064 75.5792 45.1825C75.5792 45.0661 75.6271 44.8552 75.675 44.8479C75.8887 44.8188 76.1097 44.837 76.3271 44.8625C76.3529 44.8625 76.3787 45.0043 76.3787 45.0771C76.3787 48.154 76.3787 51.2273 76.3824 54.3043C76.3824 54.5152 76.305 54.5952 76.095 54.5734C75.9955 54.5625 75.8924 54.5698 75.7929 54.5734C75.6308 54.5771 75.5534 54.5152 75.5608 54.3443C75.5718 54.1442 75.5608 53.9478 75.5608 53.6969C75.4908 53.7805 75.4355 53.8315 75.4024 53.8896C75.0008 54.5407 73.7371 54.8862 73.0886 54.6934C72.6907 54.5771 72.2671 54.4716 71.917 54.2606C71.4012 53.9515 71.1728 53.4096 71.0365 52.8494C70.7565 51.7147 70.7491 50.569 71.0365 49.4342C71.4381 47.8776 72.5471 47.4448 73.9692 47.6121C74.6324 47.6885 75.1629 48.0012 75.5682 48.5541H75.5755ZM75.6013 51.2855C75.5608 50.7581 75.5534 50.3617 75.4982 49.9689C75.3618 49.0051 74.7355 48.4013 73.8513 48.354C72.7644 48.2958 72.0423 48.7468 71.8286 49.6888C71.6076 50.6563 71.5818 51.6419 71.8286 52.6094C72.046 53.4714 72.6134 53.9478 73.575 53.9624C74.5292 53.9806 75.1776 53.5878 75.4245 52.6349C75.5461 52.1584 75.5571 51.6565 75.6013 51.2855Z" fill="white"/>
<path d="M55.102 48.6085C55.102 47.4629 55.1204 46.3208 55.102 45.1751C55.0946 44.8333 55.2457 44.8151 55.5146 44.8187C55.7725 44.8187 55.9089 44.8333 55.9052 45.1606C55.8904 48.1866 55.8904 51.2127 55.9052 54.2387C55.9052 54.5915 55.7357 54.5806 55.4852 54.5842C55.2236 54.5879 55.0467 54.5588 55.0946 54.2351C55.1204 54.0714 55.0983 53.9005 55.0983 53.6531C54.7225 54.246 54.2362 54.5551 53.6172 54.6715C52.6151 54.857 51.7235 54.7006 51.0456 53.8859C50.6993 53.4676 50.5556 52.9548 50.4782 52.4274C50.3346 51.4454 50.3235 50.4634 50.5593 49.4923C50.9351 47.9175 52.0367 47.4483 53.4772 47.612C54.1515 47.6884 54.7041 47.9866 55.0431 48.5976C55.0652 48.6013 55.0836 48.6085 55.1057 48.6122L55.102 48.6085ZM55.1462 51.1654C55.1241 51.1654 55.102 51.1654 55.0799 51.1617C55.0799 50.8926 55.0946 50.6235 55.0762 50.358C55.0615 50.1506 55.0246 49.9433 54.9767 49.7397C54.7704 48.8631 54.1478 48.3648 53.2599 48.3503C52.2283 48.3358 51.5909 48.7758 51.3514 49.6887C51.2814 49.9542 51.2704 50.2343 51.2188 50.5034C51.0677 51.2927 51.1893 52.0601 51.4177 52.8093C51.6719 53.6349 52.4714 54.0132 53.2488 53.9732C54.1367 53.9295 54.7999 53.4058 54.962 52.6057C55.0578 52.1328 55.0873 51.6455 55.1462 51.1654Z" fill="white"/>
<path d="M29.3562 49.8925C29.4262 48.9651 29.441 48.1722 29.5515 47.3866C29.7468 45.979 30.6568 45.0189 31.9794 44.7424C33.5453 44.4115 34.9784 45.0043 35.6895 46.2846C35.7706 46.43 35.9216 46.5828 35.6563 46.7246C35.1627 46.9865 35.1627 46.9938 34.9748 46.6919C34.2379 45.4989 33.1953 45.2807 31.9389 45.5972C30.9957 45.8336 30.5721 46.5901 30.3915 47.4848C30.1999 48.4377 30.2736 49.4051 30.281 50.3653C30.281 50.8563 30.3215 51.351 30.3878 51.8383C30.5352 52.9149 31.2057 53.6641 32.1563 53.8678C33.3131 54.1115 34.3153 53.7223 34.9158 52.7913C35.1295 52.4603 35.4758 52.4276 35.7411 52.7331C35.7853 52.784 35.7779 52.9222 35.7411 52.9949C35.2363 53.9988 34.4037 54.5407 33.28 54.7007C32.6463 54.7916 32.0421 54.7153 31.4563 54.497C30.4247 54.1115 29.8241 53.3223 29.6141 52.2966C29.4447 51.471 29.4226 50.6127 29.3489 49.8962L29.3562 49.8925Z" fill="white"/>
<path d="M82.3618 51.3363C81.6655 51.3363 80.9691 51.3436 80.2728 51.3327C80.0518 51.3327 79.9486 51.3909 79.9744 51.62C80.0076 51.9037 80.0076 52.1983 80.0776 52.4747C80.4718 54.0168 82.2034 54.3478 83.4597 53.5586C83.6366 53.4494 83.7913 53.2967 83.9313 53.1439C84.0492 53.0166 84.1413 52.9912 84.2813 53.1076C84.6681 53.4276 84.6829 53.4895 84.3145 53.8422C83.7434 54.3914 83.0581 54.6351 82.2586 54.7042C81.4407 54.777 80.7334 54.5915 80.1181 54.0823C79.5139 53.584 79.2486 52.8966 79.2007 52.1401C79.1602 51.4891 79.1528 50.8271 79.2007 50.1761C79.337 48.2703 80.7149 47.361 82.4244 47.612C83.8171 47.8156 84.6571 48.8413 84.705 50.3107C84.7124 50.5689 84.6939 50.8308 84.7124 51.0854C84.7271 51.2963 84.635 51.3363 84.4471 51.3363C83.7508 51.329 83.0544 51.3363 82.3581 51.3363H82.3618ZM81.9492 50.6562C82.5239 50.6562 83.0987 50.6562 83.6734 50.6562C83.8208 50.6562 83.9166 50.6307 83.9276 50.4489C84.0124 48.9795 82.7339 47.9793 81.3044 48.4012C80.4976 48.6413 80.026 49.3359 79.9781 50.3325C79.967 50.5725 80.0223 50.6744 80.2876 50.6635C80.8402 50.6453 81.3965 50.6562 81.9492 50.6562Z" fill="white"/>
<path d="M63.2109 53.8315C62.7172 54.4498 62.1019 54.6753 61.3982 54.6899C61.0556 54.6971 60.7093 54.6971 60.374 54.6389C59.3793 54.468 58.7161 53.7842 58.7456 52.6385C58.7714 51.6456 59.2356 50.9873 60.3851 50.7727C61.0114 50.6564 61.6672 50.6891 62.3119 50.6636C62.603 50.6527 62.8941 50.6636 63.2035 50.6636C63.2035 50.2126 63.233 49.7944 63.1962 49.3797C63.1446 48.8196 62.7614 48.4305 62.1683 48.3759C61.6893 48.3286 61.1956 48.3214 60.7203 48.3868C60.3961 48.4341 60.0866 48.6232 59.7882 48.776C59.6335 48.856 59.5082 48.9178 59.4161 48.7287C59.3351 48.5578 59.0145 48.3868 59.3424 48.1904C59.6666 47.9977 60.0093 47.8122 60.3703 47.714C61.063 47.5285 61.7814 47.5248 62.4888 47.6594C63.4356 47.8376 63.9441 48.4087 63.9883 49.3725C64.0251 50.1981 64.0178 51.0237 64.0214 51.8493C64.0251 52.6349 64.0067 53.4242 64.0288 54.2098C64.0362 54.5298 63.9109 54.5953 63.6199 54.5807C63.3656 54.5662 63.1446 54.5735 63.2035 54.2207C63.222 54.1152 63.2035 54.0061 63.2035 53.8279L63.2109 53.8315ZM62.0319 51.3365C62.0319 51.3365 62.0283 51.3001 62.0246 51.2819C61.4867 51.3438 60.9414 51.3619 60.4182 51.482C59.8545 51.6093 59.5045 52.0966 59.523 52.6385C59.5414 53.2423 59.8545 53.686 60.3998 53.8533C61.0667 54.057 61.7335 54.0388 62.3709 53.7515C62.8277 53.5478 63.152 53.2059 63.2035 52.7004C63.2404 52.3185 63.2035 51.9257 63.2109 51.5402C63.2109 51.3838 63.1483 51.3292 62.9972 51.3328C62.6767 51.3401 62.3525 51.3328 62.0319 51.3328V51.3365Z" fill="white"/>
<path d="M42.7928 47.7722H43.5628C43.5702 47.8813 43.5775 47.9759 43.5775 48.0704C43.5775 50.1218 43.5775 52.1731 43.5738 54.2244C43.5738 54.3371 43.5112 54.5444 43.4633 54.5481C43.2386 54.5662 43.0101 54.5335 42.7854 54.5044C42.7633 54.5044 42.7486 54.3844 42.7449 54.3189C42.7375 54.1553 42.7449 53.9879 42.7449 53.8206C42.7044 53.8243 42.6786 53.8206 42.6712 53.8279C42.1186 54.6281 40.8254 54.9845 39.7385 54.5517C39.0348 54.2716 38.6259 53.7479 38.4564 53.0387C38.3827 52.7368 38.3459 52.4167 38.3422 52.1076C38.3311 50.7619 38.3348 49.4198 38.3422 48.0741C38.3422 47.9577 38.4011 47.754 38.4564 47.7468C38.659 47.714 38.8727 47.7286 39.0753 47.7649C39.1159 47.7722 39.1417 47.9577 39.1417 48.0595C39.1454 49.3034 39.1417 50.5473 39.149 51.7912C39.149 52.0676 39.1711 52.3476 39.2264 52.6204C39.3922 53.4533 39.9264 53.9334 40.7185 53.9698C41.6028 54.0098 42.358 53.6024 42.6233 52.8495C42.7191 52.5731 42.7707 52.2676 42.7744 51.9767C42.7891 50.6819 42.7817 49.3871 42.7817 48.0923C42.7817 47.9868 42.7928 47.8813 42.8001 47.7686L42.7928 47.7722Z" fill="white"/>
<path d="M94.1441 47.7613C94.181 48.2002 93.9931 48.4196 93.5804 48.4196C93.3373 48.4196 93.0941 48.4014 92.8546 48.4305C92.7773 48.4378 92.6483 48.5615 92.6483 48.6306C92.6373 50.0854 92.6299 51.5366 92.6483 52.9914C92.6557 53.5479 92.9541 53.8134 93.5215 53.857C93.5804 53.8607 93.6431 53.8607 93.702 53.8607C94.1441 53.8643 94.2915 54.0571 94.1478 54.4826C94.1257 54.5517 93.982 54.6317 93.901 54.6281C93.5252 54.6063 93.1383 54.5953 92.7736 54.5044C92.232 54.3698 91.8562 53.8388 91.8525 53.2787C91.8451 51.7875 91.8378 50.2927 91.8488 48.8015C91.8488 48.496 91.753 48.376 91.4509 48.4233C91.403 48.4305 91.3515 48.4233 91.2999 48.4233C90.8762 48.4233 90.7767 48.2996 90.8799 47.885C90.8946 47.8231 90.9683 47.7649 91.0272 47.7249C91.0641 47.6995 91.123 47.7067 91.1746 47.7067C91.6192 47.6849 91.8415 47.4558 91.8415 47.0193C91.8415 46.6011 91.8488 46.1828 91.8415 45.7646C91.8415 45.5973 91.8967 45.5391 92.0699 45.5391C92.7441 45.55 92.6373 45.4845 92.6409 46.0883C92.6446 46.5574 92.6483 47.023 92.6409 47.4922C92.6409 47.6958 92.711 47.7759 92.9246 47.7686C93.3262 47.754 93.7278 47.7649 94.1478 47.7649L94.1441 47.7613Z" fill="white"/>
<path d="M25.5468 54.8717C25.5468 54.3661 25.5394 53.8606 25.5468 53.355C25.5615 52.4058 25.591 51.4529 25.602 50.5036C25.602 50.2053 25.8121 50.2781 25.9815 50.2635C26.1731 50.2453 26.2726 50.2926 26.2763 50.5218C26.2873 51.7547 26.3131 52.9841 26.3352 54.217C26.3536 55.199 26.3647 56.1847 26.3979 57.1667C26.4052 57.4322 26.2984 57.5267 26.0478 57.5086C25.9668 57.5013 25.8857 57.5013 25.8047 57.5086C25.5726 57.5231 25.4805 57.4176 25.4805 57.1921C25.4878 56.4211 25.4805 55.65 25.4805 54.879C25.4989 54.879 25.521 54.879 25.5394 54.879L25.5468 54.8717Z" fill="white"/>
<path d="M101.785 44.8224C101.785 45.8154 101.793 46.7683 101.785 47.7212C101.771 49.0451 101.741 50.369 101.715 51.6965C101.708 52.0202 101.465 52.1948 101.181 52.0493C101.115 52.0165 101.074 51.8674 101.071 51.7729C101.048 50.9982 101.037 50.2198 101.023 49.4451C101.012 48.6995 101.008 47.9539 100.993 47.2084C100.978 46.5173 100.96 45.8226 100.931 45.1316C100.919 44.8988 100.989 44.797 101.236 44.8188C101.406 44.8333 101.575 44.8188 101.782 44.8188L101.785 44.8224Z" fill="white"/>
<path d="M46.8417 47.7756H47.5933C47.6006 47.8811 47.6191 47.9866 47.6191 48.0921C47.6191 50.1288 47.6191 52.1692 47.6191 54.206C47.6191 54.3223 47.5749 54.5369 47.527 54.5442C47.3133 54.5733 47.0922 54.5515 46.8748 54.5297C46.8491 54.5297 46.8196 54.4096 46.8196 54.3442C46.8196 52.1983 46.8196 50.0488 46.8196 47.9029C46.8196 47.8666 46.8343 47.8266 46.8454 47.7793L46.8417 47.7756Z" fill="white"/>
<path d="M96.7748 47.7722H97.5264C97.5337 47.8668 97.5448 47.954 97.5448 48.0377C97.5448 50.1072 97.5448 52.173 97.5448 54.2425C97.5448 54.348 97.4895 54.5408 97.449 54.5444C97.2353 54.5662 97.0142 54.5444 96.8006 54.5189C96.7785 54.5189 96.7563 54.3953 96.7563 54.3298C96.7563 52.173 96.7563 50.0163 96.7563 47.8558C96.7563 47.8377 96.7637 47.8195 96.7785 47.7686L96.7748 47.7722Z" fill="white"/>
<path d="M101.907 53.9333C101.9 54.6716 101.988 54.5662 101.299 54.5698C100.816 54.5734 100.816 54.5698 100.816 54.057C100.816 53.2277 100.758 53.3332 101.524 53.3114C101.833 53.3005 101.955 53.395 101.907 53.6969C101.896 53.7733 101.907 53.8569 101.907 53.937V53.9333Z" fill="white"/>
<path d="M25.4251 47.7686H26.4567C26.4567 48.125 26.4567 48.4705 26.4567 48.816C26.4567 48.8451 26.4567 48.8997 26.4493 48.8997C26.1841 48.9397 25.9151 49.0015 25.6499 49.0015C25.5762 49.0015 25.4472 48.8269 25.4362 48.7251C25.4067 48.4123 25.4251 48.0959 25.4251 47.7722V47.7686Z" fill="white"/>
<path d="M97.6184 45.3644C97.6184 45.9899 97.67 45.9026 97.1137 45.9099C96.5463 45.9172 96.6421 45.8917 96.6421 45.4153C96.6421 44.7824 96.5389 44.8261 97.2316 44.8261C97.4895 44.8261 97.6197 44.957 97.6221 45.2189C97.6221 45.2698 97.6221 45.3171 97.6221 45.368L97.6184 45.3644Z" fill="white"/>
<path d="M47.6412 44.8406V45.9062C47.387 45.9062 47.1402 45.9135 46.8933 45.899C46.8418 45.899 46.7828 45.8117 46.7496 45.7535C46.7275 45.7171 46.746 45.6553 46.746 45.608C46.7411 45.0455 47.0407 44.7896 47.6449 44.8406H47.6412Z" fill="white"/>
<path d="M55.101 48.6085L55.0393 48.594C55.0611 48.5976 55.0792 48.6049 55.101 48.6085Z" fill="white"/>
<path d="M129.627 9.5176C129.204 9.5176 128.861 9.52851 128.518 9.51033C128.423 9.50305 128.301 9.43031 128.238 9.3503C128.062 9.12116 127.877 8.88839 127.752 8.6338C127.549 8.22645 127.244 8.11733 126.798 8.23736V9.50305H125.744V5.46592C126.573 5.46592 127.398 5.38227 128.198 5.4841C129.325 5.62959 129.506 6.33881 129.366 7.19352C129.307 7.56086 129.056 7.78636 128.581 8.00822C128.92 8.49559 129.255 8.97932 129.624 9.51397L129.627 9.5176ZM126.805 7.30627C127.152 7.30627 127.483 7.31354 127.811 7.30627C128.106 7.299 128.238 7.16079 128.246 6.89165C128.253 6.53885 128.143 6.37518 127.833 6.357C127.494 6.33881 127.155 6.35336 126.805 6.35336V7.30627Z" fill="white"/>
</g>
<defs>
<clipPath id="clip0_22844_1489">
<rect width="132" height="57" fill="white" transform="translate(0 0.504883)"/>
</clipPath>
</defs>
</svg>
