<svg width="164" height="27" viewBox="0 0 164 27" fill="none" xmlns="http://www.w3.org/2000/svg">
<g clip-path="url(#clip0_22844_1312)">
<path d="M0.166504 0.334961H10.1968C12.6696 0.334961 14.9413 0.91008 17.0098 2.06242C19.0784 3.21475 20.7255 4.78689 21.949 6.77881C23.1726 8.77284 23.7844 10.9579 23.7844 13.3339C23.7844 15.71 23.1854 17.9265 21.9854 19.9079C20.7875 21.8893 19.1468 23.4552 17.0655 24.6075C14.9841 25.7598 12.6931 26.335 10.1946 26.335H3.15698L0.166504 21.3583V0.334961ZM10.1968 21.1358C11.7861 21.1358 13.1873 20.7958 14.398 20.1136C15.6087 19.4335 16.5499 18.4974 17.2173 17.3094C17.8847 16.1214 18.2206 14.7969 18.2206 13.3339C18.2206 11.8709 17.8847 10.5108 17.2173 9.32277C16.5478 8.13475 15.6023 7.20491 14.3787 6.53743C13.1552 5.86786 11.7605 5.53412 10.1968 5.53412H5.8822V21.1337H10.1968V21.1358Z" fill="white"/>
<path d="M49.4152 0.334961V5.49844H35.9003V10.8109H47.9007V15.8632H35.9003V21.1757H49.4152V26.3392H33.327L30.2231 21.14V0.334961H49.4152Z" fill="white"/>
<path d="M56.2282 0.334961H67.9249C69.6404 0.334961 71.2127 0.744261 72.6373 1.56076C74.062 2.37726 75.1978 3.47923 76.0449 4.86665C76.8899 6.25407 77.3134 7.74014 77.3134 9.32487C77.3134 10.4394 77.0931 11.5099 76.6503 12.5384C76.2075 13.5669 75.585 14.4758 74.7764 15.2692C73.9678 16.0626 73.048 16.6692 72.0127 17.089L77.6899 26.3371H71.6341L66.3719 17.7942H61.9054V26.3371H56.2261V0.334961H56.2282ZM61.9075 12.9645H67.927C69.0115 12.9645 69.9335 12.593 70.6907 11.8499C71.448 11.1069 71.8266 10.2043 71.8266 9.13806C71.8266 8.07178 71.448 7.17552 70.6907 6.44508C69.9335 5.71463 69.0115 5.34941 67.927 5.34941H61.9075V12.9645Z" fill="white"/>
<path d="M83.9382 0.334961H89.6539V12.4439L100.328 0.334961H107.332L92.7578 16.4929H99.7612L107.635 26.3371H100.632L92.7578 16.4929L89.6539 19.9478V26.3371H83.9382V0.334961Z" fill="white"/>
<path d="M132.693 0.334961V5.49844H119.178V10.8109H131.178V15.8632H119.178V21.1757H132.693V26.3392H116.605L113.501 21.14V0.334961H132.693Z" fill="white"/>
<path d="M139.621 0.334961H148.214L157.678 20.9133L157.564 0.334961H163.166V20.9133H157.678L160.176 26.3371H154.612L145.149 5.31373L145.224 26.3371H139.621V0.334961Z" fill="white"/>
</g>
<defs>
<clipPath id="clip0_22844_1312">
<rect width="163" height="26" fill="white" transform="translate(0.166504 0.334961)"/>
</clipPath>
</defs>
</svg>
