<svg width="153" height="31" viewBox="0 0 153 31" fill="none" xmlns="http://www.w3.org/2000/svg">
<path fill-rule="evenodd" clip-rule="evenodd" d="M27.1271 0.334961H0.340576V30.335H53.9099V0.334961H27.1271ZM51.2108 16.4541H13.2001C14.3376 20.6392 20.0954 23.8619 27.1271 24.0536C27.3465 24.061 27.5732 24.0647 27.7945 24.0647C33.2886 24.0647 38.0821 22.2173 40.6356 19.4758H49.9534C46.6569 24.3597 37.682 27.8681 27.1289 27.8681C13.7772 27.8681 2.94566 22.2561 2.94566 15.335C2.94566 8.41387 13.7753 2.80177 27.1271 2.80177C40.4788 2.80177 51.3085 8.41387 51.3085 15.335C51.3085 15.7111 51.2753 16.0835 51.2108 16.4541Z" fill="white"/>
<path fill-rule="evenodd" clip-rule="evenodd" d="M27.7944 5.82153C27.5732 5.82153 27.3464 5.82522 27.127 5.83075C20.4714 6.01512 14.9626 8.90597 13.4231 12.7629H42.1694C40.582 8.77692 34.7487 5.82153 27.7944 5.82153Z" fill="white"/>
<path fill-rule="evenodd" clip-rule="evenodd" d="M65.0475 18.9391C64.9811 22.3204 64.511 25.0435 65.7352 26.3617C66.7511 27.4531 68.5431 27.1784 71.4137 26.5534C71.2441 27.5287 71.0744 28.5556 70.9011 29.5309C67.0018 30.0453 63.7606 30.2868 61.6275 29.6434C59.9111 29.1253 58.969 27.8034 58.8528 25.8233V18.9299H55.0789L65.3351 11.417V15.9616H73.2297V18.8912C71.1279 18.9041 67.1567 18.9188 65.0494 18.9391" fill="white"/>
<path fill-rule="evenodd" clip-rule="evenodd" d="M78.2057 8.86914C80.0752 8.86914 81.5907 9.8979 81.5907 11.1645C81.5907 12.4311 80.077 13.458 78.2057 13.458C76.3344 13.458 74.8245 12.4329 74.8245 11.1645C74.8245 9.89606 76.3399 8.86914 78.2057 8.86914Z" fill="white"/>
<path fill-rule="evenodd" clip-rule="evenodd" d="M75.053 15.7329C75.6559 20.508 75.3664 25.2812 75.053 30.06H81.8174C81.2403 25.3181 81.0246 20.578 81.8174 15.8362C79.5589 15.8011 77.3078 15.7661 75.053 15.7329Z" fill="white"/>
<path fill-rule="evenodd" clip-rule="evenodd" d="M106.452 26.4909C106.113 27.5123 105.779 28.5355 105.438 29.5532C98.8731 30.2538 93.945 30.0344 90.6541 28.8969C87.3576 27.763 85.6191 25.7073 85.5933 22.739C85.9048 20.3607 87.2267 18.6811 89.275 17.5934C92.6895 15.7848 98.3348 15.6317 105.595 16.6716C105.649 17.6524 105.697 18.6332 105.75 19.6122C102.063 18.7899 98.9229 18.4286 96.6257 18.7807C94.0225 19.1808 92.1936 20.5008 92.2083 23.1151C92.3447 25.0104 93.7699 26.1498 95.5933 26.7287C98.0988 27.5196 101.943 27.2615 106.451 26.489" fill="white"/>
<path fill-rule="evenodd" clip-rule="evenodd" d="M120.816 15.9249C129.821 16.2383 133.733 18.1907 133.809 23.0856C133.884 27.9547 129.33 30.0362 120.778 30.0565V27.3666C124.279 27.3666 127.122 25.4658 127.122 23.117C127.122 20.7681 124.279 18.8636 120.778 18.8636V15.923H120.816V15.9249ZM120.779 30.0565H120.665C112.039 30.0565 107.597 27.1011 107.673 23.0856C107.748 19.0738 111.801 15.6207 120.779 15.923V18.8636C117.275 18.8636 114.434 20.7663 114.434 23.117C114.434 25.4676 117.276 27.3666 120.779 27.3666V30.0565Z" fill="white"/>
<path fill-rule="evenodd" clip-rule="evenodd" d="M135.062 26.3342C135.237 27.3851 135.416 28.4323 135.595 29.4795C139.653 30.1413 143.462 30.5543 146.508 30.2077C149.812 29.8316 154.487 27.6542 151.215 24.579C149.924 23.3714 147.581 22.339 144.408 21.454C142.107 20.4916 141.934 19.5569 142.715 19.0536C143.639 18.4581 146.38 18.5263 150.767 19.509C150.702 18.5945 150.636 17.9769 150.575 17.0643C148.565 16.7103 146.552 16.4153 144.671 16.2365C142.004 15.982 139.493 15.9913 137.042 17.0348C136.071 17.4514 135.483 17.9271 135.291 18.4433C134.878 19.5403 134.828 20.9913 138.292 22.4865C141.65 24.3615 145.999 25.1837 146.115 26.2365C146.174 26.7932 145.378 27.4643 143.06 27.7022C140.012 27.8349 137.468 27.1952 135.066 26.3342" fill="white"/>
</svg>
