<svg width="116" height="80" viewBox="0 0 116 80" fill="none" xmlns="http://www.w3.org/2000/svg">
<g clip-path="url(#clip0_22844_1587)">
<path d="M17.636 11.0996C11.2426 11.0996 5.68706 6.6204 4.25464 0.504883H41.9773C48.3706 0.504883 53.9262 4.98413 55.3586 11.0996H17.636Z" fill="white"/>
<path d="M98.364 11.0996C104.757 11.0996 110.313 6.6204 111.745 0.504883H74.0227C67.6293 0.504883 62.0738 4.98413 60.6414 11.0996H98.364Z" fill="white"/>
<path d="M36.4973 28.2232C30.104 28.2232 24.5484 23.7439 23.116 17.6284H44.7436C50.608 17.6284 55.3586 22.37 55.3586 28.2232H36.4973Z" fill="white"/>
<path d="M71.2564 17.5627C65.3953 17.5627 60.6414 22.3076 60.6414 28.1575V47.1271H71.2564V28.1575H79.5027C85.896 28.1575 91.4516 23.6783 92.884 17.5627H71.2564Z" fill="white"/>
<path d="M49.1229 47.75C45.6831 47.75 42.8872 44.9595 42.8872 41.5263C42.8872 38.0931 45.6863 35.2993 49.1229 35.2993C52.5594 35.2993 55.3585 38.0931 55.3585 41.5263C55.3585 44.9595 52.5626 47.75 49.1229 47.75Z" fill="white"/>
<path d="M0 56.4331V79.1868H3.75518V69.4446H11.4627V65.8867H3.75518V60.0237H13.5489V56.4331H0Z" fill="white"/>
<path d="M14.2881 71.1728C14.2881 66.4312 17.5636 62.8406 22.5409 62.8406C27.5183 62.8406 30.9219 66.5886 30.5671 72.0384H17.7903C17.8889 74.4748 19.8141 76.3964 22.6395 76.3964C24.4366 76.3964 25.9479 75.6914 26.6838 74.1535H30.3766C29.4468 77.1342 26.6214 79.5049 22.5114 79.5049C17.7279 79.5049 14.2914 75.9799 14.2914 71.1728M17.8823 69.5398H26.7758C26.2304 66.9427 24.4005 65.7918 22.4424 65.7918C20.228 65.7918 18.3652 67.0739 17.8856 69.5398" fill="white"/>
<path d="M34.1941 63.1619H37.7258V65.3392C38.7213 63.7063 40.5184 62.8406 42.6046 62.8406C46.327 62.8406 48.7351 65.4671 48.7351 69.5365V79.1836H45.2034V70.1136C45.2034 67.5494 43.9188 66.0443 41.8621 66.0443C39.5197 66.0443 37.7193 67.8379 37.7193 71.3006V79.1836H34.1875V63.1619H34.1941Z" fill="white"/>
<path d="M52.1094 71.1728C52.1094 66.5886 55.4506 62.8406 59.8464 62.8406C62.1593 62.8406 64.0846 64.0243 64.9848 65.3097V63.1619H68.5165V79.1836H64.9848V77.0358C64.0846 78.3179 62.1593 79.5017 59.8464 79.5017C55.4473 79.5017 52.1094 75.7537 52.1094 71.1695M65.2739 71.1728C65.2739 68.2872 63.3158 66.0443 60.4904 66.0443C57.6649 66.0443 55.7069 68.2872 55.7069 71.1728C55.7069 74.0584 57.6649 76.3013 60.4904 76.3013C63.3158 76.3013 65.2739 74.0584 65.2739 71.1728Z" fill="white"/>
<path d="M76.8318 55.1511H73.3V79.1836H76.8318V55.1511Z" fill="white"/>
<path d="M80.426 71.1728C80.426 66.5591 83.9578 62.8406 88.8366 62.8406C93.0747 62.8406 96.1564 65.4671 96.9909 69.025H93.2653C92.6246 67.2641 91.0509 66.0443 88.8366 66.0443C85.9783 66.0443 84.0202 68.1921 84.0202 71.1728C84.0202 74.1535 85.9783 76.3013 88.8366 76.3013C91.0509 76.3013 92.6246 75.0847 93.2653 73.3206H96.9909C96.1564 76.8784 93.0747 79.5049 88.8366 79.5049C83.9545 79.5049 80.426 75.7897 80.426 71.1728Z" fill="white"/>
<path d="M99.1755 71.1728C99.1755 66.5263 102.835 62.8406 107.589 62.8406C112.343 62.8406 116 66.5263 116 71.1728C116 75.8192 112.34 79.5049 107.589 79.5049C102.839 79.5049 99.1755 75.8192 99.1755 71.1728ZM112.406 71.1728C112.406 68.3199 110.415 66.1098 107.589 66.1098C104.764 66.1098 102.74 68.3199 102.74 71.1728C102.74 74.0256 104.731 76.2357 107.589 76.2357C110.448 76.2357 112.406 74.0256 112.406 71.1728Z" fill="white"/>
</g>
<defs>
<clipPath id="clip0_22844_1587">
<rect width="116" height="79" fill="white" transform="translate(0 0.504883)"/>
</clipPath>
</defs>
</svg>
