<svg width="137" height="41" viewBox="0 0 137 41" fill="none" xmlns="http://www.w3.org/2000/svg">
<path d="M116.607 27.9211L123.213 27.7185C123.356 28.8037 123.647 29.6304 124.087 30.1983C124.802 31.1182 125.824 31.5776 127.152 31.5776C128.143 31.5776 128.907 31.3429 129.444 30.8724C129.98 30.4025 130.248 29.8573 130.248 29.2373C130.248 28.6484 129.993 28.1211 129.482 27.6564C128.971 27.1912 127.786 26.7523 125.926 26.3392C122.881 25.6471 120.709 24.7272 119.411 23.5805C118.103 22.4337 117.449 20.9712 117.449 19.194C117.449 18.0262 117.784 16.9232 118.453 15.8849C119.123 14.8465 120.129 14.0303 121.473 13.4361C122.817 12.842 124.658 12.5452 126.999 12.5452C129.87 12.5452 132.059 13.0851 133.566 14.165C135.074 15.2449 136.185 17.3779 136.471 19.7334L129.712 20.2134C129.538 19.1903 129.173 17.9389 128.616 17.4742C128.058 17.009 127.29 16.7769 126.309 16.7769C125.501 16.7769 124.893 16.95 124.485 17.2963C124.075 17.6426 123.871 18.0636 123.871 18.5593C123.871 18.9209 124.04 19.2467 124.377 19.5356C124.704 19.8355 125.481 20.1145 126.707 20.3723C129.742 21.0339 131.916 21.7027 133.229 22.3795C134.542 23.0563 135.498 23.8962 136.096 24.8982C136.694 25.9008 136.992 27.0217 136.992 28.2616C136.992 29.7188 136.594 31.0619 135.797 32.2918C135 33.5216 133.886 34.4542 132.455 35.0894C131.025 35.7251 129.221 36.0425 127.044 36.0425C123.223 36.0425 120.576 35.2983 119.105 33.8106C117.634 32.3218 116.538 30.2772 116.607 27.9211Z" fill="white"/>
<path d="M83.6941 12.7981H90.8864L92.9988 25.4117L96.5699 12.7981H103.058L106.629 25.2622L108.993 12.7981H115.783L110.753 36.0412H103.611L99.7388 22.7961L96.1676 36.0412H89.0258L83.6941 12.7981Z" fill="white"/>
<path d="M37.4429 0H39.7858V10.6943H37.4429V0Z" fill="white"/>
<path d="M41.7731 0H44.7655L46.536 6.89936L48.1603 0H51.2386L52.511 10.6943H50.0463L49.3677 4.67115L47.6856 10.6943H45.1933L43.6846 4.67115L42.829 10.6943H40.561L41.7731 0Z" fill="white"/>
<path d="M64.2971 0H67.2614L70.9268 10.6943H68.4215L67.594 7.96663H64.0848L63.2245 10.6943H60.74L64.2971 0ZM65.85 2.83553L64.8836 5.7121H66.8118L65.85 2.83553Z" fill="white"/>
<path d="M81.7329 0H89.2775V2.32084H86.4558V10.6937H84.4141V2.32084H81.7329V0Z" fill="white"/>
<path d="M94.6086 0C96.033 0 97.2581 0.521531 98.2833 1.56407C99.3086 2.60713 99.8212 3.87806 99.8212 5.37792C99.8212 6.86358 99.3153 8.12135 98.3042 9.15021C97.293 10.1791 96.0653 10.6937 94.6227 10.6937C93.1114 10.6937 91.8556 10.1654 90.8553 9.10863C89.8551 8.05189 89.3555 6.79674 89.3555 5.34319C89.3555 4.3696 89.5881 3.47442 90.0539 2.65765C90.5197 1.84088 91.1603 1.19357 91.9753 0.71625C92.7903 0.238925 93.6682 0 94.6086 0ZM94.5899 2.43977C93.8041 2.43977 93.1436 2.71606 92.6081 3.26865C92.0726 3.82123 91.8051 4.52327 91.8051 5.37582C91.8051 6.3252 92.1423 7.07619 92.8163 7.62877C93.3398 8.06083 93.9409 8.2766 94.619 8.2766C95.3856 8.2766 96.0382 7.99663 96.5774 7.43615C97.1166 6.87568 97.3861 6.18522 97.3861 5.36424C97.3861 4.54695 97.1145 3.85543 96.5717 3.28917C96.0283 2.72291 95.3674 2.43977 94.5899 2.43977Z" fill="white"/>
<path d="M57.1526 0.0015788V0H55.5231H53.1802V7.17828V10.6943H55.5231V7.17828H57.1526V7.1767C59.139 7.1446 60.7393 5.55106 60.7393 3.58914C60.7393 1.62669 59.139 0.0336811 57.1526 0.0015788ZM58.1747 4.33539C58.0357 4.54221 57.8458 4.69009 57.6038 4.78008C57.3618 4.87008 56.9309 4.91481 56.311 4.91481H55.5231V2.21085H56.2226C56.9897 2.21085 57.5153 2.29768 57.7989 2.47135C58.1887 2.70501 58.3834 3.07603 58.3834 3.58546C58.3829 3.87911 58.3131 4.12909 58.1747 4.33539Z" fill="white"/>
<path d="M78.6669 6.54676C78.2329 7.41352 77.3445 8.00821 76.3178 8.00821C74.8642 8.00821 73.686 6.81674 73.686 5.34687C73.686 3.87701 74.8642 2.68554 76.3178 2.68554C77.3243 2.68554 78.1986 3.25707 78.6414 4.09646L80.9329 2.73554C80.0279 1.10358 78.3006 0 76.3183 0C73.3982 0 71.0308 2.39399 71.0308 5.34687C71.0308 8.29976 73.3982 10.6937 76.3183 10.6937C78.2798 10.6937 79.9919 9.61385 80.9043 8.00978L78.6669 6.54676Z" fill="white"/>
<path d="M16.9012 7.17822C7.75527 7.17822 0.341309 14.6754 0.341309 23.924C0.341309 33.1727 7.75527 40.6699 16.9012 40.6699C26.0471 40.6699 33.4611 33.1727 33.4611 23.924C33.4611 14.6754 26.0471 7.17822 16.9012 7.17822ZM25.444 27.9658C24.1861 29.4514 22.2486 30.3708 20.184 30.3708C17.5658 30.3708 15.9993 30.0935 14.9538 28.3826C14.1133 27.0074 14.0139 25.5523 14.0139 24.8208V21.0048H17.0396V24.8208C17.0396 25.4581 17.0677 26.1196 17.4013 26.5833C17.9598 27.3595 18.7904 27.7579 19.8874 27.7579C21.0573 27.7579 22.5874 27.119 23.2624 26.3217C24.1143 25.316 25.0786 24.0582 24.9183 21.5216C24.7799 19.3287 23.0412 17.6815 21.9894 16.8594C20.5437 15.729 18.8872 15.2817 16.9756 15.2817C14.9345 15.2817 12.9278 16.0074 11.4701 17.2726C9.73809 18.7761 8.63583 21.008 8.63583 23.7267C8.63583 26.648 9.79742 28.8899 11.7199 30.3908C13.4019 31.7038 15.4992 32.3601 17.0782 32.3601V34.9962C14.4391 34.9962 11.902 34.0131 9.96239 32.4985C8.10396 31.0476 5.98323 28.8052 5.98323 23.924C5.98323 19.3271 8.15912 16.69 9.8479 15.2238C11.8458 13.4897 14.2221 12.6109 16.9751 12.6109C19.5434 12.6109 22.144 13.5487 24.1096 15.0854C26.3537 16.84 27.5902 19.5255 27.5902 21.5216C27.5897 24.4366 26.7903 26.3754 25.444 27.9658ZM14.0061 19.3003V17.1215C14.0061 16.9463 14.1466 16.8042 14.3199 16.8042H16.7643C16.9376 16.8042 17.0782 16.9463 17.0782 17.1215V19.3003C17.0782 19.4755 16.9376 19.6176 16.7643 19.6176H14.3199C14.1466 19.6176 14.0061 19.4755 14.0061 19.3003Z" fill="white"/>
<path d="M37.4428 13.0018L44.1282 12.9507L52.1084 25.1064V12.7981H58.9988V36.0412H52.1589L43.9102 23.4282V36.0412H37.1707L37.4428 13.0018Z" fill="white"/>
<path d="M59.5195 35.8528L61.1453 35.2623L61.1115 13.5786L59.5195 12.9907V35.8528Z" fill="white"/>
<path d="M51.5883 23.3626V20.255L46.8447 13.4425L44.8374 13.0793L51.5883 23.3626Z" fill="white"/>
<path d="M44.4309 25.1777V35.9215L47.2298 35.2784V29.4579L44.4309 25.1777Z" fill="white"/>
<path d="M70.6105 30.5686V26.3905H81.7591V21.3047H70.6105V17.8839H82.4871V12.7981H70.6105H63.425V17.8839V21.3047V26.3905V30.5686V36.0412H70.6105H82.8483V30.5686H70.6105Z" fill="white"/>
<path d="M82.4623 18.4114H71.1311V20.7791H72.1012V18.6645H82.4623V18.4114Z" fill="white"/>
<path d="M72.1012 29.8112V26.9167H71.1311V30.0422H82.8485V29.8112H72.1012Z" fill="white"/>
<path d="M106.526 23.0112L108.421 13.0205L107.032 13.561L105.869 20.7166L106.526 23.0112Z" fill="white"/>
<path d="M99.7591 24.7224L99.6399 25.1645L102.455 35.5335L102.989 35.7682L99.7591 24.7224Z" fill="white"/>
<path d="M116.806 23.6821C118.103 24.7967 120.427 25.6835 123.478 26.3266C126.211 26.9029 126.948 28.2975 126.948 28.8695C126.948 29.4721 126.386 30.7667 125.699 30.7583C125.667 30.7578 125.637 30.7567 125.606 30.7546C126.049 30.9525 126.562 31.0504 127.151 31.0504C128.009 31.0504 128.666 30.8562 129.102 30.4736C129.522 30.1052 129.727 29.7 129.727 29.2358C129.727 28.799 129.533 28.4101 129.132 28.0459C128.829 27.7702 128.008 27.3391 125.813 26.8513C122.65 26.1324 120.444 25.1914 119.067 23.9747C117.648 22.7301 116.927 21.1208 116.927 19.192C116.927 17.9258 117.294 16.7159 118.016 15.5955C118.517 14.8182 119.196 14.153 120.042 13.6062C117.707 14.5087 115.455 16.1854 115.184 19.1341C115.029 20.855 115.498 22.5675 116.806 23.6821Z" fill="white"/>
<path d="M128.285 17.8788C127.826 17.4957 127.161 17.302 126.309 17.302C125.631 17.302 125.13 17.4351 124.819 17.6983C124.767 17.7425 124.72 17.7872 124.678 17.833C125.608 17.8925 126.257 18.9561 126.553 19.7991C126.636 19.8181 126.723 19.837 126.814 19.856C127.45 19.9944 128.046 20.1328 128.605 20.2712L129.188 20.2407C128.987 19.0939 128.634 18.1703 128.285 17.8788Z" fill="white"/>
<path d="M118.737 34.1812C116.962 32.3861 116.02 30.1574 116.086 27.9049L114.344 27.666C114.538 29.8953 115.37 31.8919 116.842 33.3381C117.452 33.9375 118.461 34.5049 119.705 34.9632C119.343 34.728 119.02 34.4675 118.737 34.1812Z" fill="white"/>
</svg>
