<svg width="124" height="55" viewBox="0 0 124 55" fill="none" xmlns="http://www.w3.org/2000/svg">
<g clip-path="url(#clip0_22844_1336)">
<path d="M63.264 33.6205C65.7472 30.0007 69.3693 28.5831 73.3085 29.5757C75.7047 30.1793 77.4264 31.6082 78.4335 33.9076C78.5363 34.1405 78.5519 34.4299 78.8466 34.6062C79.1637 34.4231 79.2598 34.0546 79.4407 33.7652C81.5107 30.4597 85.2601 28.7255 88.9961 29.3835C91.5195 29.8289 93.4288 31.199 94.7285 33.4283C95.6039 34.9318 96.122 36.58 96.1376 38.3141C96.1711 41.7394 96.4167 45.1625 96.3386 48.5901C96.314 49.6482 96.1979 50.6972 95.8786 51.7079C95.1126 54.1316 92.7165 54.9297 90.6352 53.4737C90.0412 53.0577 89.7085 52.4698 89.5298 51.7802C89.3378 51.0409 89.3043 50.2835 89.3177 49.5238C89.3601 47.1521 89.3914 44.7804 89.4517 42.4087C89.4762 41.4161 89.4093 40.4326 89.2954 39.4514C89.2194 38.7935 89.0319 38.1604 88.755 37.5613C87.7947 35.488 86.0149 34.6695 83.8443 35.2935C82.9891 35.54 82.2052 35.9311 81.4996 36.4783C80.4724 37.2786 79.8426 38.3028 79.6818 39.6277C79.5612 40.6158 79.597 41.6015 79.6439 42.5873C79.7622 45.0246 79.7935 47.4619 79.7265 49.8991C79.7064 50.6294 79.6059 51.3461 79.3424 52.0267C78.8466 53.3086 77.94 54.0615 76.56 54.1587C75.1263 54.2582 74.0187 53.702 73.3108 52.4201C72.8552 51.5926 72.7279 50.6724 72.7458 49.7431C72.7815 47.9638 72.8686 46.1867 72.9066 44.4096C72.9379 42.8609 72.958 41.3121 72.7168 39.7747C72.5828 38.9246 72.3997 38.0926 72.0334 37.3103C71.2943 35.7435 70.0393 35.0109 68.351 35.0358C66.0978 35.0697 64.2131 36.4964 63.5097 38.6691C63.0876 39.9737 63.0385 41.3189 63.0541 42.6732C63.0809 44.8482 63.3668 47.0119 63.3243 49.1892C63.302 50.392 63.1099 51.5541 62.4556 52.5896C61.281 54.4481 58.8827 54.7285 57.3262 53.1956C56.7166 52.5964 56.3928 51.8548 56.3258 51.0025C56.3057 50.7402 56.3124 50.4757 56.3124 50.2111C56.3124 44.6741 56.3124 39.1394 56.3124 33.6024C56.3124 33.0417 56.3302 32.4855 56.4776 31.9361C56.8952 30.3851 58.0229 29.3857 59.5079 29.275C60.9215 29.1687 62.2658 30.0708 62.8732 31.511C63.1323 32.126 63.1635 32.7817 63.2663 33.6227L63.264 33.6205ZM121.236 50.0031C119.219 52.8135 116.341 54.1565 112.926 54.3147C111.325 54.3893 109.737 54.2786 108.183 53.8445C103.598 52.5625 100.293 48.5968 99.6704 43.6725C99.2863 40.6384 99.6882 37.7444 101.193 35.072C103.145 31.606 106.169 29.7859 110.057 29.3835C110.575 29.3292 111.097 29.3292 111.615 29.3043C113.125 29.3089 114.601 29.5056 116.037 29.9894C119.101 31.0227 121.425 32.9693 122.707 35.9673C124.811 40.8893 124.36 45.6463 121.233 50.0031H121.236ZM112.962 35.6621C110.229 34.8934 107.763 36.0917 106.658 38.7324C106.274 39.6504 106.05 40.6067 106.059 41.6174C106.097 44.1858 107.258 46.0895 109.483 47.2855C112.904 49.1236 116.347 47.5319 117.274 43.7313C117.305 43.6025 117.339 43.4758 117.366 43.347C118.098 39.6865 116.334 36.6117 112.96 35.6621H112.962ZM37.4091 53.1843C39.238 52.359 40.5913 51.0251 41.3796 49.1553C42.4247 46.6841 41.7436 44.1835 39.6288 42.5579C39.0817 42.1374 38.4877 41.7982 37.8691 41.5021C36.5114 40.8554 35.1023 40.349 33.6776 39.8855C32.8982 39.6323 32.1412 39.3248 31.4824 38.8296C30.3972 38.0112 30.4976 36.5755 31.679 35.8972C32.0809 35.6666 32.5231 35.5558 32.9831 35.5196C33.959 35.4428 34.9326 35.4541 35.9018 35.6236C36.6074 35.748 37.3086 35.9221 38.0187 35.9763C39.5462 36.0939 40.7655 35.1466 41.1808 33.5978C41.6051 32.0084 41.0178 30.7039 39.5507 29.9962C39.1375 29.7972 38.7043 29.6661 38.2577 29.5621C36.3328 29.1122 34.3855 29.0715 32.4337 29.2569C30.4999 29.4423 28.6754 30.003 27.0229 31.0814C25.5334 32.0536 24.5576 33.3966 24.0596 35.1104C23.0435 38.6126 24.2717 41.4727 27.5097 43.0711C28.7692 43.6929 30.0734 44.2039 31.4222 44.5973C32.2037 44.8256 32.9764 45.0901 33.7111 45.4428C33.9746 45.5695 34.2426 45.7051 34.4681 45.8883C35.2184 46.4987 35.1849 47.385 34.4033 47.9638C34.0237 48.2441 33.5838 48.3504 33.1238 48.3979C31.1586 48.5991 29.3052 48.2193 27.5522 47.3013C27.177 47.1046 26.8086 46.8853 26.4133 46.7384C25.721 46.4806 25.0042 46.4218 24.3276 46.7768C22.3557 47.81 22.0007 50.7538 23.7916 52.0832C24.6692 52.7343 25.6384 53.182 26.6813 53.4827C28.3494 53.9643 30.0443 54.2559 31.7058 54.1587C33.7267 54.2175 35.6249 53.9892 37.4136 53.182L37.4091 53.1843ZM19.3477 28.6826C19.3299 27.1497 18.689 26.3041 17.262 25.827C16.371 25.5309 15.4711 25.5309 14.5756 25.818C13.7717 26.0735 13.2469 26.6251 12.9722 27.4187C12.8204 27.8551 12.7489 28.3095 12.7355 28.7753C12.6752 30.8825 12.5747 32.9874 12.5502 35.0946C12.4876 40.0664 12.3402 45.0359 12.5256 50.0077C12.5546 50.7741 12.6551 51.518 12.97 52.2188C13.6488 53.7405 15.3371 54.5657 16.9337 54.1678C18.5059 53.7766 19.3321 52.6823 19.3745 50.808C19.4616 47.1205 19.6045 43.4351 19.5331 39.7453C19.5867 36.0555 19.3902 32.3702 19.3477 28.6826ZM51.835 32.031C51.7903 31.0317 51.5603 30.1228 50.7318 29.5078C48.9051 28.1558 45.6649 28.8974 45.1535 31.5834C45.0285 32.2322 44.9905 32.8879 44.9793 33.5481C44.8699 39.3429 45.0151 45.1354 45.2049 50.9279C45.2183 51.3529 45.2719 51.7825 45.35 52.2008C45.5399 53.2069 46.1607 53.8196 47.1209 54.0999C48.1973 54.412 49.2491 54.317 50.2673 53.8716C51.2544 53.442 51.7903 52.714 51.806 51.5813C51.8506 48.3233 52.0404 45.0675 51.9935 42.6755C51.9935 38.547 51.9801 35.289 51.8328 32.031H51.835Z" fill="white"/>
<path d="M15.1806 13.6065C15.1494 10.3689 15.4888 7.16965 16.1766 4.00662C16.2815 3.52504 16.4178 3.05024 16.5629 2.57997C16.9626 1.27089 17.8849 0.567744 19.189 0.398175C20.8237 0.183386 22.369 0.506699 23.7624 1.41333C25.2765 2.3991 25.8147 3.78278 25.3904 5.587C24.8656 7.81628 23.8897 9.86468 22.8312 11.8701C21.8375 13.758 20.7835 15.6142 19.5039 17.3257C19.0126 17.9859 18.4722 18.6032 17.8358 19.1164C16.7885 19.962 16.19 19.806 15.6674 18.5806C15.3414 17.8141 15.2096 17.0002 15.1873 16.1749C15.165 15.3203 15.1828 14.4634 15.1828 13.6065H15.1806ZM10.3772 19.2927C9.97747 16.2337 9.05743 13.3239 7.87389 10.4955C7.57018 9.76972 7.21289 9.06431 6.7551 8.41769C6.20129 7.63314 5.45543 7.22844 4.50859 7.25783C2.58589 7.32114 1.19466 8.28881 0.243358 9.93703C-0.046946 10.4412 -0.0558784 10.9929 0.111605 11.5626C0.299186 12.2093 0.65425 12.7564 1.01378 13.3036C2.33131 15.3135 3.85429 17.1562 5.52242 18.8722C6.36207 19.7382 7.21735 20.6086 8.26245 21.2371C8.76043 21.5378 9.31201 21.9335 9.89485 21.5831C10.4643 21.2417 10.3973 20.5634 10.4576 19.9688C10.433 19.7472 10.4107 19.5188 10.3817 19.2905L10.3772 19.2927ZM25.8459 23.5998C28.9209 22.9464 31.8686 21.9267 34.6555 20.4481C35.1759 20.1722 35.6649 19.8467 36.1004 19.442C36.6073 18.9717 36.8619 18.3952 36.8909 17.6965C36.9601 15.9601 36.1562 14.6624 34.89 13.6088C33.9611 12.8355 32.9405 12.7632 31.8865 13.3442C31.5739 13.5161 31.2702 13.715 30.9776 13.9208C29.5082 14.9631 28.1416 16.1365 26.8374 17.3777C25.5333 18.6213 24.2939 19.9349 23.3203 21.47C22.992 21.9855 22.5856 22.5824 22.9116 23.2155C23.26 23.8937 23.9858 23.6789 24.6378 23.74C25.0063 23.6993 25.435 23.6857 25.8459 23.5976V23.5998Z" fill="white"/>
</g>
<defs>
<clipPath id="clip0_22844_1336">
<rect width="124" height="54" fill="white" transform="translate(0 0.334961)"/>
</clipPath>
</defs>
</svg>
