<svg width="94" height="83" viewBox="0 0 94 83" fill="none" xmlns="http://www.w3.org/2000/svg">
<g clip-path="url(#clip0_22844_1320)">
<path d="M0.833252 82.191V73.6885H2.77952V82.191H0.833252Z" fill="white"/>
<path d="M7.17139 82.191V73.6885H8.78167L13.7397 79.8089H12.9587V73.6885H14.8808V82.191H13.2826L8.31251 76.0705H9.09344V82.191H7.17139Z" fill="white"/>
<path d="M22.0364 82.3349C21.3644 82.3349 20.7197 82.243 20.1022 82.0624C19.4848 81.8787 18.9884 81.6429 18.613 81.352L19.2729 79.8702C19.6331 80.1304 20.0599 80.3417 20.5502 80.507C21.0436 80.6723 21.54 80.755 22.0455 80.755C22.4299 80.755 22.7386 80.7183 22.9747 80.6387C23.2108 80.5621 23.3834 80.455 23.4984 80.3172C23.6104 80.1794 23.6649 80.0232 23.6649 79.8426C23.6649 79.616 23.5771 79.4354 23.4015 79.3007C23.226 79.166 22.9929 79.0588 22.7053 78.9731C22.4178 78.8873 22.1 78.8077 21.7519 78.7312C21.4038 78.6546 21.0557 78.5597 20.7076 78.4464C20.3595 78.3332 20.0417 78.1862 19.7542 78.0086C19.4666 77.831 19.2305 77.5953 19.0519 77.3044C18.8733 77.0135 18.7825 76.64 18.7825 76.1869C18.7825 75.7 18.9127 75.2591 19.173 74.8581C19.4333 74.457 19.8268 74.1385 20.3505 73.8997C20.8741 73.6609 21.5339 73.5415 22.324 73.5415C22.8537 73.5415 23.3712 73.6058 23.8858 73.7313C24.4004 73.8569 24.8514 74.0467 25.2418 74.2947L24.6425 75.7888C24.249 75.5623 23.8586 75.3939 23.4651 75.2836C23.0716 75.1734 22.6872 75.1183 22.3118 75.1183C21.9365 75.1183 21.6278 75.1642 21.3887 75.253C21.1495 75.3418 20.977 75.4582 20.8711 75.599C20.7651 75.7398 20.7137 75.9052 20.7137 76.0919C20.7137 76.3093 20.8015 76.4869 20.977 76.6216C21.1526 76.7563 21.3856 76.8635 21.6732 76.9431C21.9607 77.0227 22.2786 77.1054 22.6266 77.185C22.9747 77.2646 23.3228 77.3595 23.6709 77.4636C24.019 77.5677 24.3368 77.7116 24.6244 77.8892C24.9119 78.0668 25.148 78.3025 25.3266 78.5934C25.5052 78.8843 25.596 79.2547 25.596 79.6987C25.596 80.1763 25.4628 80.6142 25.1995 81.0091C24.9361 81.4072 24.5426 81.7256 24.016 81.9675C23.4923 82.2093 22.8294 82.3318 22.0273 82.3318L22.0364 82.3349Z" fill="white"/>
<path d="M33.0692 82.3349C31.8766 82.3349 30.9443 81.9981 30.2723 81.3276C29.6004 80.657 29.2644 79.6956 29.2644 78.4495V73.6885H31.2107V78.376C31.2107 79.1843 31.3741 79.7691 31.704 80.1243C32.0309 80.4795 32.491 80.6601 33.0843 80.6601C33.6776 80.6601 34.1376 80.4825 34.4645 80.1243C34.7914 79.7691 34.9579 79.1843 34.9579 78.376V73.6885H36.88V78.4495C36.88 79.6956 36.544 80.657 35.872 81.3276C35.2001 82.0011 34.2678 82.3349 33.0752 82.3349H33.0692Z" fill="white"/>
<path d="M41.1963 82.191V73.6885H44.8346C45.5882 73.6885 46.236 73.8109 46.7808 74.0589C47.3257 74.3069 47.7464 74.6591 48.043 75.1214C48.3397 75.5837 48.488 76.1348 48.488 76.7717C48.488 77.4085 48.3397 77.9474 48.043 78.4036C47.7464 78.8598 47.3257 79.2119 46.7808 79.4538C46.236 79.6956 45.5882 79.8181 44.8346 79.8181H42.2769L43.1426 78.9547V82.1848H41.1963V82.191ZM43.1426 79.1782L42.2769 78.2566H44.7256C45.3249 78.2566 45.7729 78.125 46.0695 77.8617C46.3661 77.5983 46.5145 77.2371 46.5145 76.7747C46.5145 76.3124 46.3661 75.9419 46.0695 75.6817C45.7729 75.4214 45.3249 75.2928 44.7256 75.2928H42.2769L43.1426 74.359V79.1813V79.1782ZM46.5417 82.191L44.4411 79.1047H46.5175L48.6423 82.191H46.5417Z" fill="white"/>
<path d="M51.3181 82.191L55.0654 73.6885H56.9874L60.7468 82.191H58.7067L55.6344 74.6866H56.4032L53.3189 82.191H51.3272H51.3181ZM53.1917 80.3692L53.7093 78.8751H58.0317L58.5614 80.3692H53.1948H53.1917Z" fill="white"/>
<path d="M64.0217 82.191V73.6885H65.632L70.59 79.8089H69.8091V73.6885H71.7311V82.191H70.1329L65.1629 76.0705H65.9438V82.191H64.0217Z" fill="white"/>
<path d="M80.1458 82.335C79.498 82.335 78.8957 82.2278 78.3388 82.0135C77.7818 81.7992 77.3006 81.493 76.8919 81.095C76.4833 80.7 76.1655 80.2316 75.9385 79.6988C75.7115 79.163 75.5964 78.5782 75.5964 77.9383C75.5964 77.2984 75.7115 76.7105 75.9385 76.1778C76.1655 75.642 76.4863 75.1766 76.898 74.7816C77.3096 74.3867 77.7939 74.0805 78.3448 73.8662C78.8957 73.6518 79.5011 73.5447 80.1579 73.5447C80.8874 73.5447 81.5442 73.6733 82.1314 73.9274C82.7186 74.1815 83.215 74.5581 83.6146 75.0511L82.3645 76.2176C82.0769 75.8869 81.7561 75.6359 81.405 75.4705C81.0538 75.3052 80.6694 75.2225 80.2517 75.2225C79.8582 75.2225 79.498 75.2868 79.1711 75.4154C78.8442 75.544 78.5597 75.7308 78.3176 75.9757C78.0754 76.2207 77.8908 76.5054 77.7606 76.8391C77.6275 77.1698 77.5609 77.5403 77.5609 77.9444C77.5609 78.3486 77.6275 78.719 77.7606 79.0497C77.8938 79.3804 78.0785 79.6682 78.3176 79.9131C78.5567 80.155 78.8412 80.3418 79.1711 80.4704C79.498 80.599 79.8582 80.6633 80.2517 80.6633C80.6664 80.6633 81.0508 80.5806 81.405 80.4153C81.7561 80.2499 82.0769 79.9958 82.3645 79.6559L83.6146 80.8225C83.215 81.3154 82.7186 81.692 82.1314 81.9523C81.5442 82.2125 80.8813 82.3411 80.1458 82.3411V82.335Z" fill="white"/>
<path d="M89.2567 80.6111H93.8302V82.191H87.3225V73.6885H93.6728V75.2683H89.2536V80.6111H89.2567ZM89.1144 77.1146H93.1613V78.6455H89.1144V77.1146Z" fill="white"/>
<path d="M28.2839 11.6572V41.145C28.3687 40.4592 28.4201 39.7152 28.4201 38.9099V11.6572H28.2839Z" fill="white"/>
<path d="M43.3243 0.334961V37.866C43.3243 38.1936 43.3213 38.5243 43.3122 38.8458C43.1608 46.0011 41.26 51.4296 37.6731 54.972C33.9229 58.6921 28.3262 60.5751 21.0436 60.5751C16.7788 60.5751 12.8651 59.8219 9.40841 58.34C6.25141 56.9836 3.56659 55.0578 1.40845 52.5961L9.39631 43.0189C10.8341 44.7305 12.3505 46.0868 13.8851 47.0451C15.7557 48.2178 17.7625 48.8087 19.8389 48.8087C22.0849 48.8087 24.582 48.2453 26.2952 46.2123C27.2759 45.0519 27.9993 43.42 28.2839 41.1451C28.3686 40.4593 28.4201 39.7153 28.4201 38.91V11.6573H7.56506V0.334961H43.3243Z" fill="white"/>
<path d="M82.4705 0.347168V59.3687H67.3968V35.5635H46.9504V23.2797H67.3968V0.347168H82.4705Z" fill="white"/>
</g>
<defs>
<clipPath id="clip0_22844_1320">
<rect width="93" height="82" fill="white" transform="translate(0.833252 0.334961)"/>
</clipPath>
</defs>
</svg>
