<svg width="165" height="40" viewBox="0 0 165 40" fill="none" xmlns="http://www.w3.org/2000/svg">
<path d="M1.33495 24.4606L1.33325 1.53784H164V24.4606" stroke="white" stroke-width="1.15385" stroke-miterlimit="10"/>
<path d="M21.3861 16.8969L20.5184 20.3038L8.26392 20.3021L11.8456 6.34863H16.5895L13.8466 16.8969H21.3861Z" fill="white"/>
<path d="M24.0165 12.9728C24.2973 12.0128 24.8979 11.2744 25.8236 10.751C26.7458 10.2377 28.1632 9.9751 30.0723 9.9751C32.2281 9.9751 33.6847 10.2223 34.4282 10.7169C35.1786 11.2199 35.5393 11.9429 35.5104 12.8978C35.4951 13.5321 35.2739 14.5808 34.8621 16.0302C34.4674 17.4063 34.2666 18.3629 34.2547 18.9017C34.2445 19.3587 34.3244 19.8276 34.4861 20.3H30.3786C30.2867 19.8992 30.251 19.519 30.2544 19.1524C29.1245 20.0783 27.8841 20.5438 26.5246 20.5438C25.131 20.5438 24.1425 20.2437 23.5486 19.6469C22.9565 19.0484 22.6655 18.3612 22.6893 17.57C22.7098 16.6764 22.9956 15.9978 23.552 15.5237C24.1084 15.0548 24.7873 14.7377 25.5819 14.5688C26.3851 14.3983 27.4741 14.2534 28.8523 14.1272C30.0825 14.0044 30.8958 13.8851 31.3093 13.7742C31.3978 13.4775 31.4471 13.2473 31.4556 13.087C31.4607 12.8296 31.3195 12.6266 31.0473 12.48C30.7716 12.3248 30.4024 12.2532 29.9362 12.2532C29.4563 12.2532 29.0633 12.3231 28.7553 12.463C28.449 12.6096 28.1751 12.908 27.942 13.3633L24.0165 12.9728ZM30.7886 15.7829C28.8404 16.0813 27.6953 16.3456 27.3498 16.5724C27.0078 16.8026 26.8241 17.0755 26.8224 17.3858C26.8088 17.7064 26.9228 17.9639 27.1644 18.1531C27.4009 18.3339 27.7106 18.4328 28.0883 18.4328C28.6209 18.4311 29.1569 18.2316 29.6912 17.8394C30.2152 17.4387 30.5879 16.7549 30.7886 15.7829Z" fill="white"/>
<path d="M59.6788 6.34863L58.9046 9.34804H51.1882L50.6233 11.5648H58.0658L57.3035 14.3937H49.8763L49.1634 17.1254H57.5366L56.708 20.3021H43.6521L47.2559 6.35034L59.6788 6.34863Z" fill="white"/>
<path d="M72.6855 13.7199L68.8605 13.9092C68.7056 13.0293 68.0726 12.586 66.9581 12.586C65.927 12.5843 65.1256 12.9696 64.5539 13.7319C63.9771 14.4958 63.681 15.3313 63.6538 16.2334C63.6385 16.779 63.8239 17.1951 64.217 17.4884C64.5964 17.78 65.0218 17.9249 65.4812 17.9249C66.5991 17.9249 67.4584 17.3537 68.0352 16.2129L71.9777 16.6068C70.9278 19.2294 68.6886 20.5457 65.2481 20.5457C61.3652 20.5457 59.4663 19.0844 59.5446 16.172C59.5837 14.4821 60.2609 13.0225 61.5677 11.8033C62.8813 10.5875 64.7019 9.97876 67.0177 9.97876C68.6869 9.97876 70.009 10.2891 70.9908 10.9183C71.9658 11.5407 72.5324 12.4717 72.6855 13.7199Z" fill="white"/>
<path d="M80.7731 9.97706C82.7468 9.97535 84.1744 10.4323 85.0507 11.3463C85.9253 12.262 86.3558 13.3294 86.3201 14.5555C86.2945 15.4865 86.0087 16.4397 85.471 17.398C84.9197 18.3648 84.1268 19.1287 83.0633 19.6949C82.0135 20.2593 80.7288 20.544 79.206 20.544C77.2764 20.544 75.8641 20.1075 74.9623 19.2294C74.0656 18.3597 73.6368 17.2718 73.6641 15.9759C73.6947 14.9459 73.9976 13.9655 74.5744 13.0123C75.1427 12.0625 75.9594 11.3156 77.0178 10.7785C78.0829 10.2465 79.3302 9.97706 80.7731 9.97706ZM79.5429 17.9232C80.3341 17.9215 80.967 17.5566 81.4537 16.8148C81.9284 16.0782 82.1836 15.258 82.2075 14.3525C82.2194 13.7029 82.0594 13.2442 81.7089 12.9782C81.3669 12.7173 80.9756 12.5843 80.5502 12.5843C79.6569 12.5843 78.9797 12.9526 78.5117 13.6961C78.0472 14.4378 77.8039 15.1966 77.7869 15.9742C77.7733 16.5284 77.94 16.9973 78.2684 17.369C78.6155 17.739 79.0392 17.9232 79.5429 17.9232Z" fill="white"/>
<path d="M93.3114 11.7672C94.5093 10.5736 95.9369 9.9751 97.6146 9.9751C98.6066 9.9751 99.3485 10.2087 99.8402 10.6742C100.325 11.1431 100.562 11.7127 100.536 12.3913C100.526 12.7989 100.371 13.6003 100.06 14.7888L98.6474 20.3H94.414L95.6204 15.6073C95.9199 14.4597 96.0645 13.7998 96.0679 13.6378C96.0815 13.0819 95.8059 12.8023 95.2597 12.8023C94.6369 12.8023 94.089 13.0666 93.6058 13.6088C93.1311 14.1426 92.7584 14.9184 92.5015 15.9296L91.353 20.3017H87.0991L89.7246 10.2053H93.6756L93.2757 11.7263L93.3114 11.7672Z" fill="white"/>
<path d="M109.103 9.97705C111.072 9.97705 112.5 10.434 113.379 11.3497C114.259 12.2637 114.679 13.3328 114.654 14.5572C114.62 15.4882 114.335 16.4414 113.799 17.4014C113.255 18.3648 112.459 19.1287 111.404 19.6966C110.35 20.261 109.061 20.5457 107.536 20.5457C105.608 20.5457 104.194 20.1092 103.299 19.2311C102.404 18.3614 101.969 17.2735 102.004 15.9776C102.03 14.9476 102.328 13.9672 102.899 13.014C103.475 12.0642 104.291 11.3207 105.348 10.7802C106.405 10.2465 107.659 9.97705 109.103 9.97705ZM107.878 17.9232C108.663 17.9232 109.299 17.5566 109.784 16.8148C110.267 16.0782 110.517 15.258 110.539 14.3525C110.556 13.7012 110.39 13.2442 110.049 12.9782C109.701 12.7173 109.311 12.5843 108.88 12.5843C107.996 12.5843 107.32 12.9509 106.849 13.696C106.384 14.4378 106.137 15.2 106.119 15.9742C106.107 16.5283 106.27 16.9973 106.607 17.369C106.953 17.739 107.373 17.9232 107.878 17.9232Z" fill="white"/>
<path d="M128.681 11.6905C129.495 11.0289 130.233 10.5804 130.9 10.3383C131.557 10.0962 132.26 9.9768 132.998 9.9751C133.992 9.9751 134.737 10.2189 135.219 10.7015C135.707 11.1858 135.94 11.7775 135.918 12.4681C135.913 12.8807 135.853 13.2797 135.755 13.6685L134.016 20.3017L129.777 20.3L130.902 15.9944C131.183 14.8945 131.344 14.238 131.378 14.03C131.416 13.8169 131.433 13.6753 131.433 13.5884C131.445 13.0666 131.184 12.8023 130.64 12.8006C130.007 12.8023 129.488 13.0461 129.059 13.527C128.639 14.0078 128.29 14.7718 128.025 15.8102L126.862 20.3034L122.622 20.3017L123.721 16.0677C124.017 14.9303 124.181 14.2619 124.211 14.0522C124.254 13.839 124.276 13.6873 124.276 13.5713C124.288 13.0581 124.007 12.8023 123.441 12.8023C123.014 12.8023 122.564 13.0035 122.074 13.4042C121.586 13.8083 121.222 14.4887 120.97 15.4555L119.702 20.3H115.448L118.079 10.2036H122.008L121.628 11.6513L121.666 11.6888C122.901 10.5446 124.279 9.9751 125.789 9.9751C126.481 9.9751 127.085 10.1234 127.608 10.4201C128.145 10.7186 128.504 11.1449 128.681 11.6905Z" fill="white"/>
<path d="M143.653 10.2052L141.031 20.3033L136.791 20.3016L139.403 10.2069L143.653 10.2052ZM145.647 6.10938L141.785 8.95191L139.733 8.95361L142.103 6.10938H145.647Z" fill="white"/>
<path d="M145.576 12.9728C145.857 12.0145 146.457 11.2744 147.379 10.751C148.3 10.2394 149.716 9.9751 151.63 9.9751C153.793 9.9751 155.249 10.2223 155.991 10.7186C156.734 11.2199 157.094 11.9429 157.068 12.8978C157.051 13.5321 156.835 14.5791 156.416 16.0336C156.032 17.408 155.826 18.3646 155.817 18.9017C155.8 19.3587 155.882 19.8276 156.052 20.3L151.929 20.3017C151.849 19.8975 151.807 19.5173 151.819 19.1507C150.691 20.0783 149.445 20.5421 148.079 20.5421C146.69 20.5421 145.693 20.2403 145.108 19.6452C144.514 19.0466 144.227 18.356 144.245 17.5683C144.269 16.6747 144.558 15.9961 145.11 15.5255C145.669 15.0565 146.345 14.736 147.143 14.5671C147.941 14.3966 149.037 14.2551 150.408 14.1255C151.637 14.0027 152.457 13.8834 152.864 13.7725C152.957 13.4758 153.005 13.2439 153.01 13.087C153.017 12.8296 152.887 12.6249 152.603 12.48C152.326 12.3248 151.958 12.2532 151.494 12.2532C151.011 12.2532 150.619 12.3231 150.315 12.4612C150.008 12.6079 149.736 12.908 149.5 13.3633L145.576 12.9728ZM152.35 15.7829C150.398 16.083 149.253 16.3456 148.907 16.5724C148.562 16.8026 148.387 17.0755 148.377 17.3858C148.368 17.7064 148.482 17.9622 148.727 18.1531C148.958 18.3339 149.266 18.4311 149.648 18.4328C150.18 18.4328 150.716 18.2299 151.25 17.8394C151.778 17.4387 152.145 16.7532 152.35 15.7829Z" fill="white"/>
<path d="M70.9057 30.4629C70.6113 30.4629 70.368 30.5754 70.1757 30.8039C69.9852 31.0307 69.8882 31.3752 69.8882 31.8407C69.8882 32.3113 69.9835 32.6592 70.1723 32.8842C70.3612 33.1093 70.6011 33.2219 70.8887 33.2219C71.1796 33.2219 71.4179 33.111 71.605 32.8894C71.7922 32.6677 71.8858 32.3113 71.8858 31.8202C71.8858 31.3632 71.7922 31.0222 71.6033 30.7988C71.4162 30.5754 71.1831 30.4629 70.9057 30.4629Z" fill="white"/>
<path d="M91.8547 30.27C91.5332 30.27 91.2779 30.3979 91.0856 30.652C90.9631 30.8106 90.8849 31.0476 90.8525 31.363H92.8416C92.8025 30.9726 92.697 30.6912 92.5269 30.5224C92.3567 30.3536 92.1321 30.27 91.8547 30.27Z" fill="white"/>
<path d="M77.7048 30.5381C77.4461 30.5381 77.2403 30.6319 77.0871 30.8194C76.934 31.007 76.8557 31.3173 76.8557 31.7505C76.8557 32.1324 76.9374 32.4138 77.099 32.5979C77.2607 32.7821 77.4751 32.8742 77.7388 32.8742C77.9906 32.8742 78.2016 32.7787 78.3718 32.5877C78.5419 32.3967 78.627 32.1103 78.627 31.7266C78.627 31.3412 78.5385 31.0479 78.3582 30.845C78.1812 30.6404 77.9634 30.5381 77.7048 30.5381Z" fill="white"/>
<path d="M58.1047 28.8328H57.5449V32.8144H58.0945C58.5641 32.8144 58.8976 32.7615 59.0967 32.6575C59.2958 32.5535 59.4506 32.371 59.5629 32.1118C59.6752 31.8509 59.7314 31.4297 59.7314 30.8466C59.7314 30.0741 59.6055 29.5455 59.3554 29.2608C59.1018 28.976 58.6867 28.8328 58.1047 28.8328Z" fill="white"/>
<path d="M1.33325 24.4609V39.1323H163.998V24.4609H1.33325ZM61.7224 32.6134C61.5454 33.0431 61.3004 33.4029 60.9856 33.6928C60.6725 33.9827 60.3356 34.1753 59.9732 34.2708C59.4815 34.4038 59.034 34.4703 58.6341 34.4703H55.2974V27.1841H58.6341C59.2926 27.1841 59.8235 27.2745 60.2284 27.4518C60.6334 27.6309 60.9686 27.8883 61.2323 28.2226C61.4978 28.5568 61.6884 28.9473 61.8075 29.3906C61.9266 29.834 61.9861 30.3046 61.9861 30.8008C61.9878 31.5801 61.8993 32.1837 61.7224 32.6134ZM66.7794 30.7923C66.5411 30.6934 66.354 30.6439 66.2144 30.6439C65.9507 30.6439 65.7448 30.753 65.5985 30.9713C65.3909 31.2799 65.2854 31.8563 65.2854 32.7004V34.4686H63.2572V29.1911H65.1459V30.0556C65.3279 29.6822 65.5151 29.4247 65.7091 29.2832C65.9031 29.1417 66.1413 29.0717 66.4254 29.0717C66.7232 29.0717 67.0482 29.1638 67.4021 29.3497L66.7794 30.7923ZM73.109 33.8121C72.5714 34.3305 71.8278 34.5897 70.88 34.5897C70.0327 34.5897 69.3487 34.3748 68.8263 33.9434C68.1848 33.4097 67.8632 32.7106 67.8632 31.8461C67.8632 31.0412 68.1338 30.3779 68.6766 29.8561C69.2193 29.3343 69.951 29.0734 70.8732 29.0734C71.9282 29.0734 72.7245 29.3804 73.2639 29.9925C73.6978 30.487 73.9139 31.0941 73.9139 31.8171C73.9156 32.627 73.6467 33.2921 73.109 33.8121ZM80.4393 35.357C80.298 35.6571 80.1109 35.8993 79.8795 36.0851C79.6463 36.271 79.3503 36.4057 78.9913 36.4876C78.6322 36.5711 78.2222 36.612 77.7593 36.612C76.701 36.612 75.9744 36.4535 75.5797 36.1346C75.1849 35.8174 74.9858 35.3911 74.9858 34.8574C74.9858 34.7926 74.9893 34.7022 74.9961 34.5897L76.9562 34.8131C77.0056 34.9955 77.0821 35.12 77.1842 35.1899C77.334 35.2922 77.5194 35.3434 77.7457 35.3434C78.0367 35.3434 78.2528 35.2649 78.3974 35.1098C78.5421 34.9546 78.6135 34.6818 78.6135 34.2947V33.495C78.4144 33.7303 78.2171 33.9008 78.018 34.0065C77.7083 34.1719 77.3714 34.2555 77.0107 34.2555C76.3062 34.2555 75.7379 33.9468 75.304 33.3313C74.9961 32.893 74.8429 32.315 74.8429 31.5971C74.8429 30.7752 75.0403 30.1494 75.4368 29.718C75.8332 29.2883 76.3522 29.0717 76.9937 29.0717C77.4037 29.0717 77.7423 29.1417 78.0078 29.2815C78.2732 29.4213 78.5233 29.6498 78.7547 29.9721V29.1911H80.6434V34.177L80.6486 34.4107C80.6503 34.7415 80.5805 35.0569 80.4393 35.357ZM87.618 34.4703H85.7327V33.616C85.452 33.9673 85.1678 34.218 84.882 34.3663C84.5961 34.5147 84.2439 34.5897 83.8287 34.5897C83.2723 34.5897 82.8367 34.4243 82.5219 34.0901C82.2055 33.7576 82.0489 33.2443 82.0489 32.552V29.1928H84.0771V32.095C84.0771 32.4258 84.1384 32.6611 84.2609 32.801C84.3834 32.9408 84.5553 33.009 84.7765 33.009C85.0181 33.009 85.2155 32.9169 85.3686 32.7311C85.5217 32.5452 85.6 32.2127 85.6 31.7318V29.1928H87.618V34.4703ZM94.8938 32.332H90.8475C90.8833 32.656 90.9718 32.8982 91.1113 33.0567C91.307 33.2852 91.5605 33.3995 91.8753 33.3995C92.0726 33.3995 92.2615 33.35 92.4402 33.2511C92.5491 33.188 92.6665 33.0772 92.7924 32.9186L94.7815 33.1028C94.4769 33.6331 94.1094 34.0133 93.6806 34.2435C93.2501 34.4737 92.6341 34.5897 91.831 34.5897C91.1334 34.5897 90.5838 34.4908 90.1839 34.2947C89.7841 34.0969 89.4523 33.7849 89.1903 33.3551C88.9265 32.9254 88.7955 32.4224 88.7955 31.841C88.7955 31.0156 89.0592 30.3489 89.5867 29.8374C90.1142 29.3275 90.8424 29.0717 91.7715 29.0717C92.5253 29.0717 93.1208 29.186 93.5564 29.4145C93.992 29.643 94.3255 29.9738 94.5535 30.4086C94.7815 30.8417 94.8955 31.4078 94.8955 32.1035V32.332H94.8938ZM99.5662 30.7923C99.328 30.6934 99.1391 30.6439 99.0013 30.6439C98.7376 30.6439 98.5317 30.753 98.387 30.9713C98.1777 31.2799 98.074 31.8563 98.074 32.7004V34.4686H96.0457V29.1911H97.9361V30.0556C98.1182 29.6822 98.3054 29.4247 98.4993 29.2832C98.6933 29.1417 98.9315 29.0717 99.2157 29.0717C99.5135 29.0717 99.8401 29.1638 100.192 29.3497L99.5662 30.7923ZM102.83 34.4703H100.812V29.1928H102.83V34.4703ZM101.897 28.5448H100.929L101.763 27.0596H103.498L101.897 28.5448ZM108.246 34.4703C108.169 34.3356 108.12 34.2316 108.098 34.16C108.074 34.0884 108.052 33.9775 108.028 33.8241C107.762 34.0798 107.5 34.2623 107.24 34.3714C106.883 34.5181 106.468 34.5897 105.995 34.5897C105.367 34.5897 104.89 34.4448 104.564 34.1532C104.239 33.8616 104.075 33.5018 104.075 33.0755C104.075 32.6748 104.193 32.344 104.427 32.0865C104.662 31.829 105.096 31.6363 105.727 31.5101C106.485 31.3584 106.975 31.251 107.201 31.1896C107.426 31.1282 107.664 31.048 107.916 30.9474C107.916 30.6985 107.865 30.5246 107.762 30.4257C107.66 30.3268 107.48 30.2773 107.221 30.2773C106.891 30.2773 106.643 30.3302 106.478 30.4359C106.349 30.5194 106.245 30.6746 106.165 30.9031L104.235 30.6985C104.308 30.3609 104.414 30.0948 104.55 29.9005C104.686 29.7061 104.885 29.539 105.142 29.3957C105.328 29.2934 105.583 29.2133 105.906 29.157C106.229 29.1007 106.58 29.0734 106.958 29.0734C107.563 29.0734 108.048 29.1076 108.416 29.1741C108.783 29.2423 109.088 29.3838 109.333 29.5986C109.505 29.747 109.641 29.9584 109.74 30.233C109.838 30.5058 109.888 30.7667 109.888 31.0156V33.3466C109.888 33.5956 109.903 33.79 109.935 33.9298C109.966 34.0713 110.036 34.2504 110.141 34.4686H108.246V34.4703Z" fill="white"/>
<path d="M106.267 32.5514C106.155 32.6606 106.098 32.785 106.098 32.9232C106.098 33.0817 106.155 33.213 106.263 33.3136C106.374 33.4142 106.537 33.4654 106.752 33.4654C106.976 33.4654 107.186 33.4108 107.38 33.3017C107.574 33.1926 107.71 33.0596 107.791 32.901C107.873 32.7441 107.912 32.5395 107.912 32.2871V31.9631C107.635 32.0637 107.346 32.1507 107.044 32.2274C106.634 32.3366 106.376 32.444 106.267 32.5514Z" fill="white"/>
</svg>
