<svg width="118" height="111" viewBox="0 0 118 111" fill="none" xmlns="http://www.w3.org/2000/svg">
<g clip-path="url(#clip0_22844_1309)">
<path d="M112.631 51.0545C112.631 51.0545 112.417 51.9031 110.052 50.3636C110.052 50.3636 111.486 52.181 112.531 52.4663C113.584 52.7517 113.004 51.3624 112.631 51.0545ZM110.441 47.5926C110.441 47.5926 110.411 48.6214 108.397 47.908C108.397 47.908 109.381 49.4024 110.746 49.6878C112.211 49.9957 111.25 48.4337 110.449 47.5926M109.595 46.3385C108.069 44.3034 107.306 43.5825 106.719 39.7902C106.193 36.3884 98.7176 39.7902 98.7176 39.7902C95.0487 40.6913 93.6224 39.7526 93.0884 39.0618C93.0884 39.0467 92.9282 38.9416 93.0198 39.1293C95.0487 43.5299 99.488 41.2621 99.488 41.2621L100.304 42.0656C100.114 41.6 100.068 40.9016 100.197 39.9329C100.365 39.8728 100.663 39.7526 100.998 39.6625C101.197 39.9254 101.22 40.0981 101.242 40.5036C101.265 40.9016 101.021 41.4348 101.021 41.7802C101.021 42.1257 101.265 42.2458 101.265 42.2458C102.112 41.7502 102.753 40.5486 103.05 39.7977C103.271 39.8578 103.485 39.9178 103.683 39.9854C103.279 42.0806 101.853 42.9893 101.044 42.764C101.006 42.7489 100.968 42.7414 100.93 42.7264C98.3363 43.8904 99.877 44.2208 99.877 44.2208C102.036 44.2208 103.981 42.779 103.981 42.779C104.698 43.1319 105.445 44.8366 105.445 44.8366C106.254 44.9267 107.604 45.6326 107.604 45.6326C108.954 46.8717 109.579 46.3385 109.579 46.3385M18.2229 55.7405C18.1619 55.4176 13.1581 56.7317 9.06968 60.0134C9.06968 60.0134 8.14674 60.7043 8.20776 61.0197C8.32217 61.6355 9.06205 61.2375 9.24512 61.0572C12.4335 57.9633 18.2763 56.0559 18.2153 55.7405M76.7957 86.3569L78.2297 89.3908L80.1138 92.665L80.0985 92.695L75.0261 87.168L73.9277 87.6711L77.9475 96.1644L79.0917 95.6388L77.6119 92.5148L76.094 89.7438L75.766 89.2256L75.7812 89.1956L80.8994 94.8127L81.9597 94.3246L77.9399 85.8313L76.7957 86.3569ZM6.58306 48.6815C6.1254 49.4324 5.72876 50.0708 5.33213 50.7992C4.9126 51.5877 4.249 52.8493 3.95915 53.42C4.71429 53.5552 5.5457 53.4125 6.43051 52.7817C6.52967 50.3336 8.9095 45.2496 8.9095 45.2496C8.23064 46.0832 7.20853 47.6677 6.57544 48.6815M10.7096 62.3714C10.7096 62.3714 9.96975 62.9647 10.0155 63.235C10.0994 63.7532 10.6944 63.4152 10.8469 63.2575C13.4251 60.6067 18.1008 58.932 18.0551 58.6617C18.0093 58.3914 14.0048 59.5553 10.7096 62.3714ZM42.7611 21.7823L46.2546 20.2954L41.0296 8.35517L37.5361 9.84206L37.6048 9.99976L42.7611 21.7898V21.7823ZM69.3054 12.3878L72.3564 21.0388L75.8423 22.1953L80.0756 9.87961L76.4677 8.67808L74.1184 15.5118L71.0597 6.87579L67.5739 5.71931L63.3405 18.035L66.9484 19.2365L69.3054 12.3878ZM54.1416 18.9136H54.1492C54.4085 18.9136 54.6755 18.8986 54.9425 18.8761C58.8478 18.5231 61.5328 15.6695 61.5328 11.8997C61.5328 11.6444 61.5175 11.389 61.4946 11.1262C61.1438 7.46153 57.8486 5.11855 54.3551 5.12606C54.1187 5.12606 53.8822 5.13357 53.6458 5.1561C50.0989 5.47901 47.0249 8.22751 47.0249 11.8396C47.0249 12.0424 47.0326 12.2451 47.0555 12.4479C47.414 16.3228 50.3506 18.9136 54.1416 18.9136ZM53.989 8.73816C54.0958 8.73065 54.2026 8.72314 54.3017 8.72314C56.0103 8.72314 57.4825 10.0073 57.6198 11.4942C57.6274 11.6218 57.635 11.7495 57.635 11.8696C57.635 13.7245 56.3231 15.1363 54.5992 15.294C54.4924 15.3015 54.3933 15.309 54.2865 15.309C52.5779 15.309 51.0981 14.0249 50.9151 12.1024C50.9074 12.0198 50.9074 11.9447 50.9074 11.8621C50.9074 10.3602 52.227 8.88835 53.9814 8.73065M78.245 22.2328C78.8247 23.7798 79.8163 25.139 81.2122 26.0927C82.1809 26.7536 83.3555 27.2117 84.5683 27.2117C84.7209 27.2117 84.8734 27.2117 85.026 27.1891C86.4524 27.0465 87.4973 26.1003 88.2372 25.0489C88.7025 24.3806 88.9085 23.7272 88.9085 23.0964C88.9085 22.0451 88.3593 21.0914 87.627 20.1902L87.0778 19.5144C86.8795 19.259 86.6812 18.9962 86.5591 18.7184C86.4905 18.5682 86.4676 18.433 86.4676 18.3279C86.4676 17.9599 86.7575 17.7571 87.1922 17.7421C87.4439 17.7421 87.7262 17.8247 87.9855 17.9974C88.6415 18.4405 89.0153 19.1013 89.2365 19.8598L89.2898 20.0626L92.318 18.4705L92.2494 18.3204C91.6468 17.0963 90.6018 15.8647 89.4577 15.0837C88.5728 14.483 87.6118 14.1751 86.6736 14.1751C85.3006 14.1751 83.9886 14.8434 83.0809 16.1426C82.5394 16.9086 82.3105 17.5769 82.3105 18.2152C82.3105 19.3191 83.0123 20.2278 83.8818 21.2716C84.2327 21.6846 84.82 22.383 84.8124 22.8937C84.8124 23.0288 84.7819 23.149 84.698 23.2692C84.492 23.5545 84.2327 23.6672 83.9276 23.6672C83.6225 23.6672 83.2869 23.547 82.997 23.3518C82.097 22.736 81.6774 21.7372 81.4105 20.6934L81.3571 20.4831L78.1992 22.0902L78.2526 22.2328H78.245ZM34.3173 27.7073L40.3279 22.8636L38.2379 20.3479L35.1716 22.8186L28.894 15.2715L25.9497 17.6445L26.0565 17.7797L34.3173 27.7073ZM111.677 52.9019C113.958 55.3275 113.981 53.773 113.981 53.773C113.447 54.1409 111.677 52.9019 111.677 52.9019ZM118 57.4452C117.993 56.3488 117.55 55.3124 116.963 54.1935C114.286 49.1696 110.724 43.8979 109.686 42.6438C109.511 42.3509 109.274 41.6525 109.198 40.8866C109.099 40.053 109.129 39.2044 109.076 38.6863C109 38.1982 108.748 37.8752 108.451 37.4622C108.145 37.0567 107.772 36.5986 107.398 36.0805C106.841 35.3145 106.246 34.4809 105.773 33.8126C105.308 33.1517 104.934 32.611 104.911 32.5585C104.69 32.1755 104.461 31.8751 104.408 31.7399C104.393 31.7099 104.385 31.6874 104.37 31.6648C104.438 31.3194 104.53 30.7487 104.53 30.0353C104.53 30.0127 104.53 29.9977 104.53 29.9902C104.545 28.0077 103.737 24.8236 100.045 22.751C99.1753 22.2629 98.4049 21.8048 97.7032 21.3767C98.4202 20.6859 98.8473 19.7021 98.8473 18.6733V18.6433C98.8473 17.5619 98.3897 16.5631 97.6498 15.8572L97.5277 15.7446C87.6194 6.22996 74.0116 0.334961 59.0309 0.334961C59.0309 0.334961 59.0156 0.334961 59.008 0.334961C59.008 0.334961 58.9928 0.334961 58.9851 0.334961C43.9968 0.334961 30.389 6.22996 20.4502 15.7821L20.412 15.8197C19.6416 16.5481 19.1763 17.5469 19.1763 18.6282C19.1763 18.6282 19.1763 18.6358 19.1763 18.6508V18.6658C19.1763 19.4017 19.3975 20.1151 19.7866 20.7159C19.3441 20.9412 18.7644 21.2491 18.1924 21.602C17.2694 22.1878 16.3312 22.8261 15.9117 23.7047C15.599 24.4256 15.6142 24.756 15.3778 25.3343C15.1642 25.89 14.7676 26.6409 14.3938 27.3168C14.02 28.0002 13.6768 28.5709 13.5319 28.8938C13.3412 29.3294 13.3107 29.8025 13.303 30.2756C13.303 30.8012 13.3641 31.3194 13.4098 31.6573C12.2428 32.4909 9.73329 34.7888 9.72566 38.9566C9.72566 39.3847 9.75617 39.8352 9.80957 40.2933C8.48235 41.9304 2.74635 49.042 0.946218 53.5477C0.831803 53.8706 0.0156431 54.7117 0.00801546 56.1835V56.2136C-0.0148675 57.1448 0.290239 58.1511 1.35811 59.1273L1.72424 59.4502L1.79289 59.5028C1.83866 59.5253 1.96833 59.653 2.42599 59.9308C3.72269 60.7118 6.46102 62.6568 7.77298 65.593C7.78061 65.6231 7.80349 65.6756 7.834 65.7357C7.88739 65.8333 7.91791 65.946 8.1086 66.1187C8.25352 66.2238 8.29929 66.2163 8.34505 66.2388C8.49761 66.2764 8.61965 66.2914 8.79509 66.3139C9.29851 66.374 10.0613 66.4266 10.0613 66.4341H10.1681C10.2596 66.4191 10.3435 66.3965 10.4198 66.3665C10.4655 66.4191 10.5113 66.4716 10.5647 66.5242C11.2665 67.2076 12.5098 67.8684 14.6226 67.921C14.7828 67.921 14.9201 67.8008 14.9354 67.6431C14.9506 67.4854 14.8438 67.3352 14.6836 67.3052C14.5921 67.2677 13.8293 66.9072 12.9674 64.7444C14.2794 64.0461 16.1863 63.1825 18.3907 62.6493C18.9933 62.9346 19.5425 63.2651 19.8399 63.6255C19.8399 63.6255 18.6958 66.4942 19.3975 69.6256C19.3975 69.6256 18.0093 70.5944 17.4525 72.0212C17.361 72.0738 17.2694 72.1188 17.1855 72.1714C17.0711 71.9236 16.9643 71.6758 16.8728 71.4355C16.3999 70.2339 16.1939 69.2277 16.1939 69.2201C16.1634 69.0925 16.0566 68.9949 15.927 68.9798C15.7973 68.9648 15.6676 69.0324 15.6066 69.145C14.9125 70.5193 14.6913 71.7434 14.6913 72.7346C14.6913 72.9224 14.6989 73.0951 14.7142 73.2678C14.615 73.2302 14.5006 73.2002 14.3709 73.2002C14.3175 73.2002 14.2489 73.2002 14.1726 73.2227C13.8217 73.2828 13.6081 73.5381 13.5166 73.7033C13.4175 73.8761 13.3946 74.0037 13.3793 74.0413V74.0638C13.3793 74.0638 13.1123 75.3855 13.1123 76.9024C13.1352 78.2541 13.2573 79.8762 14.348 81.0177C15.9346 82.5796 18.7568 85.4408 18.7568 85.4408L18.7873 85.4708C18.8331 85.5084 19.2221 85.8688 19.8857 86.1091C19.4509 86.7324 19.1992 87.4909 19.1992 88.2719V88.3019C19.1992 89.3833 19.6569 90.3746 20.3968 91.0805L20.5188 91.1931C29.0542 99.4011 40.3584 104.913 52.9288 106.265C53.8517 108.668 56.2087 110.373 58.9699 110.373C61.7311 110.373 64.0804 108.675 65.0034 106.28C77.6271 104.951 88.9924 99.4236 97.5964 91.148L97.6269 91.118C97.6269 91.118 97.9396 90.7726 98.2371 90.2694C98.5346 89.7663 98.8626 89.0979 98.8702 88.332V88.2944C98.8549 87.5359 98.6337 86.8 98.2218 86.1767C98.9846 85.9514 99.5033 85.5459 99.8008 85.1704C99.9076 85.0353 99.9686 84.9226 100.052 84.7649C100.335 84.2242 100.762 83.2555 101.212 82.2943C101.654 81.3481 102.158 80.3869 102.448 80.0564C102.745 79.6509 104.004 78.7948 104.034 77.3455C104.034 77.2929 104.034 77.2403 104.034 77.2103C103.988 76.6396 103.767 76.1214 103.569 75.7084C103.47 75.5056 103.371 75.3329 103.294 75.2053C103.271 75.1677 103.256 75.1377 103.241 75.1076C103.424 74.6871 103.637 73.9962 103.637 73.0725C103.637 72.2014 103.439 71.1201 102.829 69.911C102.768 69.7909 102.638 69.7233 102.509 69.7383C102.379 69.7533 102.272 69.8509 102.242 69.9786C102.242 69.9786 102.059 70.8647 101.647 71.9161C101.479 72.3591 101.265 72.8247 101.014 73.2678C96.8794 70.309 97.5048 64.8496 97.5048 64.8496C99.6253 64.016 101.875 64.1437 103.668 64.5116C103.805 64.6168 103.95 64.7219 104.103 64.827C104.179 64.8796 104.255 64.9322 104.324 64.9772C103.904 65.8634 103.5 66.4716 103.157 66.8696C102.875 67.2076 102.638 67.4028 102.486 67.5155C102.409 67.568 102.348 67.6056 102.31 67.6281C102.295 67.6356 102.28 67.6431 102.272 67.6431C102.127 67.6957 102.043 67.8534 102.074 67.9961C102.104 68.1388 102.234 68.2364 102.379 68.2364C102.387 68.2364 102.394 68.2364 102.409 68.2364C104.56 68.0562 106.025 67.4929 107.009 66.8621C107.146 66.8922 107.291 66.9222 107.421 66.9222C107.512 66.9297 107.611 66.9372 107.703 66.9372H107.741C108.588 66.9372 109.465 66.5843 110.113 65.8559C112.249 63.4979 115.575 61.2825 117.016 59.7656C117.634 59.1123 117.947 58.3012 117.939 57.4827V57.4677L118 57.4452ZM21.8765 17.3967L21.9604 17.3216C31.5179 8.1449 44.5765 2.4902 58.9775 2.4902H59.0309C73.4319 2.4902 86.4905 8.1449 96.0403 17.3216L96.1319 17.3967C96.4599 17.7121 96.6582 18.1476 96.6582 18.6358C96.6582 19.1239 96.4751 19.5369 96.1319 19.8598L95.1479 20.8285C94.9496 21.0238 94.8504 21.2941 94.8504 21.587C94.8504 21.6696 94.858 21.7447 94.8733 21.8198C94.9877 22.2929 95.0564 22.796 95.0564 23.3067C95.0564 26.7986 92.1807 29.6373 88.6262 29.6373C88.1533 29.6373 87.6957 29.5847 87.2456 29.4946H87.2304L87.1846 29.4796C87.1007 29.457 87.0168 29.442 86.9176 29.442C86.6125 29.442 86.3456 29.5622 86.1549 29.7649H86.1396L85.2624 30.651C84.9421 30.9815 84.4997 31.1992 83.9962 31.1992C83.4928 31.1992 83.0504 30.989 82.7224 30.6435C79.2976 27.2717 75.1405 24.6284 70.5105 22.9613C66.9255 21.6546 63.0507 20.9337 59.008 20.9337C54.9654 20.9337 51.0981 21.6471 47.5207 22.9538C42.8755 24.6209 38.7108 27.2717 35.286 30.6435C34.958 30.989 34.5156 31.1992 34.0121 31.1992C33.5087 31.1992 33.0663 30.9815 32.746 30.651L31.8688 29.7724L31.8535 29.7574C31.6628 29.5622 31.3882 29.442 31.0908 29.442C30.9992 29.442 30.9153 29.457 30.8314 29.4796H30.7856L30.7704 29.4946C30.328 29.5922 29.8627 29.6373 29.3898 29.6373C25.8429 29.6373 22.9597 26.8062 22.9597 23.3067C22.9597 22.796 23.0207 22.2929 23.1427 21.8123C23.158 21.7372 23.1656 21.6621 23.1656 21.5795C23.1656 21.2866 23.0741 21.0313 22.8681 20.821L21.8765 19.8523C21.5409 19.5294 21.3502 19.1013 21.3502 18.6282C21.3502 18.1551 21.5562 17.7046 21.8842 17.3892M88.4889 33.4822C88.4889 33.4822 88.5652 36.2607 90.5484 37.3646C89.8085 37.3421 87.177 37.7551 88.4889 33.4822ZM89.595 53.4726C89.595 61.7932 86.1701 69.3178 80.6324 74.7697C75.0948 80.2216 67.4518 83.5934 59.0004 83.5934C50.5489 83.5934 42.906 80.2216 37.3683 74.7697C31.8306 69.3178 28.4058 61.7932 28.4058 53.4726C28.4058 45.152 31.8306 37.6274 37.3683 32.1755C42.906 26.7235 50.5489 23.3518 59.0004 23.3518C67.4518 23.3518 75.0948 26.7235 80.6324 32.1755C86.1701 37.6274 89.595 45.152 89.595 53.4726ZM13.6463 67.1926C12.2809 67.0048 11.48 66.5167 11.0071 66.0586C10.9613 66.0136 10.969 66.0136 10.9308 65.9685L11.1063 65.8483C11.1063 65.8483 11.4266 65.6231 12.014 65.2701C12.1436 65.195 12.2886 65.1124 12.4411 65.0223C12.8759 66.0962 13.303 66.7795 13.6539 67.2001M15.8354 70.1889C16.1405 71.2552 16.7736 73.0725 17.8491 74.3792C17.5822 74.5219 17.033 74.7622 16.4304 74.7622C16.1863 74.7622 15.9346 74.7246 15.6829 74.627C15.5151 74.199 15.332 73.5456 15.332 72.6971C15.332 71.9912 15.454 71.1501 15.8278 70.1889M19.9544 76.6321C19.9544 76.6321 19.7789 76.9775 19.8628 77.5858C19.8628 77.5858 18.2763 77.323 17.9178 76.7147C17.9178 76.7147 18.0093 78.1941 18.2686 79.3205C18.2686 79.3205 16.1482 77.0601 15.8888 76.3692C15.8888 76.3692 16.0643 79.2379 16.9491 80.7999C16.9491 80.7999 14.882 79.313 15.0421 75.2428C15.2786 75.363 15.5151 75.4531 15.7515 75.5056C15.8583 75.5282 15.9651 75.5507 16.0719 75.5582C16.0871 75.5582 16.11 75.5582 16.1253 75.5582C16.2321 75.5657 16.3312 75.5732 16.4304 75.5732C17.3304 75.5732 18.0398 75.2128 18.3373 75.04C18.5127 75.0626 18.6805 75.0701 18.8331 75.0701C19.7484 75.0701 20.3663 74.6871 20.7019 74.2966C20.8315 74.1464 20.9307 73.9962 20.9917 73.8686C21.3273 73.9286 21.6401 73.9512 21.9452 73.9512C23.2877 73.9512 24.2411 73.403 24.8361 72.8548C25.2251 72.4943 25.4768 72.1414 25.5988 71.9311C27.9558 71.3829 28.5431 69.4755 28.5507 69.4229L28.5736 69.3553V69.2877C28.2075 64.0461 25.8505 61.7631 25.7895 61.7181L25.7056 61.6355L25.5912 61.613C24.531 61.3727 23.4707 61.275 22.441 61.275C22.1969 61.275 21.9528 61.2825 21.7164 61.2976C21.6553 61.2976 21.5943 61.2976 21.5333 61.3051C21.2968 61.3201 21.0604 61.3351 20.8315 61.3576C20.5951 61.3802 20.3663 61.4102 20.1298 61.4402C20.0688 61.4477 20.0154 61.4553 19.9544 61.4628C19.7332 61.4928 19.5043 61.5304 19.2831 61.5754H19.2755C19.0543 61.6205 18.8331 61.6655 18.6119 61.7106C18.5585 61.7256 18.4975 61.7331 18.4441 61.7481C18.2305 61.8007 18.0169 61.8457 17.811 61.9058C17.811 61.9058 17.811 61.9058 17.8034 61.9058C17.5898 61.9659 17.3838 62.0185 17.1779 62.0785C17.1245 62.0936 17.0787 62.1086 17.0253 62.1236C16.827 62.1837 16.6287 62.2438 16.438 62.3113C16.438 62.3113 16.4304 62.3113 16.4228 62.3113C16.2244 62.3789 16.0337 62.4465 15.8431 62.5141C15.7973 62.5291 15.7515 62.5517 15.6981 62.5667C15.5151 62.6343 15.332 62.7018 15.1566 62.7769C14.9735 62.852 14.7981 62.9196 14.6303 62.9947C14.5845 63.0097 14.5463 63.0323 14.5006 63.0473C14.3328 63.1224 14.1726 63.19 14.0124 63.2575C14.0124 63.2575 14.0124 63.2575 14.0048 63.2575C13.8446 63.3326 13.6844 63.4077 13.5395 63.4753C13.5014 63.4903 13.4632 63.5129 13.4251 63.5279C13.2878 63.5955 13.1505 63.6631 13.0132 63.7306C13.0132 63.7306 12.9979 63.7307 12.9903 63.7382C12.853 63.8057 12.7233 63.8733 12.6013 63.9409C12.5632 63.9634 12.5326 63.9785 12.4945 64.001C12.3877 64.0611 12.2809 64.1212 12.1741 64.1737C12.1665 64.1737 12.1513 64.1887 12.1436 64.1887C11.4571 64.5717 10.9766 64.8871 10.7554 65.0298L9.02392 64.8195C8.93238 64.6318 8.84085 64.4516 8.74169 64.2638C8.72644 64.2263 8.70356 64.1962 8.6883 64.1587C8.58914 63.986 8.48998 63.8133 8.39082 63.648C8.37557 63.618 8.35268 63.588 8.33743 63.5579C8.23064 63.4002 8.13148 63.235 8.01707 63.0848C8.01707 63.0773 8.00181 63.0623 7.99418 63.0548C7.87977 62.8896 7.76535 62.7319 7.64331 62.5817C7.62043 62.5517 7.60517 62.5291 7.58229 62.4991C7.46025 62.3489 7.34583 62.1987 7.22379 62.056C7.20853 62.041 7.19328 62.026 7.18565 62.011C7.06361 61.8683 6.94156 61.7331 6.81189 61.5979C6.81189 61.5904 6.79664 61.5829 6.78901 61.5754C6.65934 61.4402 6.52967 61.3051 6.4 61.1699L6.34661 61.1173C6.21694 60.9897 6.08727 60.862 5.94997 60.7418L6.6212 60.494C7.50601 57.6254 10.5037 57.5353 10.5037 57.5353C10.1528 55.365 11.03 53.6228 11.03 53.6228L9.44344 55.0121C5.52282 55.335 3.28028 56.6266 2.03697 57.7756C1.75475 57.4076 1.59457 57.0622 1.50304 56.7393C1.50304 56.7092 1.48778 56.6867 1.48016 56.6566C1.47253 56.6116 1.45727 56.574 1.45727 56.529C1.45727 56.4914 1.44202 56.4464 1.44202 56.4088C1.44202 56.3788 1.43439 56.3488 1.42676 56.3187C1.42676 56.2436 1.41913 56.176 1.41913 56.1009C1.41913 55.5527 1.6022 55.0571 1.79289 54.7042C1.88442 54.5239 1.98358 54.3888 2.05223 54.2911C2.12088 54.1935 2.15902 54.156 2.15902 54.156L2.21241 54.0959L2.23529 54.0283C3.12773 51.7154 5.37027 48.3661 7.38397 45.6401C9.39767 42.8991 11.1749 40.7664 11.1749 40.7589L11.297 40.6162L11.2665 40.436C11.1749 39.8803 11.1368 39.3621 11.1368 38.874C11.1368 36.5761 12.0292 34.9766 12.914 33.9252C13.3564 33.4071 13.8065 33.0241 14.1345 32.7763C14.3023 32.6561 14.4396 32.566 14.5311 32.5059C14.6226 32.4458 14.6684 32.4233 14.6684 32.4233L14.9048 32.2956L14.7142 29.81C16.1024 27.4294 17.1931 24.5308 17.4525 23.8324C17.6889 23.7122 17.9254 23.5921 18.1466 23.4644C18.2153 23.4269 18.2839 23.3893 18.3526 23.3442C18.4975 23.2616 18.6424 23.179 18.7873 23.0964C18.8636 23.0514 18.9323 23.0063 19.0085 22.9613C19.1382 22.8862 19.2602 22.8036 19.3823 22.7285C19.4509 22.6834 19.5196 22.6383 19.5882 22.6008C19.7103 22.5257 19.8171 22.4506 19.9315 22.3755C19.9925 22.338 20.0459 22.3004 20.0993 22.2629C20.2137 22.1803 20.3205 22.1052 20.4273 22.0301C20.4654 22 20.5112 21.97 20.5493 21.9475C20.8163 21.7522 21.0604 21.5795 21.2587 21.4293L21.5028 21.6771C21.396 22.1878 21.3426 22.7134 21.3426 23.2466V23.2616C20.4273 23.7272 19.4281 24.1628 18.3449 24.5533L16.6668 27.8124C16.6668 27.8124 18.7873 27.6397 19.4052 30.5985C19.4052 30.5985 20.7095 28.7962 22.769 27.7524C22.8605 27.88 22.952 28.0077 23.0512 28.1278C22.1435 28.7586 21.2129 29.7048 20.8163 31.034L21.6096 31.3795C21.6096 31.3795 23.0054 30.2831 24.6377 29.6373C24.9429 29.855 25.2708 30.0578 25.6065 30.2305C24.6072 30.7712 23.5089 31.4696 23.1122 32.0704L23.6385 32.596C23.6385 32.596 26.0184 31.2894 26.4684 33.8126C26.9108 36.3358 24.1725 36.7713 23.3792 36.7713C23.3792 36.7713 23.4707 37.7251 24.4394 38.6788C24.4394 38.6788 22.3189 40.3309 19.3213 38.6788C16.3236 37.0267 15.2862 37.2219 12.731 37.8302C12.731 37.8302 11.7928 39.1368 12.3496 40.6913C11.7699 41.247 11.4648 41.187 10.8393 42.8841C10.5876 43.9805 9.43581 44.769 9.43581 44.769C9.43581 44.769 12.525 45.0319 15.0879 42.2458C15.0879 42.2458 17.033 44.3335 19.9467 40.7664C19.9467 40.7664 22.2427 42.764 25.9497 40.5036C25.9497 40.5036 24.1877 42.4185 21.0985 42.3284C21.0985 42.3284 22.6012 43.7177 23.1275 45.1069C23.1275 45.1069 21.9833 44.0631 19.245 43.8003C19.245 43.8003 19.5959 45.7978 20.8315 47.0144C20.8315 47.0144 19.245 45.7077 16.3312 46.2334C16.3312 46.2334 18.8941 49.883 22.7766 50.2285C22.7766 50.2285 21.2739 50.7466 20.5722 51.5351C20.5722 51.5351 22.0749 52.4888 24.3708 51.7079C24.3708 51.7079 21.9909 53.0145 20.9307 53.4501C20.9307 53.4501 22.5173 53.9682 25.965 52.9319C25.965 53.0896 25.965 53.2548 25.965 53.4125C25.965 53.5477 25.965 53.6829 25.965 53.818C25.9192 54.4263 25.7743 55.2674 25.3471 56.0559C25.3471 56.0559 23.7606 54.6666 22.1664 54.3137C22.1664 54.3137 24.0199 56.8369 22.9597 59.7055C22.9597 59.7055 23.6233 60.7118 26.2243 60.6067C26.4303 60.5992 26.6057 60.5992 26.7582 60.6067C27.5363 64.0085 28.8559 67.2076 30.6255 70.1063C30.0534 70.309 29.5347 70.4442 29.222 70.4893L30.8085 71.3604C30.8085 71.3604 28.2456 72.2315 27.1015 72.4042C27.1015 72.4042 27.7193 73.0125 28.2456 73.3579C28.2456 73.3579 25.1564 74.7472 23.9207 74.6646C23.9207 74.6646 24.6301 75.363 24.981 75.4456C24.981 75.4456 22.952 75.9637 22.3342 75.6183L22.1588 77.0075C22.1588 77.0075 20.3968 77.1803 19.9544 76.572M22.624 63.8508C22.891 63.5654 23.5775 63.5279 23.8597 63.7457C24.5386 64.2638 24.0352 64.7369 23.4936 65.7282C22.6317 67.3352 23.7835 68.4391 22.9444 70.0537C22.0977 71.6683 21.0451 72.1188 20.6637 71.8335C20.0993 71.4054 20.9307 70.5193 21.2129 69.8059C21.8155 68.2814 20.473 66.0811 22.6164 63.8433M17.4525 39.7601C17.4525 39.7601 17.4983 39.7451 17.5516 39.7226C17.7271 39.7827 17.8796 39.8427 17.9788 39.8728C18.2229 41.645 17.8873 42.4936 17.1245 42.7114C16.3083 42.9367 14.8896 42.0355 14.4853 39.9329C14.6684 39.8728 14.8667 39.8127 15.065 39.7601C15.332 40.5712 15.9117 41.8628 16.7202 42.3059C16.7202 42.3059 16.888 42.2158 16.8728 42.0055C16.827 41.3897 16.6516 40.0831 17.4601 39.7526M96.4217 89.2631C96.3531 89.3458 96.2005 89.5335 96.1471 89.6011C87.4363 98.4849 75.5524 103.381 63.3329 104.297C63.1575 106.505 61.2887 108.24 59.008 108.247C56.7273 108.24 54.8586 106.498 54.6831 104.297C42.4636 103.374 30.5797 98.4774 21.8689 89.6011C21.8155 89.5335 21.663 89.3458 21.5943 89.2631C21.3655 88.9703 21.3045 88.6774 21.3045 88.2794C21.3045 87.6786 21.7545 87.1905 22.0901 86.8526C22.4257 86.5146 22.8605 86.0866 22.8605 86.0866C22.8605 86.0866 23.0359 85.8763 23.097 85.6811C23.158 85.4783 23.1198 85.2906 23.097 85.208C22.9673 84.7124 22.891 84.1867 22.891 83.646C22.891 80.1916 25.7209 77.3905 29.2296 77.383C29.7712 77.383 30.2975 77.4506 30.8009 77.5783C30.8924 77.6008 30.9992 77.6233 31.2738 77.5783C31.6018 77.5257 31.6933 77.3605 31.7772 77.2779C31.8611 77.1953 32.3188 76.6921 32.7231 76.3317C33.135 75.9712 33.524 75.6633 34.0884 75.6633C34.7215 75.6633 35.1792 76.0163 35.5987 76.4819C38.5735 79.5308 42.1432 81.8287 46.0181 83.3907C49.9997 85.0653 54.3933 85.9965 59.0004 85.9965C63.6075 85.9965 67.9781 85.0728 71.9522 83.3982C75.8346 81.8362 79.4196 79.5308 82.3944 76.4819C82.814 76.0163 83.2716 75.6633 83.9047 75.6633C84.4768 75.6633 84.7819 75.9036 85.2701 76.3317C85.7582 76.7597 86.0939 77.1427 86.2159 77.2779C86.3379 77.4131 86.3913 77.5107 86.7193 77.5783C86.9329 77.6233 87.1007 77.6008 87.1922 77.5783C87.6957 77.4506 88.222 77.383 88.7635 77.383C92.2723 77.383 95.1098 80.1916 95.1021 83.646C95.1021 84.1867 95.0259 84.7048 94.8962 85.208C94.8733 85.2906 94.8352 85.4708 94.8962 85.6811C94.9572 85.8763 95.1326 86.0866 95.1326 86.0866C95.1326 86.0866 95.6056 86.5447 95.903 86.8526C96.2005 87.1605 96.6887 87.6786 96.6887 88.2794C96.6887 88.6774 96.6277 88.9703 96.3988 89.2631M102.669 70.9699C102.959 71.7584 103.058 72.4568 103.058 73.0425C103.058 73.7334 102.92 74.2816 102.783 74.6496C102.768 74.6946 102.753 74.7322 102.737 74.7697L102.448 74.8598C102.142 74.9574 101.609 75.0175 101.364 75.01C101.12 75.01 100.838 74.9574 100.609 74.9049C101.715 73.7859 102.356 72.0287 102.669 70.9699ZM101.303 75.8286C101.685 75.8286 102.043 75.7985 102.387 75.7384C102.493 75.9337 102.646 76.2416 102.806 76.6696C103.05 77.6759 102.608 77.7585 102.364 77.8561C99.7779 78.8849 99.694 82.2117 98.1837 81.5959C96.3912 80.86 98.5575 75.9863 98.5575 75.9863C98.5575 75.9863 95.0487 77.2704 94.3089 76.7222C93.569 76.174 94.9343 74.6345 94.9343 74.6345C94.9343 74.6345 91.8833 75.3855 91.2654 74.965C90.6476 74.5369 91.7154 72.9974 91.7154 72.9974C91.7154 72.9974 89.6331 73.9737 88.7025 73.4856C87.7719 72.9975 89.5797 71.2778 89.5797 71.2778C89.5797 71.2778 87.5889 72.0963 86.971 71.6082C86.8261 71.4955 86.788 71.3003 86.8109 71.075C87.6499 69.7909 88.405 68.4391 89.0534 67.0424C89.0534 67.0424 89.0534 67.0574 89.0534 67.0649C89.0305 67.1926 89.0076 67.3277 88.9847 67.4554C88.9161 67.8985 88.8703 68.349 88.8703 68.7771C88.8703 69.5881 89.0076 70.3691 89.5187 70.9473C90.2586 71.7584 92.1502 72.9223 94.408 73.9587C96.6582 74.98 99.2363 75.8361 101.311 75.8361M97.993 73.4706C97.932 73.5306 95.6742 72.9524 94.408 70.6695C93.1418 68.3866 95.0411 68.0787 93.569 67.0424C92.0968 66.0061 91.8299 64.6393 93.0427 64.2413C93.6758 64.0385 94.2021 64.1362 95.2547 64.7595C96.3073 65.3828 96.0937 66.4191 96.2005 69.4304C96.3073 72.4417 98.054 73.418 97.993 73.4781M103.493 67.4704C103.897 67.0349 104.393 66.3515 104.904 65.3001C105.537 65.6982 106.2 66.0436 106.887 66.2163C106.155 66.727 105.079 67.2076 103.493 67.4704ZM116.566 57.6554C116.566 57.7305 116.551 57.7906 116.536 57.8507L115.529 57.0396L114.987 57.5728C112.47 55.4476 110.403 55.9808 110.403 55.9808L107.886 57.5728C111.288 57.7756 112.066 60.1486 112.127 62.0861C112.127 62.0861 112.127 62.0861 112.119 62.0936C111.868 62.3038 111.624 62.5141 111.372 62.7244C111.349 62.7469 111.319 62.7694 111.296 62.792C111.067 62.9947 110.838 63.1975 110.609 63.4002C110.586 63.4228 110.563 63.4378 110.548 63.4603C110.319 63.6706 110.098 63.8808 109.885 64.0986C109.839 64.1437 109.793 64.1887 109.747 64.2413C109.526 64.4591 109.312 64.6844 109.114 64.9021C108.695 65.3527 108.275 65.5104 107.772 65.5104C107.032 65.5179 106.124 65.0974 105.247 64.5342C105.041 64.4065 104.843 64.2713 104.644 64.1287C103.576 63.3852 102.699 62.5967 102.028 62.3113C101.296 62.026 99.4652 61.5754 97.2379 61.5754C97.1006 61.5754 96.9557 61.5754 96.8184 61.5754C96.7497 61.5754 96.6811 61.5754 96.6124 61.5829C96.5361 61.5829 96.4675 61.5829 96.3912 61.5904C96.2997 61.5904 96.2081 61.6054 96.1166 61.6054C96.0632 61.6054 96.0174 61.6054 95.9641 61.613C95.8573 61.6205 95.7505 61.6355 95.6361 61.643C95.6056 61.643 95.5674 61.643 95.5293 61.6505C95.4072 61.6655 95.2852 61.6805 95.1631 61.6956C95.1403 61.6956 95.125 61.6956 95.1021 61.7031C94.9725 61.7256 94.8352 61.7481 94.7055 61.7707C94.6979 61.7707 94.6902 61.7707 94.675 61.7707C93.2181 62.0335 91.746 62.5667 90.434 63.5279C90.5865 63.0773 90.7238 62.6192 90.8535 62.1612C92.6765 61.275 95.6513 60.3664 99.7703 60.8169C99.7703 60.8169 97.2226 60.0209 93.363 60.2537L92.707 59.4802C92.707 59.4802 92.0816 59.7881 91.2959 60.3964C91.3722 60.0585 91.4408 59.713 91.5095 59.3676C92.4782 58.7668 93.5156 58.5115 93.5156 58.5115L94.2326 56.2136C94.0114 56.1986 93.1876 55.8006 92.0129 55.1773C92.0358 54.7642 92.0434 54.3587 92.0511 53.9457C93.6834 54.6516 95.0411 55.2449 95.5827 55.5152C95.5827 55.5152 95.0487 53.833 98.0998 53.4801C98.0998 53.4801 95.2776 53.007 92.0434 52.3837C92.0358 52.1434 92.0282 51.9106 92.0129 51.6778C96.0708 52.1659 100.098 52.0082 102.592 50.2134C102.592 50.2134 100.434 50.6565 98.0083 50.4838C98.0083 50.4838 100.342 49.7779 102.234 47.5626C102.234 47.5626 100.075 48.6214 96.8412 48.3586C96.8412 48.3586 100.075 46.7666 101.067 45.3548C101.067 45.3548 97.1997 46.8567 94.5072 46.8567C94.5072 46.8567 97.0243 45.8804 98.0998 44.8216L94.8046 45.0919L95.6895 43.7627C95.6895 43.7627 91.3569 42.5161 90.4645 38.9791L92.0587 39.1744C92.0587 39.1744 90.7315 34.4133 93.5919 33.0391C93.2257 32.6786 90.6705 31.9577 90.6705 31.9577C90.6705 31.9577 93.6376 31.77 94.9877 32.3032C94.9877 32.3032 94.7436 31.8376 94.08 31.3645C93.4164 30.8838 92.5316 30.576 92.5316 30.576C92.5316 30.576 95.8573 30.3957 96.8412 31.372C96.8412 31.372 95.8496 29.5997 95.0487 28.9839C95.0487 28.9839 97.0243 29.6072 98.1913 30.9289L98.9999 30.8388C98.9999 30.8388 98.8244 28.9839 97.9244 27.4745C97.9244 27.4745 99.7245 28.8037 100.533 30.9214C100.533 30.9214 101.181 31.8075 102.913 31.6273L102.882 31.7399L102.936 31.8751C102.936 31.8751 103.195 32.5209 103.615 33.2494C104.011 33.9402 104.538 34.7212 105.224 35.1793C105.316 35.4271 105.529 35.9678 105.857 36.5761C106.269 37.327 106.849 38.1831 107.673 38.6863V38.7313C107.673 39.1819 107.688 40.0981 107.802 41.0293C107.924 41.9604 108.1 42.8916 108.58 43.4924C109.435 44.4987 113.088 49.8905 115.72 54.8318C116.277 55.8757 116.605 56.7468 116.597 57.4376C116.597 57.5052 116.597 57.5728 116.589 57.6404M59.0004 26.0552C43.623 26.0552 31.1518 38.3258 31.1518 53.4726C31.1518 68.6194 43.6154 80.89 59.0004 80.89C74.3854 80.89 86.8414 68.6119 86.8414 53.4726C86.8414 38.3333 74.3778 26.0552 59.0004 26.0552ZM75.0643 69.6707H47.6047V66.0811H48.8327C50.1752 66.0811 51.243 64.9847 51.243 63.6631L51.2202 40.4435C51.2202 39.1143 50.1294 38.048 48.7869 38.048H47.6352V35.3295H63.5694V38.0705H62.2955C60.9531 38.0705 59.8471 39.1669 59.8471 40.4961V65.3152H67.7951C68.8782 65.3152 69.8698 64.2788 69.7707 63.1975C69.7401 62.8671 69.702 62.3789 69.702 62.0335C69.702 59.9684 70.9224 58.151 72.7378 57.2424L74.5379 59.0146C73.5997 59.8557 73.0124 61.0723 73.0124 62.424C73.0124 64.016 73.8286 65.4203 75.0795 66.2464V69.6782L75.0643 69.6707ZM10.0765 61.1474C10.0765 61.1474 9.24512 61.8082 9.29851 62.1011C9.39767 62.6793 10.0613 62.3038 10.2291 62.1311C13.1123 59.1949 18.3678 57.3475 18.3144 57.0471C18.261 56.7468 13.7683 58.0309 10.0765 61.1474ZM89.3204 88.0316L83.9047 81.6785L82.936 82.4745L89.0534 89.6536L91.6468 87.5134L90.9374 86.6874L89.3127 88.0316H89.3204ZM58.4741 90.5623L56.5672 99.9718L57.8028 99.9492L58.1232 98.1169L60.0149 98.0869L60.4039 99.9117L61.6777 99.8892L59.4657 90.5548L58.4664 90.5698L58.4741 90.5623ZM59.8089 97.1181L58.291 97.1407L58.9622 92.3646H58.9851L59.5267 95.7589L59.8013 97.1106L59.8089 97.1181ZM65.0949 90.0967L60.9454 90.5998L61.0827 91.6737L62.5625 91.4935L63.5922 99.724L64.8432 99.5738L63.8134 91.3433L65.2322 91.1706L65.0949 90.0967ZM59.0004 101.293C57.5359 101.293 56.346 102.465 56.346 103.907C56.346 105.349 57.5359 106.52 59.0004 106.52C60.4649 106.52 61.6548 105.356 61.6548 103.907C61.6548 102.465 60.4649 101.293 59.0004 101.293ZM59.0004 105.964C57.841 105.964 56.9104 105.041 56.9104 103.907C56.9104 102.765 57.8486 101.849 59.0004 101.849C60.1522 101.849 61.0904 102.773 61.0904 103.907C61.0904 105.041 60.1522 105.964 59.0004 105.964ZM70.6021 88.6999C68.2756 89.4434 69.2291 92.4172 69.7554 94.0317C70.2893 95.6388 71.2886 98.5975 73.6226 97.8541C75.9491 97.1106 74.9956 94.1369 74.4617 92.5223C73.9354 90.9153 72.9285 87.9565 70.6021 88.6999ZM73.2489 96.7427C72.303 97.0431 71.6471 95.5186 71.0216 93.6262C70.3961 91.7338 70.0071 90.1192 70.9606 89.8189C71.9064 89.5185 72.5624 91.0429 73.1802 92.9353C73.8057 94.8277 74.1947 96.4423 73.2412 96.7427M15.6447 47.1195C15.4006 52.0308 19.5577 50.3937 19.5577 50.3937C16.9186 49.5301 15.6447 47.1195 15.6447 47.1195ZM79.9993 84.5171L83.4471 93.491L84.4844 92.8302L83.7674 91.1105L85.354 90.0967L86.6583 91.4409L87.7262 90.7576L80.8231 83.9914L79.9841 84.5246L79.9993 84.5171ZM81.4181 85.7787L83.7064 88.377L84.6675 89.3758L83.3937 90.1868L81.3952 85.7862L81.4181 85.7712V85.7787ZM66.0255 89.939L67.8409 99.1382L69.0765 98.8979L67.2611 89.6987L66.0255 89.939ZM59.5725 103.959C59.8699 103.839 60.0835 103.584 60.0835 103.178C60.0835 102.638 59.6564 102.262 58.9622 102.262C58.6724 102.262 58.3825 102.315 58.1156 102.435L58.0698 102.457V105.349H58.6571V104.125H58.8173C59.008 104.125 59.0919 104.192 59.1834 104.365L59.664 105.349H60.3123L59.7631 104.23C59.7098 104.132 59.6564 104.034 59.5877 103.959M58.9012 103.621H58.6571V102.81C58.741 102.788 58.8555 102.78 58.9699 102.78C59.3818 102.788 59.4962 102.938 59.5114 103.193C59.5038 103.509 59.3436 103.606 58.9089 103.621M99.5719 54.6741C99.5338 54.8769 100.67 55.1322 102.12 56.0108C103.523 56.8594 105.209 58.3163 107.093 59.9308C107.261 60.0435 107.07 60.2988 107.017 60.2612C102.028 56.4464 97.1235 55.8832 97.1769 56.514C97.1997 56.7693 98.3134 56.7768 99.7016 57.2874C101.731 58.0309 104.499 59.4352 106.551 60.8995C106.696 60.9897 106.536 61.1399 106.444 61.1173C100.67 59.1123 95.4454 57.9633 95.514 58.6542C95.5445 58.9471 97.1768 58.9771 99.1906 59.5328C101.975 60.2988 105.621 61.673 108.031 62.5742C108.1 62.5516 108.435 62.6643 109.129 62.071C109.694 61.5604 109.61 61.29 109.61 61.29C104.179 55.4776 99.7016 53.9983 99.5719 54.6741ZM33.0053 80.7774L26.6362 87.7462L27.5744 88.5798L33.9435 81.6184L33.0053 80.7849V80.7774ZM37.4827 84.2092L35.5377 86.9502L33.6003 90.1943H33.5621L35.8886 83.1128L34.897 82.4295L29.4356 90.1042L30.4729 90.8176L32.479 87.994L34.1571 85.3131L34.4469 84.7724H34.4851L32.0976 91.9366L33.0587 92.5974L38.5201 84.9226L37.4827 84.2092ZM21.0451 57.31C20.3052 55.0196 18.5661 54.4338 18.5661 54.4338C20.5112 58.0835 19.1153 60.5541 19.1153 60.5541C19.1153 60.5541 21.1824 60.7944 22.4639 59.7431C23.4783 56.6942 21.1519 54.1184 21.1519 54.1184C21.457 55.5152 21.0527 57.31 21.0527 57.31M54.4619 93.6938L54.2331 97.4561L54.2026 97.4786L53.0127 90.1192L51.8075 89.954L50.4803 99.2358L51.7312 99.4086L52.2194 95.9992L52.4787 92.8602V92.2444L52.5169 92.2219L53.6992 99.6789L54.8586 99.8366L56.1858 90.5548L54.9348 90.3821L54.4619 93.6938ZM48.4513 89.143L46.9868 88.76L44.5231 97.8165L45.7435 98.1395L46.9487 93.7088H46.9716L47.4216 98.5825L48.6878 98.9204L48.192 94.0693C49.2522 94.1594 49.8624 92.9278 50.0913 92.0717C50.7091 89.8038 49.3285 89.3908 48.4437 89.1505M48.7335 91.9816C48.4818 92.8903 48.0089 93.3859 47.1165 93.0855L47.9326 90.0967L48.131 90.1493C49.0615 90.3671 48.9776 91.118 48.7412 91.9816M44.1646 93.1907L44.5765 92.1844L42.8069 91.4785L43.9281 88.745L45.9037 89.5335L46.3156 88.5347L43.1654 87.2806L39.5956 95.9692L42.7458 97.2233L43.1577 96.217L41.1822 95.4285L42.395 92.4772L44.1646 93.1831V93.1907ZM42.0746 88.0316L42.5933 87.0779L38.9015 85.1479L38.3828 86.1016L39.6948 86.7925L35.7436 94.1143L36.8573 94.7001L40.8084 87.3783L42.067 88.0391L42.0746 88.0316Z" fill="white"/>
</g>
<defs>
<clipPath id="clip0_22844_1309">
<rect width="118" height="110" fill="white" transform="translate(0 0.334961)"/>
</clipPath>
</defs>
</svg>
