<svg width="164" height="50" viewBox="0 0 164 50" fill="none" xmlns="http://www.w3.org/2000/svg">
<g clip-path="url(#clip0_22844_1469)">
<path d="M51.1328 46.0516V35.6885H55.4091C57.487 35.6885 58.3505 36.9618 58.3978 38.2481C58.4581 39.5365 57.8057 40.6571 56.503 40.9001C57.9736 40.9905 58.99 42.1735 58.9297 43.5221C58.8694 44.7954 57.8531 46.0516 55.5017 46.0516H51.1328ZM52.5432 40.4291H55.0603C55.9561 40.4291 56.9875 40.0204 56.9875 38.5664C56.9875 37.1124 56.0314 36.8543 55.3941 36.8543H52.5432V40.4291ZM52.5432 44.8836H55.4845C56.2877 44.8836 57.4719 44.733 57.4719 43.3242C57.4719 41.9154 56.1219 41.582 55.1507 41.582H52.541V44.8836H52.5432Z" fill="white"/>
<path d="M64.1276 38.0674C66.5543 38.0674 67.9647 40.0075 67.9647 42.1885C67.9647 44.5373 66.2959 46.2193 64.1276 46.2193C61.9593 46.2193 60.2905 44.5373 60.2905 42.1735C60.2905 40.0075 61.716 38.0674 64.1276 38.0674ZM66.6469 42.1563C66.6469 40.5345 65.6758 39.2332 64.1297 39.2332C62.5837 39.2332 61.6277 40.5366 61.6277 42.1412C61.6277 43.7458 62.5988 45.0342 64.1297 45.0342C65.6607 45.0342 66.6469 43.7458 66.6469 42.1563Z" fill="white"/>
<path d="M74.7882 44.4298C74.1508 45.8537 73.1345 46.2172 72.3012 46.2172C70.359 46.2172 69.5408 45.0062 69.5408 42.6876V38.218H70.8908V42.565C70.8908 44.1717 71.3452 45.0794 72.6651 45.0794C73.9851 45.0794 74.7581 43.6404 74.7581 42.352V38.2158H76.1383V46.0473H74.7882V44.4255V44.4298Z" fill="white"/>
<path d="M80.4598 43.8985C80.4598 44.4749 80.9142 44.8535 81.5666 44.8535C82.219 44.8535 82.6734 44.4749 82.6734 43.9286V43.3522H83.8706V44.034C83.8706 45.1697 83.0373 46.0645 81.8228 46.0645H81.3685C79.9129 46.0645 79.0947 45.3224 79.0947 43.7006V39.3988H77.5164V38.218H79.0947V36.2327H80.4448V38.218H83.1751V39.3988H80.4598V43.8985Z" fill="white"/>
<path d="M85.3435 37.0974V35.7488H86.784V37.0974H85.3435ZM85.3736 46.0516V38.2352H86.7388V46.0516H85.3736Z" fill="white"/>
<path d="M94.7013 50.0048V44.6275C94.1243 45.6127 93.2307 46.2192 92.0765 46.2192C90.0891 46.2192 88.739 44.477 88.739 42.2207C88.739 39.9644 90.0439 38.0845 92.0292 38.0845C93.3943 38.0845 94.3202 38.9018 94.7142 39.8117V38.2522H96.0342V50.0091H94.6992L94.7013 50.0048ZM92.3651 45.1265C93.7453 45.1265 94.6863 43.7478 94.6863 42.126C94.6863 40.5967 93.8228 39.1879 92.4103 39.1879C90.9978 39.1879 90.1192 40.5817 90.1192 42.1583C90.1192 43.7349 90.9827 45.1287 92.3629 45.1287L92.3651 45.1265Z" fill="white"/>
<path d="M103.314 44.4298C102.677 45.8537 101.661 46.2172 100.827 46.2172C98.8851 46.2172 98.0669 45.0062 98.0669 42.6876V38.218H99.417V42.565C99.417 44.1717 99.8713 45.0794 101.191 45.0794C102.511 45.0794 103.284 43.6404 103.284 42.352V38.2158H104.664V46.0473H103.314V44.4255V44.4298Z" fill="white"/>
<path d="M112.838 43.4145H114.113C113.734 45.3546 112.308 46.2021 110.504 46.2171C108.245 46.2472 106.652 44.4899 106.652 42.1412C106.652 39.9601 108.047 38.0652 110.414 38.0652C112.946 38.0652 114.1 39.9128 114.19 42.2466H108.002C108.017 43.8232 109.094 45.1245 110.534 45.1245C111.626 45.1395 112.522 44.548 112.84 43.4123L112.838 43.4145ZM112.763 41.3389C112.519 40.0956 111.671 39.188 110.396 39.188C109.122 39.188 108.288 40.0978 108.075 41.3389H112.761H112.763Z" fill="white"/>
<path d="M22.8415 29.2659C19.6181 29.8359 15.7918 28.8916 12.239 26.7149C11.6059 27.444 10.8329 28.0764 9.88546 28.5797C8.43418 29.3498 7.13578 29.6659 6.00748 29.6659C4.09756 29.6659 2.68073 28.7583 1.84958 27.6097C0.264803 25.42 0.566256 22.1184 2.52139 20.2493C3.29441 19.5115 5.86968 17.623 10.2386 19.8922C10.5099 17.9435 10.4668 15.6528 10.4238 13.3943C10.3333 8.63221 10.2472 4.13251 13.2682 1.96439C15.1286 0.628681 17.6694 0.564154 21.0349 1.76651L19.504 6.04252C16.9481 5.13053 16.1148 5.51339 15.921 5.6532C14.8379 6.43183 14.9133 10.4067 14.9693 13.3104C15.0274 16.3131 15.0898 19.7115 14.2953 22.6454C16.9825 24.3726 19.8442 25.1856 22.0512 24.7963C23.2786 24.579 24.1786 24.0155 24.7299 23.1207L28.6035 25.4975C27.3611 27.5172 25.3694 28.8206 22.8436 29.268L22.8415 29.2659ZM8.44925 24.0843C7.50398 23.5423 6.77834 23.3423 6.28741 23.3423C5.99241 23.3423 5.78139 23.4154 5.66297 23.5294C5.31199 23.8671 5.29261 24.6156 5.53377 24.949C5.77924 25.2888 6.69221 25.1318 7.75161 24.5683C8.00569 24.4328 8.23824 24.2715 8.4471 24.0843H8.44925Z" fill="white"/>
<path d="M52.9759 19.064C52.9759 25.4328 48.1332 29.8809 41.1976 29.8809C34.2621 29.8809 29.3721 25.4328 29.3721 19.064C29.3721 12.6951 34.2362 8.24707 41.1976 8.24707C48.1591 8.24707 52.9759 12.6951 52.9759 19.064ZM47.9222 19.064C47.9222 14.7041 45.2823 11.8864 41.1976 11.8864C37.113 11.8864 34.4279 14.7041 34.4279 19.064C34.4279 23.4239 37.085 26.2416 41.1976 26.2416C45.3103 26.2416 47.9222 23.4239 47.9222 19.064Z" fill="white"/>
<path d="M62.4331 29.4401L52.8081 8.68384H58.2041L58.2235 8.73116L65.1849 25.0931L72.1657 8.68384H77.5617L77.5122 8.79138L67.9152 29.4831H62.4525L62.4309 29.4401H62.4331Z" fill="white"/>
<path d="M94.1177 0.417857V4.06149L94.023 4.03568C93.0303 3.76682 92.0506 3.64207 90.9438 3.64207C87.574 3.64207 85.7912 4.98638 85.7912 7.52876V8.68164H93.5622V12.321H85.7912V29.4809H80.8753V12.3231H78.1924V8.68379H80.8753V7.41261C80.8753 1.29113 86.0474 0.00488281 90.3883 0.00488281C91.7965 0.00488281 93.0325 0.138239 94.0617 0.402801L94.1199 0.417857H94.1177Z" fill="white"/>
<path d="M112.519 19.6105C114.126 21.3829 115.851 24.4909 115.56 29.537L111.023 29.2767C111.126 27.4721 110.896 25.8847 110.351 24.5748C108.155 27.642 104.787 29.3907 100.942 29.3133C97.5997 29.2573 95.2505 26.9989 95.229 23.8198C95.2053 20.2063 98.3749 16.2702 104.298 16.0959C105.646 16.0594 106.981 16.2788 108.232 16.7326C108.168 15.5109 107.782 14.4182 107.083 13.6697C105.043 11.4801 99.2319 13.332 96.7363 14.5731L94.7036 10.5122C95.7953 9.96585 105.515 5.32204 110.409 10.5767C112.479 12.7986 113.226 16.2078 112.519 19.6127V19.6105ZM107.121 21.1871C106.327 20.8279 105.459 20.6322 104.598 20.6322C104.542 20.6322 104.486 20.6322 104.43 20.6344C101.021 20.7354 99.7637 22.6218 99.7723 23.7897C99.7745 24.2371 99.9187 24.7555 101.013 24.7727C104.445 24.8265 106.273 22.6648 107.121 21.1871Z" fill="white"/>
<path d="M118.096 29.483V8.68371H123.012V29.483H118.096ZM118.141 3.3301C118.141 1.97933 119.237 0.884521 120.59 0.884521C121.942 0.884521 123.038 1.97933 123.038 3.3301C123.038 4.68087 121.942 5.77569 120.59 5.77569C119.237 5.77569 118.141 4.68087 118.141 3.3301Z" fill="white"/>
<path d="M139.758 25.8223V29.466L139.7 29.481C138.664 29.7348 137.46 29.8789 136.397 29.8789C131.321 29.8789 128.41 27.1796 128.41 22.4712V12.3232H125.312V8.6839H128.41V3.05713H133.326V8.6839H139.478V12.3232H133.326V22.3938C133.326 25.1254 134.336 26.2418 136.812 26.2418C137.686 26.2418 138.645 26.1084 139.661 25.8481L139.756 25.8245L139.758 25.8223Z" fill="white"/>
<path d="M163.833 16.9239V29.4443H158.917V17.5971C158.917 12.8781 156.191 11.8865 153.905 11.8865C150.733 11.8865 147.318 13.9341 147.318 18.4295V29.4443H142.402V0.400635H147.318V12.151C149.038 9.59577 151.838 8.24715 155.429 8.24715C159.262 8.24715 163.831 9.75278 163.831 16.9218L163.833 16.9239Z" fill="white"/>
</g>
<defs>
<clipPath id="clip0_22844_1469">
<rect width="163" height="50" fill="white" transform="translate(0.833252 0.00488281)"/>
</clipPath>
</defs>
</svg>
