<svg width="179" height="36" viewBox="0 0 179 36" fill="none" xmlns="http://www.w3.org/2000/svg">
<g clip-path="url(#clip0_22844_1530)">
<path d="M31.7575 0.00488281H10.807L0.333252 18.0049L10.807 36.0049H31.7546L42.2284 18.0049L31.7575 0.00488281ZM29.9493 4.04216L32.0498 8.05953L30.6399 10.7548H23.6192L27.1267 4.045H29.9464L29.9493 4.04216ZM15.7817 4.04216H26.3243L21.0573 14.1154H10.5148L15.7817 4.04216ZM13.005 31.9676L11.618 29.3149L12.6926 26.2841H13.8245L13.3144 27.7256H14.9593L15.4694 26.2841H16.9681L16.458 27.7256H18.1029L18.613 26.2841H19.7133L17.7017 31.9676H13.005ZM29.0524 31.9676H18.5098L21.3783 23.8305H31.9208L29.0524 31.9676ZM21.3811 23.0401L10.5148 14.903H21.0573L31.9237 23.0401H21.3811Z" fill="white"/>
<path d="M62.2504 12.9953V12.674C62.2504 10.7236 61.6859 10.3227 58.9091 10.3227C55.6481 10.3227 55.0033 10.7236 55.0033 12.7536C55.0033 14.0359 55.3271 14.6244 56.1897 14.8917C56.6482 15.0253 56.8086 15.0253 59.6112 15.1845C62.6287 15.3722 63.6517 15.5598 64.5142 16.1739C65.6175 16.9217 65.9958 17.9651 65.9958 20.2368C65.9958 22.5085 65.6719 23.6571 64.8925 24.4333C63.815 25.4767 62.4424 25.7696 58.6971 25.7696C55.436 25.7696 54.3327 25.5819 53.1464 24.8882C52.473 24.4873 51.9084 23.6315 51.7193 22.6961C51.5588 21.92 51.5302 21.3854 51.5044 19.9696H54.817C54.817 21.3058 54.8973 21.7607 55.1953 22.2156C55.6251 22.9378 56.0578 23.0174 58.8604 23.0174C60.8807 23.0174 61.4452 22.9378 61.9581 22.5369C62.4166 22.2156 62.6058 21.5219 62.6058 20.2908C62.6058 19.0597 62.3364 18.5537 61.6085 18.312C61.322 18.2059 60.1814 18.0902 58.187 17.9651C55.1151 17.7775 54.4703 17.6723 53.5533 17.243C52.1262 16.5492 51.5588 15.2641 51.5588 12.8048C51.5588 10.6923 52.0173 9.38449 52.9859 8.68792C54.0892 7.86056 55.4905 7.6189 58.8317 7.6189C62.173 7.6189 63.6546 7.96576 64.5429 8.95518C65.2421 9.73136 65.5659 10.8004 65.5659 12.3499V12.9925H62.2533L62.2504 12.9953Z" fill="white"/>
<path d="M70.7613 15.2413H79.1403V17.7546H70.7613V22.7785H79.6791V25.6103H67.314V7.78369H79.5988V10.6155H70.7642V15.2384L70.7613 15.2413Z" fill="white"/>
<path d="M81.1347 7.78369H89.9694C94.305 7.78369 95.7894 9.11997 95.7894 13.1032C95.7894 16.6572 95.1704 17.621 92.557 18.1271V18.2607C94.6317 18.3943 95.6003 19.489 95.6003 21.735V25.6103H92.1243V22.4032C92.1243 21.2801 91.9638 20.6916 91.4767 20.2395C90.9924 19.8131 90.5081 19.6794 89.4278 19.6794H84.5792V25.6131H81.1318V7.78369H81.1347ZM89.4048 16.7652C90.4823 16.7652 91.1844 16.606 91.5884 16.2307C92.153 15.7758 92.2876 15.2413 92.2876 13.7174C92.2876 11.204 91.8578 10.7235 89.6484 10.7235H84.5849V16.7652H89.4077H89.4048Z" fill="white"/>
<path d="M104.813 25.6103H101.366V10.7775H96.1677V7.78369H110.123V10.8031H104.816V25.6103H104.813Z" fill="white"/>
<path d="M114.324 15.2413H122.703V17.7546H114.324V22.7785H123.242V25.6103H110.877V7.78369H123.162V10.6155H114.327V15.2384L114.324 15.2413Z" fill="white"/>
<path d="M145.683 25.6103H142.29V15.881C142.29 15.1048 142.344 13.3421 142.479 10.6155H142.37C141.158 14.3826 141.103 14.5703 140.728 15.5597L136.768 25.6103H133.67L129.684 15.6393C129.389 14.8631 128.821 13.2084 127.987 10.6951H127.879C128.068 14.4367 128.093 14.7579 128.093 15.881V25.6103H124.698V7.78369H130.248L133.455 16.043C133.75 16.8448 134.154 17.9679 135.126 20.9873H135.235L135.882 19.0085C136.312 17.6182 136.636 16.6287 136.851 16.0686L140.029 7.78369H145.685V25.6103H145.683Z" fill="white"/>
<path d="M151.044 22.1899L149.938 25.6103H146.327L152.308 7.78369H157.4L163.49 25.6103H159.962L158.804 22.1899H151.047H151.044ZM154.924 10.4022L151.852 19.651H158.022L154.924 10.4022Z" fill="white"/>
<path d="M163.974 7.78369H171.247C173.158 7.78369 173.347 7.78369 174.02 7.83771C175.611 7.94575 176.849 8.61389 177.522 9.70851C178.115 10.6979 178.33 11.8466 178.33 14.013C178.33 17.3282 177.496 18.9573 175.422 19.5714C174.936 19.7325 173.608 19.8301 171.436 19.8642H167.421V25.6103H163.974V7.78369ZM171.301 16.9244C174.344 16.9244 174.831 16.5235 174.831 13.9562C174.831 11.9773 174.616 11.2552 173.914 10.8827C173.43 10.6695 173.106 10.6155 171.651 10.6155H167.421V16.9244H171.301Z" fill="white"/>
<path d="M54.2094 29.3947H53.8742C53.8742 29.1558 53.8341 29.0023 53.7538 28.9397C53.6736 28.8744 53.4844 28.8431 53.1864 28.8431C52.8311 28.8431 52.6047 28.8744 52.5015 28.9369C52.3984 28.9995 52.3468 29.1359 52.3468 29.3492C52.3468 29.588 52.3869 29.733 52.4672 29.787C52.5474 29.8382 52.7881 29.8751 53.1836 29.895C53.6507 29.915 53.9458 29.9747 54.0719 30.0713C54.198 30.168 54.261 30.3869 54.261 30.7253C54.261 31.092 54.1894 31.328 54.0432 31.436C53.8971 31.5441 53.5761 31.5981 53.0775 31.5981C52.6448 31.5981 52.3583 31.5441 52.2179 31.436C52.0746 31.328 52.0029 31.1091 52.0029 30.7821V30.6485H52.3353V30.7224C52.3353 30.9868 52.3755 31.1517 52.4586 31.2171C52.5417 31.2825 52.7509 31.3138 53.089 31.3138C53.4759 31.3138 53.7137 31.2825 53.8054 31.2171C53.8942 31.1517 53.9401 30.9811 53.9401 30.6997C53.9401 30.5177 53.9086 30.3983 53.8484 30.3386C53.7882 30.2789 53.6621 30.2419 53.4673 30.2305L53.1177 30.2135L52.7852 30.1964C52.278 30.1623 52.023 29.9007 52.023 29.4117C52.023 29.0734 52.0975 28.8488 52.2436 28.735C52.3927 28.6213 52.6849 28.5645 53.1291 28.5645C53.5733 28.5645 53.8684 28.6185 54.006 28.7237C54.1407 28.8289 54.2094 29.0563 54.2094 29.4003V29.3947Z" fill="white"/>
<path d="M55.1551 28.8743V29.8865H56.6767V30.1708H55.1551V31.2825H56.7426V31.5668H54.8198V28.5957H56.7426V28.88H55.1551V28.8743Z" fill="white"/>
<path d="M57.4475 31.5612V28.5901H58.8746C59.1955 28.5901 59.4219 28.6526 59.5537 28.7806C59.6856 28.9057 59.7515 29.1246 59.7515 29.4373C59.7515 29.7103 59.7171 29.9036 59.6426 30.0117C59.5709 30.1197 59.4334 30.1908 59.2328 30.2221V30.2277C59.5509 30.2505 59.7085 30.4438 59.7085 30.8021V31.5612H59.3703V30.8788C59.3703 30.532 59.2185 30.3585 58.9176 30.3585H57.7857V31.5612H57.4475ZM57.7857 30.0742H58.7628C59.0207 30.0742 59.1955 30.0344 59.2901 29.9576C59.3847 29.8809 59.4305 29.733 59.4305 29.5198C59.4305 29.2525 59.3961 29.0763 59.3273 28.9938C59.2586 28.9114 59.1096 28.8716 58.8803 28.8716H57.7885V30.0742H57.7857Z" fill="white"/>
<path d="M62.4596 28.59H62.8207L61.7604 31.5611H61.279L60.2073 28.59H60.5683L61.3678 30.8332L61.4481 31.0607C61.4767 31.1488 61.5025 31.2256 61.5197 31.2882H61.5283C61.5713 31.1403 61.62 30.9896 61.6745 30.8361L62.4596 28.5872V28.59Z" fill="white"/>
<path d="M63.6946 28.5901V31.5612H63.3564V28.5901H63.6946Z" fill="white"/>
<path d="M66.503 30.5688H66.8383V30.6825C66.8383 31.0862 66.7695 31.3393 66.6291 31.4416C66.4915 31.5411 66.139 31.5923 65.5802 31.5923C65.0788 31.5923 64.7607 31.5042 64.6231 31.3251C64.4885 31.1488 64.4197 30.728 64.4197 30.0712C64.4197 29.5566 64.434 29.2325 64.4655 29.0989C64.4971 28.9653 64.583 28.8487 64.7292 28.7435C64.8982 28.6212 65.265 28.5615 65.8296 28.5615C66.2107 28.5615 66.4686 28.6212 66.6004 28.7378C66.7322 28.8544 66.7981 29.0818 66.7981 29.4202V29.4998H66.4657V29.4088C66.4657 29.17 66.4256 29.0164 66.3454 28.9482C66.268 28.88 66.0903 28.8458 65.8152 28.8458C65.3309 28.8458 65.0386 28.8856 64.9298 28.9653C64.8237 29.0449 64.7693 29.2666 64.7693 29.6277C64.7693 30.4636 64.8037 30.9526 64.8782 31.0948C64.9498 31.2398 65.1963 31.3109 65.6146 31.3109C66.033 31.3109 66.2594 31.2796 66.3597 31.217C66.4571 31.1545 66.5087 30.9981 66.5087 30.7479V30.5716L66.503 30.5688Z" fill="white"/>
<path d="M67.8296 28.5901V31.5612H67.4915V28.5901H67.8296Z" fill="white"/>
<path d="M69.7696 28.5588C70.337 28.5588 70.6894 28.6413 70.8327 28.8062C70.976 28.9711 71.0448 29.3805 71.0448 30.0373C71.0448 30.7452 70.976 31.1802 70.8413 31.3451C70.7066 31.51 70.3484 31.5925 69.7696 31.5925C69.1907 31.5925 68.8383 31.51 68.7007 31.3451C68.5632 31.1802 68.4944 30.7566 68.4944 30.0742V29.8638L68.5001 29.5824C68.5001 29.1872 68.589 28.9171 68.7695 28.7749C68.95 28.6328 69.2824 28.5588 69.7724 28.5588H69.7696ZM69.7696 28.8432C69.2968 28.8432 69.0188 28.8943 68.9386 28.9995C68.8583 29.1047 68.8182 29.463 68.8182 30.0742C68.8182 30.6855 68.8583 31.0466 68.9386 31.1518C69.0188 31.257 69.2968 31.3082 69.7696 31.3082C70.2424 31.3082 70.5232 31.257 70.6035 31.1518C70.6837 31.0466 70.7238 30.6884 70.7238 30.0742V29.5994C70.7238 29.2725 70.6665 29.0621 70.5548 28.9739C70.443 28.8858 70.1822 28.8403 69.7696 28.8403V28.8432Z" fill="white"/>
<path d="M73.7558 29.3947H73.4206C73.4206 29.1558 73.3804 29.0023 73.3002 28.9397C73.22 28.8744 73.0308 28.8431 72.7328 28.8431C72.3775 28.8431 72.1511 28.8744 72.0479 28.9369C71.9448 28.9995 71.8932 29.1359 71.8932 29.3492C71.8932 29.588 71.9333 29.733 72.0135 29.787C72.0938 29.8382 72.3345 29.8751 72.7299 29.895C73.197 29.915 73.4922 29.9747 73.6211 30.0713C73.7501 30.168 73.8103 30.3869 73.8103 30.7253C73.8103 31.092 73.7386 31.328 73.5925 31.436C73.4463 31.5441 73.1254 31.5981 72.6268 31.5981C72.1941 31.5981 71.9075 31.5441 71.7642 31.436C71.621 31.328 71.5493 31.1091 71.5493 30.7821V30.6485H71.8817V30.7224C71.8817 30.9868 71.9218 31.1517 72.0049 31.2171C72.088 31.2825 72.2972 31.3138 72.6354 31.3138C73.0222 31.3138 73.2601 31.2825 73.3518 31.2171C73.4406 31.1517 73.4865 30.9811 73.4865 30.6997C73.4865 30.5177 73.4549 30.3983 73.3948 30.3386C73.3346 30.2789 73.2085 30.2419 73.0136 30.2305L72.6612 30.2135L72.3288 30.1964C71.8215 30.1623 71.5665 29.9007 71.5665 29.4117C71.5665 29.0734 71.641 28.8488 71.7872 28.735C71.9362 28.6213 72.2285 28.5645 72.6726 28.5645C73.1168 28.5645 73.412 28.6185 73.5495 28.7237C73.6842 28.8289 73.753 29.0563 73.753 29.4003L73.7558 29.3947Z" fill="white"/>
<path d="M76.9222 28.9029V31.5641H76.5841V28.9029H75.6069V28.593H77.888V28.9029H76.9194H76.9222Z" fill="white"/>
<path d="M78.679 28.8744V29.8865H80.2006V30.1709H78.679V31.2825H80.2665V31.5668H78.3408V28.5958H80.2665V28.8801H78.679V28.8744ZM79.7049 27.7712L79.8367 28.0129L79.1604 28.3484L79.0515 28.1778L79.7049 27.7741V27.7712Z" fill="white"/>
<path d="M82.9344 30.5688H83.2696V30.6825C83.2696 31.0862 83.2009 31.3393 83.0605 31.4416C82.9229 31.5411 82.5704 31.5923 82.0116 31.5923C81.5102 31.5923 81.1921 31.5042 81.0545 31.3251C80.9198 31.1488 80.8511 30.728 80.8511 30.0712C80.8511 29.5566 80.8654 29.2325 80.8969 29.0989C80.9284 28.9653 81.0144 28.8487 81.1606 28.7435C81.3296 28.6212 81.6964 28.5615 82.2609 28.5615C82.6421 28.5615 82.9 28.6212 83.0318 28.7378C83.1636 28.8544 83.2295 29.0818 83.2295 29.4202V29.4998H82.8971V29.4088C82.8971 29.17 82.857 29.0164 82.7768 28.9482C82.6994 28.88 82.5217 28.8458 82.2466 28.8458C81.7623 28.8458 81.47 28.8856 81.3612 28.9653C81.2551 29.0449 81.2007 29.2666 81.2007 29.6277C81.2007 30.4636 81.2351 30.9526 81.3096 31.0948C81.3812 31.2398 81.6276 31.3109 82.046 31.3109C82.4644 31.3109 82.6908 31.2796 82.7911 31.217C82.8885 31.1545 82.9401 30.9981 82.9401 30.7479V30.5716L82.9344 30.5688Z" fill="white"/>
<path d="M86.479 28.5901V31.5612H85.923L84.6679 29.5397L84.4644 29.2071L84.3641 29.0421L84.2639 28.8772H84.2553V28.9881L84.261 29.1019V31.564H83.9229V28.5929H84.4759L85.5706 30.3642L85.8571 30.8305L86.0004 31.0608L86.1408 31.2939H86.1494V31.183L86.1437 31.0693V28.5929H86.4818L86.479 28.5901Z" fill="white"/>
<path d="M87.6568 28.5901V31.5612H87.3186V28.5901H87.6568Z" fill="white"/>
<path d="M90.4681 30.5688H90.8033V30.6825C90.8033 31.0862 90.7346 31.3393 90.5942 31.4416C90.4537 31.5411 90.1041 31.5923 89.5453 31.5923C89.0439 31.5923 88.7258 31.5042 88.5882 31.3251C88.4535 31.1488 88.3848 30.728 88.3848 30.0712C88.3848 29.5566 88.3991 29.2325 88.4306 29.0989C88.4621 28.9653 88.5481 28.8487 88.6943 28.7435C88.8633 28.6212 89.2301 28.5615 89.7946 28.5615C90.1758 28.5615 90.4337 28.6212 90.5655 28.7378C90.6973 28.8544 90.7632 29.0818 90.7632 29.4202V29.4998H90.4308V29.4088C90.4308 29.17 90.3907 29.0164 90.3105 28.9482C90.2331 28.88 90.0554 28.8458 89.7803 28.8458C89.2989 28.8458 89.0037 28.8856 88.8948 28.9653C88.7888 29.0449 88.7344 29.2666 88.7344 29.6277C88.7344 30.4636 88.7688 30.9526 88.8433 31.0948C88.9149 31.2398 89.1585 31.3109 89.5797 31.3109C90.001 31.3109 90.2245 31.2796 90.3248 31.217C90.4222 31.1545 90.4738 30.9981 90.4738 30.7479L90.4681 30.5716V30.5688Z" fill="white"/>
<path d="M92.5484 28.5588C93.1158 28.5588 93.4682 28.6413 93.6115 28.8062C93.7548 28.9711 93.8236 29.3805 93.8236 30.0373C93.8236 30.7452 93.7548 31.1802 93.6201 31.3451C93.4854 31.51 93.1272 31.5925 92.5484 31.5925C91.9695 31.5925 91.6171 31.51 91.4795 31.3451C91.342 31.1802 91.2732 30.7566 91.2732 30.0742V29.8638L91.2789 29.5824C91.2789 29.1872 91.3678 28.9171 91.5483 28.7749C91.7288 28.6328 92.0612 28.5588 92.5513 28.5588H92.5484ZM92.5484 28.8432C92.0756 28.8432 91.7976 28.8943 91.7174 28.9995C91.6371 29.1047 91.597 29.463 91.597 30.0742C91.597 30.6855 91.6371 31.0466 91.7174 31.1518C91.7976 31.257 92.0756 31.3082 92.5484 31.3082C93.0212 31.3082 93.302 31.257 93.3823 31.1518C93.4625 31.0466 93.5026 30.6884 93.5026 30.0742V29.5994C93.5026 29.2725 93.4453 29.0621 93.3336 28.9739C93.2218 28.8858 92.961 28.8403 92.5484 28.8403V28.8432Z" fill="white"/>
<path d="M96.5344 29.3947H96.1991C96.1991 29.1558 96.159 29.0023 96.0788 28.9397C95.9985 28.8744 95.8094 28.8431 95.5114 28.8431C95.156 28.8431 94.9297 28.8744 94.8265 28.9369C94.7233 28.9995 94.6717 29.1359 94.6717 29.3492C94.6717 29.588 94.7119 29.733 94.7921 29.787C94.8723 29.8382 95.1131 29.8751 95.5085 29.895C95.9756 29.915 96.2708 29.9747 96.3997 30.0713C96.5287 30.168 96.5888 30.3869 96.5888 30.7253C96.5888 31.092 96.5172 31.328 96.3711 31.436C96.2249 31.5441 95.904 31.5981 95.4053 31.5981C94.9726 31.5981 94.6861 31.5441 94.5428 31.436C94.3995 31.328 94.3279 31.1091 94.3279 30.7821V30.6485H94.6603V30.7224C94.6603 30.9868 94.7004 31.1517 94.7835 31.2171C94.8666 31.2825 95.0758 31.3138 95.4139 31.3138C95.8008 31.3138 96.0386 31.2825 96.1303 31.2171C96.2192 31.1517 96.265 30.9811 96.265 30.6997C96.265 30.5177 96.2335 30.3983 96.1733 30.3386C96.1132 30.2789 95.9871 30.2419 95.7922 30.2305L95.4397 30.2135L95.1073 30.1964C94.6001 30.1623 94.3451 29.9007 94.3451 29.4117C94.3451 29.0734 94.4196 28.8488 94.5657 28.735C94.7147 28.6213 95.007 28.5645 95.4512 28.5645C95.8954 28.5645 96.1905 28.6185 96.3281 28.7237C96.4656 28.8289 96.5315 29.0563 96.5315 29.4003L96.5344 29.3947Z" fill="white"/>
<path d="M98.658 31.5612V28.5901H100.045C100.475 28.5901 100.764 28.6839 100.916 28.8716C101.068 29.0592 101.145 29.4174 101.145 29.9463C101.145 30.5917 101.077 31.021 100.942 31.2371C100.807 31.4531 100.535 31.5612 100.131 31.5612H98.658ZM98.9961 31.2797H99.9733C100.331 31.2797 100.564 31.2086 100.667 31.0665C100.77 30.9243 100.821 30.6059 100.821 30.114C100.821 29.5738 100.776 29.2326 100.687 29.0876C100.598 28.9455 100.38 28.8716 100.039 28.8716H98.9961V31.2769V31.2797Z" fill="white"/>
<path d="M102.079 28.8743V29.8865H103.601V30.1708H102.079V31.2825H103.667V31.5668H101.741V28.5957H103.667V28.88H102.079V28.8743Z" fill="white"/>
<path d="M105.982 28.8743V29.8865H107.504V30.1708H105.982V31.2825H107.57V31.5668H105.644V28.5957H107.57V28.88H105.982V28.8743Z" fill="white"/>
<path d="M110.888 31.1973L110.751 31.4247L110.484 31.2513C110.324 31.4759 109.951 31.5896 109.372 31.5896C108.793 31.5896 108.418 31.5072 108.289 31.3394C108.16 31.1745 108.094 30.7111 108.094 29.952C108.094 29.3464 108.169 28.9597 108.315 28.8005C108.464 28.6384 108.814 28.5588 109.369 28.5588C109.925 28.5588 110.289 28.6413 110.433 28.8062C110.576 28.9711 110.645 29.3805 110.645 30.0373C110.645 30.5291 110.627 30.8504 110.59 31.0039L110.888 31.2001V31.1973ZM109.318 30.4979L109.473 30.2704L110.292 30.8078C110.312 30.7026 110.324 30.5149 110.324 30.2448C110.324 29.5284 110.286 29.1161 110.212 29.0052C110.137 28.8972 109.857 28.8403 109.369 28.8403C108.882 28.8403 108.619 28.8915 108.538 28.9967C108.458 29.1019 108.418 29.4601 108.418 30.0714C108.418 30.6827 108.458 31.0438 108.538 31.149C108.619 31.2541 108.894 31.3053 109.367 31.3053C109.839 31.3053 110.117 31.2286 110.218 31.0779L109.321 30.495L109.318 30.4979Z" fill="white"/>
<path d="M113.522 28.5901H113.86V30.6713C113.86 31.0494 113.783 31.2968 113.631 31.4162C113.479 31.5356 113.158 31.5925 112.668 31.5925C112.209 31.5925 111.9 31.5356 111.734 31.4219C111.57 31.3081 111.487 31.0921 111.487 30.7708V28.5901H111.825V30.6713C111.825 30.9527 111.871 31.129 111.963 31.2001C112.055 31.2712 112.281 31.3081 112.642 31.3081C113.035 31.3081 113.278 31.274 113.376 31.2029C113.473 31.1319 113.522 30.9556 113.522 30.6713V28.5901Z" fill="white"/>
<path d="M115.038 28.5901V31.5612H114.699V28.5901H115.038Z" fill="white"/>
<path d="M115.883 31.5612V28.5901H117.256C117.594 28.5901 117.823 28.6555 117.946 28.7834C118.069 28.9114 118.13 29.153 118.13 29.5084C118.13 29.8638 118.067 30.0799 117.938 30.2022C117.809 30.3244 117.568 30.387 117.216 30.387H117.084H116.218V31.5583H115.88L115.883 31.5612ZM116.221 30.1083H117.021C117.356 30.1083 117.571 30.0742 117.665 30.006C117.76 29.9377 117.806 29.7814 117.806 29.5369C117.806 29.2497 117.774 29.0677 117.711 28.991C117.648 28.9142 117.496 28.8772 117.258 28.8772H117.13H116.221V30.1112V30.1083Z" fill="white"/>
<path d="M119.898 28.5588C120.465 28.5588 120.818 28.6413 120.961 28.8062C121.104 28.9711 121.173 29.3805 121.173 30.0373C121.173 30.7452 121.104 31.1802 120.969 31.3451C120.835 31.51 120.477 31.5925 119.898 31.5925C119.319 31.5925 118.966 31.51 118.829 31.3451C118.691 31.1802 118.623 30.7566 118.623 30.0742V29.5852C118.625 29.19 118.717 28.9199 118.895 28.7778C119.072 28.6328 119.408 28.5617 119.898 28.5617V28.5588ZM119.898 28.8432C119.425 28.8432 119.147 28.8943 119.067 28.9995C118.986 29.1047 118.946 29.463 118.946 30.0742C118.946 30.6855 118.986 31.0466 119.067 31.1518C119.147 31.257 119.425 31.3082 119.898 31.3082C120.371 31.3082 120.651 31.257 120.732 31.1518C120.812 31.0466 120.852 30.6884 120.852 30.0742V29.5994C120.852 29.2725 120.795 29.0621 120.683 28.9739C120.571 28.8858 120.31 28.8403 119.898 28.8403V28.8432Z" fill="white"/>
<path d="M123.884 29.3947H123.548C123.548 29.1558 123.508 29.0023 123.428 28.9397C123.348 28.8744 123.159 28.8431 122.861 28.8431C122.505 28.8431 122.279 28.8744 122.176 28.9369C122.073 28.9995 122.021 29.1359 122.021 29.3492C122.021 29.588 122.061 29.733 122.141 29.787C122.222 29.8382 122.462 29.8751 122.858 29.895C123.325 29.915 123.62 29.9747 123.749 30.0713C123.878 30.168 123.938 30.3869 123.938 30.7253C123.938 31.092 123.867 31.328 123.72 31.436C123.574 31.5441 123.253 31.5981 122.755 31.5981C122.322 31.5981 122.035 31.5441 121.892 31.436C121.749 31.328 121.677 31.1091 121.677 30.7821V30.6485H122.01V30.7224C122.01 30.9868 122.05 31.1517 122.133 31.2171C122.216 31.2825 122.425 31.3138 122.763 31.3138C123.15 31.3138 123.388 31.2825 123.48 31.2171C123.569 31.1517 123.614 30.9811 123.614 30.6997C123.614 30.5177 123.583 30.3983 123.523 30.3386C123.463 30.2789 123.336 30.2419 123.142 30.2305L122.789 30.2135L122.457 30.1964C121.949 30.1623 121.694 29.9007 121.694 29.4117C121.694 29.0734 121.769 28.8488 121.915 28.735C122.064 28.6213 122.356 28.5645 122.801 28.5645C123.245 28.5645 123.54 28.6185 123.677 28.7237C123.812 28.8289 123.881 29.0563 123.881 29.4003L123.884 29.3947Z" fill="white"/>
<path d="M128.274 28.5901L127.142 30.3216V31.5612H126.804V30.3216L125.701 28.5901H126.093L126.735 29.5937L126.858 29.7871C126.876 29.8098 126.896 29.8411 126.919 29.8837L126.979 29.9804H126.987C127.013 29.9377 127.033 29.9036 127.048 29.8837L127.108 29.7871L127.234 29.5937L127.876 28.5901H128.277H128.274Z" fill="white"/>
<path d="M133.484 28.59V31.5611H133.145V28.917L133.148 28.8288H133.14L133.114 28.8971C133.1 28.9312 133.091 28.9539 133.088 28.9653L133.031 29.1046L132.011 31.5639H131.673L130.65 29.133L130.589 28.9966L130.564 28.9255C130.555 28.9084 130.546 28.8885 130.538 28.8573H130.529V28.9369L130.535 29.0193V31.5611H130.197V28.59H130.781L131.581 30.512L131.707 30.8219L131.77 30.9754L131.83 31.1289H131.839L131.899 30.9754C131.93 30.9015 131.951 30.8503 131.959 30.8219L132.088 30.512L132.882 28.5872H133.478L133.484 28.59Z" fill="white"/>
<path d="M136.163 30.9328H134.647L134.418 31.5612H134.06L135.157 28.5901H135.63L136.75 31.5612H136.398L136.166 30.9328H136.163ZM136.065 30.6798L135.401 28.863L134.744 30.6798H136.065Z" fill="white"/>
<path d="M139.943 31.1973L139.805 31.4247L139.539 31.2513C139.378 31.4759 139.006 31.5896 138.427 31.5896C137.848 31.5896 137.472 31.5072 137.344 31.3394C137.215 31.1745 137.149 30.7111 137.149 29.952C137.149 29.3464 137.223 28.9597 137.369 28.8005C137.518 28.6384 137.868 28.5588 138.424 28.5588C138.98 28.5588 139.344 28.6413 139.487 28.8062C139.63 28.9711 139.699 29.3805 139.699 30.0373C139.699 30.5291 139.682 30.8504 139.645 31.0039L139.943 31.2001V31.1973ZM138.369 30.4979L138.524 30.2704L139.344 30.8078C139.364 30.7026 139.375 30.5149 139.375 30.2448C139.375 29.5284 139.338 29.1161 139.264 29.0052C139.189 28.8972 138.908 28.8403 138.421 28.8403C137.934 28.8403 137.67 28.8915 137.59 28.9967C137.51 29.1019 137.47 29.4601 137.47 30.0714C137.47 30.6827 137.51 31.0438 137.59 31.149C137.67 31.2541 137.945 31.3053 138.418 31.3053C138.891 31.3053 139.169 31.2286 139.269 31.0779L138.372 30.495L138.369 30.4979Z" fill="white"/>
<path d="M142.576 28.5901H142.914V30.6713C142.914 31.0494 142.837 31.2968 142.685 31.4162C142.533 31.5356 142.212 31.5925 141.722 31.5925C141.264 31.5925 140.954 31.5356 140.788 31.4219C140.625 31.3081 140.542 31.0921 140.542 30.7708V28.5901H140.88V30.6713C140.88 30.9527 140.925 31.129 141.017 31.2001C141.109 31.2712 141.335 31.3081 141.696 31.3081C142.089 31.3081 142.333 31.274 142.43 31.2029C142.527 31.1319 142.576 30.9556 142.576 30.6713V28.5901Z" fill="white"/>
<path d="M144.092 28.5901V31.5612H143.754V28.5901H144.092Z" fill="white"/>
<path d="M147.496 28.5901V31.5612H146.941L145.685 29.5397L145.482 29.2071L145.382 29.0421L145.281 28.8772H145.273V28.9881L145.276 29.1019V31.564H144.938V28.5929H145.491L146.585 30.3642L146.872 30.8305L147.015 31.0608L147.155 31.2939H147.164V31.183L147.158 31.0693V28.5929H147.496V28.5901Z" fill="white"/>
<path d="M150.176 30.9328H148.66L148.43 31.5612H148.072L149.17 28.5901H149.643L150.763 31.5612H150.411L150.178 30.9328H150.176ZM150.078 30.6798L149.413 28.863L148.757 30.6798H150.078Z" fill="white"/>
<path d="M151.339 31.5612V28.5901H152.766C153.087 28.5901 153.314 28.6526 153.445 28.7806C153.577 28.9085 153.643 29.1246 153.643 29.4373C153.643 29.7103 153.609 29.9036 153.534 30.0117C153.463 30.1197 153.325 30.1908 153.124 30.2221V30.2277C153.442 30.2505 153.6 30.4438 153.6 30.8021V31.5612H153.262V30.8788C153.262 30.532 153.11 30.3585 152.809 30.3585H151.677V31.5612H151.339ZM151.677 30.0742H152.654C152.912 30.0742 153.087 30.0344 153.182 29.9576C153.276 29.8809 153.322 29.733 153.322 29.5198C153.322 29.2525 153.288 29.0763 153.219 28.9938C153.15 28.9114 153.001 28.8716 152.772 28.8716H151.68V30.0742H151.677Z" fill="white"/>
<path d="M154.746 28.5901V31.5612H154.408V28.5901H154.746Z" fill="white"/>
<path d="M157.434 30.9328H155.919L155.689 31.5612H155.331L156.429 28.5901H156.901L158.022 31.5612H157.669L157.437 30.9328H157.434ZM157.337 30.6798L156.672 28.863L156.016 30.6798H157.337Z" fill="white"/>
<path d="M159.99 31.5612V28.5901H161.363C161.701 28.5901 161.93 28.6555 162.054 28.7834C162.177 28.9114 162.237 29.153 162.237 29.5084C162.237 29.8638 162.174 30.0799 162.045 30.2022C161.916 30.3244 161.675 30.387 161.326 30.387H161.194H160.329V31.5583H159.99V31.5612ZM160.329 30.1083H161.128C161.463 30.1083 161.678 30.0742 161.773 30.006C161.867 29.9377 161.913 29.7814 161.913 29.5369C161.913 29.2497 161.882 29.0677 161.819 28.991C161.756 28.9142 161.604 28.8772 161.366 28.8772H161.237H160.329V30.1112V30.1083Z" fill="white"/>
<path d="M163.128 28.8743V29.8865H164.65V30.1708H163.128V31.2825H164.716V31.5668H162.793V28.5957H164.716V28.88H163.128V28.8743Z" fill="white"/>
<path d="M167.472 29.3947H167.137C167.137 29.1558 167.097 29.0023 167.017 28.9397C166.937 28.8744 166.747 28.8431 166.449 28.8431C166.094 28.8431 165.868 28.8744 165.765 28.9369C165.661 28.9995 165.61 29.1359 165.61 29.3492C165.61 29.588 165.65 29.733 165.73 29.787C165.81 29.8382 166.051 29.8751 166.447 29.895C166.914 29.915 167.209 29.9747 167.338 30.0713C167.464 30.168 167.527 30.3869 167.527 30.7253C167.527 31.092 167.455 31.328 167.309 31.436C167.163 31.5441 166.842 31.5981 166.343 31.5981C165.911 31.5981 165.624 31.5441 165.484 31.436C165.34 31.328 165.269 31.1091 165.269 30.7821V30.6485H165.601V30.7224C165.601 30.9868 165.641 31.1517 165.724 31.2171C165.808 31.2825 166.017 31.3138 166.355 31.3138C166.742 31.3138 166.982 31.2825 167.071 31.2171C167.16 31.1517 167.206 30.9811 167.206 30.6997C167.206 30.5177 167.174 30.3983 167.114 30.3386C167.054 30.2789 166.925 30.2419 166.733 30.2305L166.381 30.2135L166.048 30.1964C165.541 30.1623 165.286 29.9007 165.286 29.4117C165.286 29.0734 165.361 28.8488 165.507 28.735C165.656 28.6213 165.948 28.5645 166.392 28.5645C166.836 28.5645 167.131 28.6185 167.266 28.7237C167.401 28.8289 167.47 29.0563 167.47 29.4003L167.472 29.3947Z" fill="white"/>
<path d="M170.043 30.9328H168.527L168.298 31.5612H167.94L169.037 28.5901H169.51L170.631 31.5612H170.278L170.046 30.9328H170.043ZM169.946 30.6798L169.281 28.863L168.625 30.6798H169.946Z" fill="white"/>
<path d="M171.207 31.5612V28.5901H172.594C173.023 28.5901 173.313 28.6839 173.465 28.8716C173.617 29.0592 173.694 29.4174 173.694 29.9463C173.694 30.5917 173.625 31.021 173.49 31.2371C173.356 31.4531 173.084 31.5612 172.679 31.5612H171.207ZM171.545 31.2797H172.522C172.88 31.2797 173.112 31.2086 173.215 31.0665C173.318 30.9243 173.37 30.6059 173.37 30.114C173.37 29.5738 173.324 29.2326 173.235 29.0876C173.147 28.9455 172.929 28.8716 172.591 28.8716H171.548V31.2769L171.545 31.2797Z" fill="white"/>
<path d="M176.253 30.9328H174.737L174.508 31.5612H174.149L175.247 28.5901H175.72L176.84 31.5612H176.488L176.256 30.9328H176.253ZM176.155 30.6798L175.491 28.863L174.834 30.6798H176.155Z" fill="white"/>
</g>
<defs>
<clipPath id="clip0_22844_1530">
<rect width="178" height="36" fill="white" transform="translate(0.333252 0.00488281)"/>
</clipPath>
</defs>
</svg>
