<svg width="158" height="36" viewBox="0 0 158 36" fill="none" xmlns="http://www.w3.org/2000/svg">
<g clip-path="url(#clip0_22844_1601)">
<path d="M40.5588 19.8724H44.7868C44.914 23.4622 47.5205 24.4465 50.4452 24.4465C53.1788 24.4465 55.1177 23.3032 55.1177 21.1748C55.1177 19.5545 54.1959 18.6652 49.3642 17.7121C43.801 16.6958 41.1633 14.8214 41.1633 10.6916C41.1633 6.91174 44.5326 4.30713 49.6505 4.30713C55.8173 4.30713 58.7732 7.38871 58.9324 11.9628H54.8003C54.6412 9.168 53.0517 7.80178 49.6505 7.80178C47.1711 7.80178 45.5496 8.88197 45.5496 10.5654C45.5496 12.2488 46.2804 13.17 50.9217 14.0592C57.6923 15.2976 59.5048 17.426 59.5048 20.9838C59.5048 25.4308 55.6902 27.9403 50.3181 27.9403C44.5965 27.9403 40.686 25.2087 40.5588 19.8724Z" fill="white"/>
<path d="M61.3167 11.0415H65.2904V27.5592H61.3167V11.0415Z" fill="white"/>
<path d="M75.0808 14.1542C73.7144 14.1542 71.5524 14.9165 71.2661 17.8071V27.5592H67.2612V11.7909C67.2612 11.3771 67.597 11.0415 68.0112 11.0415H69.7214C70.0301 11.0415 70.3075 11.2301 70.4202 11.5177L71.1398 13.297C72.284 11.7726 74.0006 10.6604 76.3528 10.6604C80.1675 10.6604 82.2335 13.265 82.2335 17.1408V27.5592H78.2598V17.6169C78.2598 15.6155 77.3699 14.1542 75.0808 14.1542Z" fill="white"/>
<path d="M83.8535 19.3003C83.8535 14.3772 86.9054 10.6604 92.0232 10.6604C97.1411 10.6604 100.193 14.2501 100.193 19.6183V20.5715H87.8272C88.1766 23.1441 89.639 24.7964 92.0232 24.7964C93.9621 24.7964 95.2654 23.9703 95.965 22.5098H99.8748C98.7938 25.7815 95.965 27.9411 92.0232 27.9411C86.9054 27.9411 83.8535 24.2243 83.8535 19.3011V19.3003ZM96.1561 17.712C95.7427 15.2976 94.3123 13.8051 92.024 13.8051C89.7358 13.8051 88.3046 15.2976 87.86 17.712H96.1569H96.1561Z" fill="white"/>
<path d="M102.553 11.0415H104.521C104.857 11.0415 105.152 11.2644 105.243 11.5872L105.681 13.996C106.794 11.6774 108.574 10.8513 110.672 10.8513H111.975V14.5361H110.512C107.715 14.5361 105.808 15.7114 105.808 19.5552V27.5599H101.802V11.7917C101.802 11.3778 102.138 11.0423 102.552 11.0423L102.553 11.0415Z" fill="white"/>
<path d="M112.843 28.5436H116.753C117.007 30.4491 118.438 31.1801 120.44 31.1801C122.443 31.1801 124.668 30.4499 124.668 27.1142V25.1448C123.556 26.6372 121.871 27.5273 119.583 27.5273C114.783 27.5273 112.176 23.9064 112.176 19.0775C112.176 14.2486 114.782 10.6597 119.583 10.6597C121.967 10.6597 123.683 11.6128 124.796 13.2012L125.499 11.5042C125.615 11.2237 125.889 11.0416 126.192 11.0416H127.924C128.338 11.0416 128.674 11.3771 128.674 11.791V27.1142C128.674 32.0694 124.987 34.2929 120.314 34.2929C115.642 34.2929 113.098 32.1013 112.844 28.5436H112.843ZM120.504 24.2556C123.397 24.2556 124.732 22.191 124.732 19.0775C124.732 15.964 123.397 13.9002 120.504 13.9002C117.612 13.9002 116.244 15.9967 116.244 19.0775C116.244 22.1583 117.58 24.2556 120.504 24.2556Z" fill="white"/>
<path d="M147.301 25.6537C145.871 27.369 144.122 27.9403 142.056 27.9403C138.464 27.9403 136.016 26.1618 136.016 22.9532C136.016 20.0306 138.082 18.5693 142.374 17.839L147.174 16.9818V16.0286C147.174 14.5362 146.284 13.742 144.154 13.742C142.342 13.742 140.816 14.5042 140.721 16.3146H136.779C136.843 12.3758 140.148 10.6604 144.122 10.6604C148.827 10.6604 151.084 12.5659 151.084 15.5836V26.8098C151.084 27.2236 150.748 27.5592 150.334 27.5592H148.571C148.274 27.5592 148.006 27.385 147.886 27.1142L147.301 25.6529V25.6537ZM142.946 24.9865C145.044 24.9865 147.174 23.8744 147.174 21.1427V19.6814L143.105 20.5076C141.229 20.8887 140.117 21.3337 140.117 22.8261C140.117 24.1285 141.007 24.9857 142.947 24.9857L142.946 24.9865Z" fill="white"/>
<path d="M154.675 24.7844H155.47C155.92 24.7844 156.124 24.9985 156.124 25.3253C156.124 25.5027 156.03 25.6705 155.831 25.7719C155.973 25.8271 156.043 25.9389 156.064 26.0907L156.153 26.666H155.883L155.815 26.1826C155.784 25.9629 155.68 25.8766 155.468 25.8766H154.937V26.666H154.675V24.7844ZM155.46 25.6497C155.734 25.6497 155.855 25.5267 155.855 25.3309C155.855 25.1352 155.734 25.0145 155.46 25.0145H154.937V25.6497H155.46Z" fill="white"/>
<path d="M155.348 24.0686C156.262 24.0686 157.006 24.8116 157.006 25.7257C157.006 26.6397 156.262 27.3827 155.348 27.3827C154.433 27.3827 153.69 26.6397 153.69 25.7257C153.69 24.8116 154.433 24.0686 155.348 24.0686ZM155.348 23.9072C154.343 23.9072 153.529 24.7214 153.529 25.7249C153.529 26.7284 154.344 27.5425 155.348 27.5425C156.352 27.5425 157.167 26.7284 157.167 25.7249C157.167 24.7214 156.352 23.9072 155.348 23.9072Z" fill="white"/>
<path d="M65.5686 6.36291L63.7656 4.56125C63.7336 4.5293 63.6912 4.51172 63.6465 4.51172H62.9421C62.8973 4.51172 62.8541 4.5293 62.8229 4.56125L62.2385 5.14609L61.6052 5.77887L61.0208 6.36291C60.9888 6.39487 60.9712 6.43721 60.9712 6.48195V7.18663C60.9712 7.23217 60.9888 7.27452 61.0208 7.30648L62.8237 9.10813C62.8557 9.14009 62.8981 9.15767 62.9429 9.15767H63.6473C63.692 9.15767 63.7352 9.14009 63.7664 9.10813L64.3509 8.52329L64.9841 7.89132L65.5686 7.30728C65.6005 7.27532 65.6181 7.23297 65.6181 7.18823V6.48355C65.6181 6.43801 65.6005 6.39566 65.5686 6.36371V6.36291Z" fill="white"/>
<path d="M130.467 11.0415H134.441V27.5592H130.467V11.0415Z" fill="white"/>
<path d="M134.728 6.36291L132.925 4.56125C132.893 4.5293 132.85 4.51172 132.805 4.51172H132.101C132.056 4.51172 132.013 4.5293 131.982 4.56125L131.397 5.14609L130.764 5.77887L130.18 6.36291C130.148 6.39487 130.13 6.43721 130.13 6.48195V7.18663C130.13 7.23217 130.148 7.27452 130.18 7.30648L131.983 9.10813C132.015 9.14009 132.057 9.15767 132.102 9.15767H132.806C132.851 9.15767 132.894 9.14009 132.925 9.10813L133.51 8.52329L134.143 7.89132L134.728 7.30728C134.759 7.27532 134.777 7.23297 134.777 7.18823V6.48355C134.777 6.43801 134.759 6.39566 134.728 6.36371V6.36291Z" fill="white"/>
<path d="M34.6511 17.776C34.6511 17.5427 34.5584 17.3182 34.3929 17.1528L31.3362 14.1L28.0293 10.7939L24.9759 7.74268C24.8104 7.5773 24.5865 7.48462 24.353 7.48462H20.6679C20.4345 7.48462 20.2098 7.5773 20.0451 7.74268L15.9962 11.787C15.6516 12.1314 15.6524 12.689 15.9962 13.0326L20.2825 17.295C20.6263 17.6386 21.1844 17.6386 21.529 17.295L21.8888 16.9307C22.2326 16.5872 22.7907 16.5872 23.1353 16.9307L25.1973 18.9912C25.5411 19.3348 25.5411 19.8925 25.1973 20.2368L23.1337 22.2989C22.7891 22.6409 22.2326 22.6401 21.8896 22.2973L21.7593 22.1623C21.4155 21.8187 20.8574 21.8187 20.5128 22.1623L16.2265 26.4247C15.8819 26.7683 15.8819 27.3268 16.2265 27.6703L20.0467 31.4854C20.2122 31.6507 20.4361 31.7434 20.6695 31.7434H24.3546C24.5881 31.7434 24.8128 31.6507 24.9775 31.4854L28.0309 28.4341L31.337 25.128L34.3937 22.0752C34.5592 21.9098 34.6519 21.6861 34.6519 21.452V17.776H34.6511Z" fill="white"/>
<path d="M0.166748 14.4715C0.166748 14.7048 0.259495 14.9293 0.425001 15.0947L3.48166 18.1475L6.78857 21.4536L9.84203 24.5048C10.0075 24.6702 10.2314 24.7629 10.4649 24.7629H14.15C14.3834 24.7629 14.6081 24.6702 14.7728 24.5048L18.8217 20.4605C19.1663 20.1161 19.1655 19.5585 18.8217 19.2149L14.5353 14.9525C14.1915 14.6089 13.6335 14.6089 13.2889 14.9525L12.9291 15.3168C12.5853 15.6603 12.0272 15.6603 11.6826 15.3168L9.62055 13.2563C9.27675 12.9127 9.27675 12.355 9.62055 12.0107L11.6842 9.94858C12.0288 9.60662 12.5853 9.60742 12.9283 9.95018L13.0594 10.086C13.4032 10.4296 13.9613 10.4296 14.3059 10.086L18.5922 5.82355C18.9368 5.48 18.9368 4.92153 18.5922 4.57798L14.7736 0.762947C14.6081 0.597562 14.3842 0.504883 14.1508 0.504883H10.4657C10.2322 0.504883 10.0075 0.597562 9.84282 0.762947L6.78937 3.81417L3.48325 7.12026L0.425001 10.1731C0.259495 10.3385 0.166748 10.5622 0.166748 10.7963V14.4723V14.4715Z" fill="white"/>
<path d="M42.1875 34.5822H41.783V31.2297H42.5089L43.41 34.0812L44.3119 31.2297H45.0419V34.5822H44.6373V31.471L43.6131 34.5822H43.2125L42.1883 31.4926V34.5822H42.1875Z" fill="white"/>
<path d="M45.6368 34.4416C45.4945 34.3185 45.4233 34.1499 45.4233 33.9366C45.4233 33.7233 45.5025 33.5587 45.6608 33.4357C45.7895 33.3334 45.9758 33.2567 46.2189 33.2072L47.0856 33.0402C47.0856 32.85 47.036 32.7046 46.9361 32.6055C46.8249 32.4945 46.6754 32.4386 46.4875 32.4386C46.338 32.4386 46.2085 32.4785 46.0982 32.5592C45.9878 32.6399 45.9183 32.7478 45.8895 32.882H45.5161C45.5569 32.6391 45.6696 32.4489 45.8527 32.3131C46.0358 32.1765 46.2493 32.1086 46.4923 32.1086C46.6362 32.1086 46.769 32.1302 46.8921 32.1725C47.0152 32.2149 47.1192 32.2772 47.2047 32.3595C47.3159 32.4649 47.3862 32.5864 47.4158 32.7238C47.4454 32.8612 47.4598 33.0034 47.4598 33.1496V34.5822H47.0864V34.1995C47.0016 34.3225 46.9033 34.4176 46.7914 34.4855C46.6418 34.579 46.45 34.6261 46.2149 34.6261C45.9798 34.6261 45.7783 34.5646 45.6368 34.4416ZM46.6466 34.213C46.8105 34.1284 46.9257 34.0157 46.992 33.8751C47.0584 33.7345 47.0912 33.5571 47.0912 33.343L46.2996 33.5012C46.1181 33.5363 45.9846 33.5939 45.8999 33.673C45.8327 33.7401 45.7991 33.8256 45.7991 33.9278C45.7991 34.0389 45.8407 34.1284 45.9247 34.1955C46.0086 34.2626 46.1205 34.2969 46.2613 34.2969C46.4108 34.2969 46.5395 34.269 46.6482 34.213H46.6466ZM46.6506 31.8977H46.3076L46.8225 31.2297H47.2799L46.6506 31.8977Z" fill="white"/>
<path d="M48.1106 34.4064C47.9171 34.2602 47.7996 34.058 47.7588 33.8H48.1498C48.1817 33.955 48.2577 34.0772 48.376 34.1651C48.4952 34.253 48.6583 34.2969 48.8662 34.2969C49.0365 34.2969 49.1716 34.265 49.2731 34.2002C49.3747 34.1355 49.425 34.0437 49.425 33.9238C49.425 33.8303 49.3947 33.7544 49.3347 33.6977C49.2747 33.641 49.198 33.597 49.106 33.5683C49.0133 33.5387 48.8909 33.51 48.739 33.4804C48.5487 33.442 48.3952 33.4037 48.2793 33.3637C48.1634 33.3246 48.0642 33.2607 47.9827 33.1728C47.9003 33.0849 47.8595 32.9635 47.8595 32.8085C47.8595 32.5888 47.9427 32.417 48.1082 32.2939C48.2737 32.1709 48.4856 32.1094 48.7438 32.1094C49.0021 32.1094 49.2276 32.1781 49.4035 32.3155C49.5794 32.4529 49.6881 32.6423 49.7289 32.882H49.3819C49.3467 32.7326 49.2731 32.6215 49.162 32.548C49.0509 32.4745 48.9117 32.4377 48.7446 32.4377C48.5775 32.4377 48.4584 32.4681 48.3688 32.528C48.2793 32.588 48.2345 32.671 48.2345 32.7765C48.2345 32.8588 48.2625 32.9227 48.3177 32.9699C48.3736 33.017 48.4424 33.0529 48.5248 33.0777C48.6071 33.1025 48.7222 33.1296 48.8718 33.1592C49.0684 33.1976 49.2283 33.2375 49.3515 33.2798C49.4746 33.3222 49.5802 33.3909 49.6681 33.486C49.756 33.5811 49.8 33.7137 49.8 33.8839C49.8 34.1124 49.7177 34.2929 49.5538 34.4264C49.3899 34.5598 49.1596 34.6261 48.8638 34.6261C48.5679 34.6261 48.3057 34.5526 48.1122 34.4064H48.1106Z" fill="white"/>
<path d="M53.6202 35.505C53.3971 35.505 53.2372 35.4603 53.1405 35.3708C53.0437 35.2813 52.9957 35.1343 52.9957 34.929V34.2043C52.8726 34.3625 52.7511 34.472 52.6311 34.5335C52.5112 34.595 52.3673 34.6262 52.2002 34.6262C51.9835 34.6262 51.7932 34.5734 51.6309 34.468C51.4678 34.3625 51.3423 34.2139 51.2527 34.0222C51.1632 33.8304 51.1184 33.6115 51.1184 33.3654C51.1184 33.1193 51.1632 32.9012 51.2527 32.7103C51.3423 32.5201 51.4686 32.3723 51.6333 32.2668C51.7972 32.1614 51.9867 32.1086 52.2002 32.1086C52.3705 32.1086 52.5152 32.1398 52.6359 32.2029C52.7559 32.266 52.8766 32.3747 52.9965 32.5305V32.1526H53.3707V34.9609C53.3707 35.0312 53.3907 35.0824 53.4299 35.1151C53.4691 35.1471 53.533 35.1631 53.621 35.1631H53.8369V35.5058H53.621L53.6202 35.505ZM52.6351 34.1763C52.7527 34.0957 52.8438 33.9854 52.9102 33.8448C52.9757 33.7042 53.0093 33.5444 53.0093 33.3662C53.0093 33.188 52.9765 33.0322 52.9102 32.8916C52.8438 32.751 52.7519 32.6407 52.6335 32.5601C52.5144 32.4794 52.3825 32.4394 52.2354 32.4394C52.0883 32.4394 51.9547 32.4794 51.842 32.5601C51.7293 32.6407 51.6429 32.751 51.5829 32.8916C51.523 33.0322 51.4926 33.1904 51.4926 33.3662C51.4926 33.542 51.523 33.7042 51.5829 33.8448C51.6429 33.9854 51.7293 34.0957 51.842 34.1763C51.9547 34.257 52.0859 34.297 52.2354 34.297C52.3849 34.297 52.5184 34.257 52.6351 34.1763Z" fill="white"/>
<path d="M53.9241 34.2443C53.8474 34.1005 53.8098 33.8911 53.8098 33.6163V32.1526H54.1832V33.6163C54.1832 33.8743 54.2304 34.0557 54.3239 34.1612C54.4063 34.2523 54.531 34.2978 54.6981 34.2978C54.8828 34.2978 55.0307 34.2379 55.1419 34.1172C55.221 34.0349 55.2778 33.9223 55.3114 33.7793C55.3449 33.6355 55.3617 33.4397 55.3617 33.1904V32.1534H55.7351V34.5838H55.3617V34.2059C55.2442 34.3553 55.1291 34.4632 55.0163 34.5287C54.9036 34.5942 54.7781 34.6278 54.6405 34.6278C54.3007 34.6278 54.0617 34.4999 53.9241 34.2451V34.2443Z" fill="white"/>
<path d="M56.6528 34.464C56.4721 34.3553 56.3322 34.2059 56.233 34.0158C56.1331 33.8256 56.0835 33.6115 56.0835 33.3742C56.0835 33.1369 56.1307 32.9396 56.2242 32.7478C56.3178 32.5561 56.4537 32.4011 56.6312 32.2844C56.8087 32.167 57.0174 32.1086 57.258 32.1086C57.4659 32.1086 57.6594 32.1558 57.8385 32.2493C58.0176 32.3427 58.1607 32.4802 58.2695 32.6599C58.3782 32.8397 58.4318 33.0562 58.4318 33.3079V33.4397H56.4529C56.4585 33.5244 56.4753 33.6051 56.5017 33.6818C56.5632 33.8695 56.6624 34.019 56.7983 34.13C56.935 34.2411 57.0893 34.297 57.262 34.297C57.4347 34.297 57.589 34.2499 57.7146 34.1564C57.8409 34.0629 57.9312 33.9439 57.9872 33.8H58.3878C58.3086 34.0461 58.1735 34.2451 57.9832 34.3977C57.7929 34.5503 57.5539 34.6262 57.2668 34.6262C57.0382 34.6262 56.8335 34.5718 56.6536 34.4632L56.6528 34.464ZM58.0312 33.1105C58.0256 33.0227 58.008 32.9436 57.9784 32.8732C57.9169 32.7358 57.8225 32.6288 57.6946 32.5521C57.5675 32.4762 57.4243 32.4378 57.266 32.4378C57.1077 32.4378 56.963 32.4762 56.8415 32.5521C56.7199 32.628 56.6256 32.735 56.5576 32.8732C56.528 32.938 56.5049 33.0171 56.4873 33.1105H58.0304H58.0312Z" fill="white"/>
<path d="M59.9349 34.2443C59.8589 34.1005 59.8206 33.8911 59.8206 33.6163V32.1526H60.1947V33.6163C60.1947 33.8743 60.2419 34.0557 60.3355 34.1612C60.4178 34.2523 60.5417 34.2978 60.7089 34.2978C60.8935 34.2978 61.0415 34.2379 61.1534 34.1172C61.2326 34.0349 61.2893 33.9223 61.3229 33.7793C61.3565 33.6355 61.3733 33.4397 61.3733 33.1904V32.1534H61.7467V34.5838H61.3733V34.2059C61.2557 34.3553 61.1406 34.4632 61.0279 34.5287C60.9151 34.5942 60.7896 34.6278 60.6521 34.6278C60.3123 34.6278 60.0732 34.4999 59.9357 34.2451L59.9349 34.2443Z" fill="white"/>
<path d="M62.1953 34.582V32.1516H62.5687V32.5295C62.6886 32.3745 62.8054 32.2651 62.9181 32.2019C63.0308 32.1388 63.1548 32.1077 63.2899 32.1077C63.6329 32.1077 63.872 32.2347 64.0063 32.4896C64.0559 32.5862 64.0878 32.6853 64.1006 32.786C64.1142 32.8875 64.1206 32.9977 64.1206 33.1176V34.5804H63.7464V33.1176C63.7464 32.8595 63.6993 32.6781 63.6057 32.5727C63.5234 32.4816 63.3994 32.4368 63.2323 32.4368C63.0476 32.4368 62.8997 32.4968 62.7886 32.6174C62.7094 32.6997 62.6527 32.8123 62.6191 32.9554C62.5855 33.0992 62.5687 33.2949 62.5687 33.5442V34.5812H62.1953V34.582Z" fill="white"/>
<path d="M66.0802 34.464C65.9003 34.3553 65.7596 34.2051 65.658 34.011C65.5565 33.8176 65.5061 33.5995 65.5061 33.3566C65.5061 33.1137 65.5565 32.9052 65.658 32.7151C65.7588 32.5249 65.8995 32.3763 66.0802 32.2692C66.2601 32.1622 66.4648 32.1086 66.6934 32.1086C66.9221 32.1086 67.1276 32.1622 67.3091 32.2692C67.4906 32.3763 67.6329 32.5249 67.7352 32.7151C67.8376 32.9052 67.8895 33.1193 67.8895 33.3566C67.8895 33.5939 67.8392 33.8176 67.7376 34.0094C67.6369 34.2011 67.4954 34.3521 67.3131 34.4624C67.1308 34.5726 66.9245 34.627 66.6934 34.627C66.4624 34.627 66.2601 34.5726 66.0802 34.464ZM67.1092 34.174C67.2339 34.0917 67.3323 33.9798 67.4034 33.8376C67.4754 33.6954 67.5114 33.5348 67.5114 33.3566C67.5114 33.1784 67.4762 33.0314 67.4058 32.8908C67.3355 32.7502 67.2379 32.64 67.1132 32.5593C66.9885 32.4786 66.8485 32.4386 66.6934 32.4386C66.5383 32.4386 66.4024 32.4778 66.2777 32.5569C66.1529 32.636 66.0554 32.7454 65.985 32.886C65.9147 33.0266 65.8795 33.1832 65.8795 33.3566C65.8795 33.53 65.9147 33.6962 65.985 33.84C66.0554 33.9838 66.1529 34.0957 66.2777 34.1763C66.4024 34.257 66.5407 34.297 66.6934 34.297C66.8461 34.297 66.9845 34.2562 67.1092 34.174Z" fill="white"/>
<path d="M69.9837 32.2667C70.1476 32.3721 70.2747 32.5199 70.3643 32.7101C70.4538 32.9002 70.4986 33.1191 70.4986 33.3652C70.4986 33.6113 70.4538 33.8302 70.3643 34.022C70.2747 34.2137 70.1492 34.3623 69.9861 34.4678C69.823 34.5733 69.6335 34.626 69.4168 34.626C69.2497 34.626 69.1058 34.5948 68.9858 34.5333C68.8659 34.4718 68.7436 34.3615 68.6205 34.2041V35.5048H68.2471V32.1516H68.6205V32.5295C68.7404 32.3745 68.8611 32.2651 68.9811 32.2019C69.101 32.1388 69.2465 32.1077 69.4168 32.1077C69.6311 32.1077 69.8198 32.1604 69.9845 32.2659L69.9837 32.2667ZM68.9811 32.5567C68.8635 32.6358 68.7724 32.746 68.706 32.8883C68.6404 33.0305 68.6069 33.1895 68.6069 33.3652C68.6069 33.541 68.6396 33.7032 68.706 33.8438C68.7724 33.9844 68.8635 34.0947 68.9811 34.1754C69.0986 34.2561 69.2313 34.296 69.3816 34.296C69.5319 34.296 69.6623 34.2561 69.775 34.1754C69.8877 34.0947 69.9741 33.9844 70.0348 33.8438C70.0948 33.7032 70.1252 33.5434 70.1252 33.3652C70.1252 33.1871 70.0948 33.0313 70.0348 32.8906C69.9749 32.75 69.8885 32.6398 69.775 32.5591C69.6623 32.4784 69.5311 32.4384 69.3816 32.4384C69.2321 32.4384 69.0986 32.4776 68.9811 32.5567Z" fill="white"/>
<path d="M71.3222 34.464C71.1423 34.3553 71.0016 34.2059 70.9024 34.0158C70.8025 33.8256 70.7529 33.6115 70.7529 33.3742C70.7529 33.1369 70.8001 32.9396 70.8937 32.7478C70.9872 32.5561 71.1231 32.4011 71.3006 32.2844C71.4781 32.167 71.6868 32.1086 71.9275 32.1086C72.1353 32.1086 72.3288 32.1558 72.5079 32.2493C72.687 32.3427 72.8301 32.4802 72.9389 32.6599C73.0476 32.8405 73.102 33.0562 73.102 33.3079V33.4397H71.1231C71.1287 33.5244 71.1455 33.6051 71.1719 33.6818C71.2335 33.8695 71.3326 34.019 71.4685 34.13C71.6052 34.2411 71.7596 34.297 71.9323 34.297C72.105 34.297 72.2593 34.2499 72.3856 34.1564C72.5119 34.0629 72.6023 33.9439 72.6582 33.8H73.058C72.9789 34.0461 72.8437 34.2451 72.6534 34.3977C72.4632 34.5503 72.2241 34.6262 71.9371 34.6262C71.7084 34.6262 71.5037 34.5718 71.3238 34.4632L71.3222 34.464ZM72.7006 33.1105C72.695 33.0227 72.6774 32.9436 72.6478 32.8732C72.5863 32.7358 72.4919 32.6288 72.364 32.5521C72.2369 32.4762 72.0938 32.4378 71.9355 32.4378C71.7771 32.4378 71.6324 32.4762 71.5109 32.5521C71.3894 32.628 71.2942 32.735 71.2271 32.8732C71.1975 32.938 71.1743 33.0171 71.1567 33.1105H72.6998H72.7006Z" fill="white"/>
<path d="M73.4441 34.582V32.1516H73.8183V32.4856C73.9294 32.3506 74.0485 32.2539 74.1749 32.1956C74.3012 32.1372 74.4475 32.1077 74.6146 32.1077H74.6322V32.4808H74.5051C74.3084 32.4808 74.1517 32.5391 74.035 32.6566C73.891 32.794 73.8191 33.0097 73.8191 33.3021V34.5812H73.4449L73.4441 34.582Z" fill="white"/>
<path d="M74.9151 34.4416C74.7728 34.3186 74.7017 34.15 74.7017 33.9367C74.7017 33.7233 74.7808 33.5588 74.9391 33.4357C75.0679 33.3334 75.2541 33.2567 75.498 33.2072L76.3639 33.0402C76.3639 32.8501 76.3143 32.7047 76.2144 32.6056C76.1033 32.4945 75.9538 32.4386 75.7659 32.4386C75.6163 32.4386 75.4868 32.4786 75.3765 32.5593C75.2661 32.64 75.1966 32.7478 75.1678 32.882H74.7936C74.8344 32.6392 74.9471 32.449 75.1302 32.3132C75.3133 32.1766 75.5268 32.1086 75.7699 32.1086C75.9138 32.1086 76.0465 32.1302 76.1696 32.1726C76.2928 32.2149 76.3967 32.2772 76.4822 32.3595C76.5934 32.465 76.6637 32.5864 76.6933 32.7238C76.7229 32.8613 76.7373 33.0035 76.7373 33.1497V34.5822H76.3639V34.1995C76.2792 34.3226 76.1808 34.4176 76.0697 34.4855C75.9202 34.579 75.7283 34.6262 75.4932 34.6262C75.2581 34.6262 75.0567 34.5646 74.9151 34.4416ZM75.9242 34.2131C76.0881 34.1284 76.2032 34.0158 76.2696 33.8751C76.3351 33.7345 76.3687 33.5572 76.3687 33.343L75.5772 33.5012C75.3957 33.5364 75.2621 33.5939 75.1766 33.673C75.1094 33.7401 75.0759 33.8256 75.0759 33.9279C75.0759 34.0389 75.1174 34.1284 75.2014 34.1955C75.2845 34.2626 75.3973 34.297 75.538 34.297C75.6875 34.297 75.8162 34.269 75.925 34.2131H75.9242Z" fill="white"/>
<path d="M77.5818 34.468C77.4179 34.3625 77.2908 34.2147 77.2012 34.0246C77.1117 33.8344 77.0669 33.6163 77.0669 33.3694C77.0669 33.1225 77.1117 32.9044 77.2012 32.7127C77.2908 32.5209 77.4163 32.3723 77.5794 32.2669C77.7417 32.1614 77.932 32.1087 78.1487 32.1087C78.3158 32.1087 78.4597 32.1398 78.5796 32.2005C78.6996 32.2621 78.8211 32.3723 78.9442 32.5297V31.229H79.3184V34.5814H78.9442V34.2035C78.8243 34.3585 78.7036 34.468 78.5836 34.5311C78.4637 34.5942 78.3182 34.6254 78.1479 34.6254C77.9336 34.6254 77.7449 34.5726 77.581 34.4672L77.5818 34.468ZM78.5844 34.178C78.702 34.0989 78.7931 33.9886 78.8595 33.8464C78.925 33.7042 78.9586 33.5452 78.9586 33.3694C78.9586 33.1936 78.9258 33.0315 78.8595 32.8908C78.7931 32.7502 78.702 32.64 78.5844 32.5593C78.4669 32.4786 78.3342 32.4386 78.1847 32.4386C78.0351 32.4386 77.904 32.4786 77.7913 32.5593C77.6785 32.64 77.5922 32.7502 77.5322 32.8908C77.4723 33.0315 77.4419 33.1912 77.4419 33.3694C77.4419 33.5476 77.4723 33.7034 77.5322 33.844C77.5922 33.9846 77.6785 34.0949 77.7913 34.1756C77.904 34.2563 78.0351 34.2962 78.1847 34.2962C78.3342 34.2962 78.4677 34.2571 78.5844 34.1772V34.178Z" fill="white"/>
<path d="M80.1307 34.464C79.9508 34.3553 79.8101 34.2051 79.7086 34.011C79.607 33.8176 79.5566 33.5995 79.5566 33.3566C79.5566 33.1137 79.607 32.9052 79.7086 32.7151C79.8101 32.5249 79.9508 32.3763 80.1307 32.2692C80.3114 32.1622 80.5153 32.1086 80.744 32.1086C80.9726 32.1086 81.1781 32.1622 81.3596 32.2692C81.5411 32.3763 81.6834 32.5249 81.7858 32.7151C81.8881 32.9052 81.9393 33.1193 81.9393 33.3566C81.9393 33.5939 81.8889 33.8176 81.7874 34.0094C81.6858 34.2011 81.5443 34.3521 81.3628 34.4624C81.1813 34.5726 80.9742 34.627 80.7432 34.627C80.5121 34.627 80.3098 34.5726 80.1299 34.464H80.1307ZM81.1597 34.174C81.2845 34.0917 81.3828 33.9798 81.454 33.8376C81.5259 33.6954 81.5619 33.5348 81.5619 33.3566C81.5619 33.1784 81.5267 33.0314 81.4564 32.8908C81.386 32.7502 81.2885 32.64 81.1637 32.5593C81.039 32.4786 80.8991 32.4386 80.744 32.4386C80.5888 32.4386 80.4529 32.4778 80.3282 32.5569C80.2035 32.636 80.1059 32.7454 80.0356 32.886C79.9652 33.0266 79.93 33.1832 79.93 33.3566C79.93 33.53 79.9652 33.6962 80.0356 33.84C80.1059 33.9838 80.2035 34.0957 80.3282 34.1763C80.4529 34.257 80.5912 34.297 80.744 34.297C80.8967 34.297 81.035 34.2562 81.1597 34.174Z" fill="white"/>
<path d="M82.2917 34.582V32.1516H82.6651V32.4856C82.7763 32.3506 82.8954 32.2539 83.0217 32.1956C83.1481 32.1372 83.2944 32.1077 83.4615 32.1077H83.4791V32.4808H83.3511C83.1545 32.4808 82.9977 32.5391 82.881 32.6566C82.7371 32.794 82.6651 33.0097 82.6651 33.3021V34.5812H82.2917V34.582Z" fill="white"/>
<path d="M83.6064 35.1359C83.7415 35.1151 83.8455 35.0624 83.919 34.9777C83.9926 34.893 84.0293 34.7875 84.0293 34.6613C84.0293 34.6173 84.0245 34.5734 84.0158 34.5294C83.9774 34.5942 83.9118 34.6261 83.8183 34.6261C83.7535 34.6261 83.6999 34.6038 83.6552 34.5582C83.6112 34.5127 83.5896 34.452 83.5896 34.3761C83.5896 34.3001 83.6152 34.2322 83.6664 34.1827C83.7175 34.1332 83.7855 34.1084 83.871 34.1084C83.9854 34.1084 84.0773 34.1555 84.1461 34.249C84.2148 34.3425 84.2492 34.4655 84.2492 34.6181C84.2492 34.7971 84.1957 34.9553 84.0885 35.0927C83.9814 35.2301 83.8207 35.3108 83.6072 35.3348V35.1375L83.6064 35.1359Z" fill="white"/>
<path d="M85.7083 34.2443C85.6316 34.1005 85.594 33.8911 85.594 33.6163V32.1526H85.9674V33.6163C85.9674 33.8743 86.0146 34.0557 86.1081 34.1612C86.1905 34.2523 86.3152 34.2978 86.4823 34.2978C86.667 34.2978 86.8149 34.2379 86.926 34.1172C87.0052 34.0349 87.062 33.9223 87.0955 33.7793C87.1291 33.6355 87.1459 33.4397 87.1459 33.1904V32.1534H87.5193V34.5838H87.1459V34.2059C87.0284 34.3553 86.9132 34.4632 86.8005 34.5287C86.6878 34.5942 86.5622 34.6278 86.4247 34.6278C86.0849 34.6278 85.8459 34.4999 85.7083 34.2451V34.2443Z" fill="white"/>
<path d="M87.9686 34.582V32.1516H88.342V32.5295C88.4619 32.3745 88.5786 32.2651 88.6914 32.2019C88.8041 32.1388 88.928 32.1077 89.0631 32.1077C89.4061 32.1077 89.6452 32.2347 89.7795 32.4896C89.8291 32.5862 89.8611 32.6853 89.8739 32.786C89.8867 32.8867 89.8939 32.9977 89.8939 33.1176V34.5804H89.5197V33.1176C89.5197 32.8595 89.4725 32.6781 89.379 32.5727C89.2966 32.4816 89.1727 32.4368 89.0048 32.4368C88.8201 32.4368 88.6722 32.4968 88.561 32.6174C88.4819 32.6997 88.4251 32.8123 88.3915 32.9554C88.3579 33.0992 88.3412 33.2949 88.3412 33.5442V34.5812H87.9678L87.9686 34.582Z" fill="white"/>
<path d="M90.4376 34.4416C90.2953 34.3186 90.2241 34.15 90.2241 33.9367C90.2241 33.7233 90.3033 33.5588 90.4616 33.4357C90.5903 33.3334 90.7766 33.2567 91.0197 33.2072L91.8864 33.0402C91.8864 32.8501 91.8368 32.7047 91.7369 32.6056C91.6257 32.4945 91.4762 32.4386 91.2883 32.4386C91.1388 32.4386 91.0093 32.4786 90.8989 32.5593C90.7886 32.64 90.719 32.7478 90.6903 32.882H90.3169C90.3576 32.6392 90.4704 32.449 90.6535 32.3132C90.8366 32.1766 91.05 32.1086 91.2931 32.1086C91.437 32.1086 91.5698 32.1302 91.6929 32.1726C91.816 32.2149 91.92 32.2772 92.0055 32.3595C92.1166 32.465 92.187 32.5864 92.2166 32.7238C92.2462 32.8613 92.2606 33.0035 92.2606 33.1497V34.5822H91.8872V34.1995C91.8024 34.3226 91.7041 34.4176 91.5921 34.4855C91.4426 34.579 91.2507 34.6262 91.0157 34.6262C90.7806 34.6262 90.5791 34.5646 90.4376 34.4416ZM91.4474 34.2131C91.6113 34.1284 91.7265 34.0158 91.7928 33.8751C91.8592 33.7345 91.892 33.5572 91.892 33.343L91.1004 33.5012C90.9189 33.5364 90.7854 33.5939 90.7006 33.673C90.6335 33.7401 90.5999 33.8256 90.5999 33.9279C90.5999 34.0389 90.6415 34.1284 90.7254 34.1955C90.8094 34.2626 90.9213 34.297 91.062 34.297C91.2116 34.297 91.3403 34.269 91.449 34.2131H91.4474Z" fill="white"/>
<path d="M93.9668 34.4064C93.7733 34.2602 93.6558 34.058 93.615 33.8H94.006C94.038 33.955 94.1139 34.0772 94.2322 34.1651C94.3506 34.253 94.5145 34.2969 94.7224 34.2969C94.8919 34.2969 95.0278 34.265 95.1293 34.2002C95.2301 34.1355 95.2812 34.0437 95.2812 33.9238C95.2812 33.8303 95.2509 33.7544 95.1909 33.6977C95.1309 33.641 95.0542 33.597 94.9622 33.5683C94.8695 33.5387 94.7471 33.51 94.5952 33.4804C94.4049 33.442 94.2514 33.4037 94.1355 33.3637C94.0196 33.3246 93.9204 33.2607 93.8389 33.1728C93.7573 33.0849 93.7157 32.9635 93.7157 32.8085C93.7157 32.5888 93.7989 32.417 93.9644 32.2939C94.1299 32.1709 94.3418 32.1094 94.6 32.1094C94.8583 32.1094 95.0837 32.1781 95.2596 32.3155C95.4355 32.4529 95.5443 32.6423 95.5851 32.882H95.2381C95.2029 32.7326 95.1293 32.6215 95.0182 32.548C94.907 32.4745 94.7671 32.4377 94.6 32.4377C94.4329 32.4377 94.3138 32.4681 94.2242 32.528C94.1347 32.588 94.0899 32.671 94.0899 32.7765C94.0899 32.8588 94.1179 32.9227 94.1731 32.9699C94.229 33.017 94.2978 33.0529 94.3793 33.0777C94.4617 33.1025 94.5776 33.1296 94.7272 33.1592C94.9238 33.1976 95.0838 33.2375 95.2061 33.2798C95.3292 33.3222 95.4348 33.3909 95.5227 33.486C95.6107 33.5811 95.6546 33.7137 95.6546 33.8839C95.6546 34.1124 95.5723 34.2929 95.4084 34.4264C95.2445 34.5598 95.0142 34.6261 94.7176 34.6261C94.4209 34.6261 94.1587 34.5526 93.9652 34.4064H93.9668Z" fill="white"/>
<path d="M96.4845 34.464C96.3046 34.3553 96.1639 34.2051 96.0623 34.011C95.9616 33.8176 95.9104 33.5995 95.9104 33.3566C95.9104 33.1137 95.9608 32.9052 96.0623 32.7151C96.1639 32.5249 96.3046 32.3763 96.4845 32.2692C96.6644 32.1622 96.8691 32.1086 97.0977 32.1086C97.3264 32.1086 97.5319 32.1622 97.7134 32.2692C97.8949 32.3763 98.0372 32.5249 98.1403 32.7151C98.2427 32.9052 98.2938 33.1193 98.2938 33.3566C98.2938 33.5939 98.2435 33.8176 98.1419 34.0094C98.0404 34.2011 97.8989 34.3521 97.7174 34.4624C97.5359 34.5726 97.3288 34.627 97.0977 34.627C96.8667 34.627 96.6644 34.5726 96.4845 34.464ZM97.5135 34.174C97.6382 34.0917 97.7366 33.9798 97.8085 33.8376C97.8805 33.6954 97.9165 33.5348 97.9165 33.3566C97.9165 33.1784 97.8813 33.0314 97.8109 32.8908C97.7406 32.7502 97.643 32.64 97.5183 32.5593C97.3936 32.4786 97.2536 32.4386 97.0985 32.4386C96.9434 32.4386 96.8075 32.4778 96.6828 32.5569C96.558 32.636 96.4605 32.7454 96.3901 32.886C96.3198 33.0266 96.2846 33.1832 96.2846 33.3566C96.2846 33.53 96.3198 33.6962 96.3901 33.84C96.4605 33.9838 96.558 34.0957 96.6828 34.1763C96.8075 34.257 96.9458 34.297 97.0985 34.297C97.2512 34.297 97.3896 34.2562 97.5143 34.174H97.5135Z" fill="white"/>
<path d="M99.2134 34.5822C99.0167 34.5822 98.872 34.5382 98.7784 34.4503C98.6849 34.3625 98.6377 34.2027 98.6377 33.9718V31.2297H99.0111V33.9142C99.0111 33.9989 99.0167 34.0644 99.0287 34.11C99.0407 34.1555 99.0671 34.1907 99.1078 34.2154C99.1486 34.2402 99.2134 34.253 99.3013 34.253H99.4197V34.5822H99.2134Z" fill="white"/>
<path d="M99.7716 34.2443C99.6956 34.1005 99.6572 33.8911 99.6572 33.6163V32.1526H100.031V33.6163C100.031 33.8743 100.078 34.0557 100.171 34.1612C100.254 34.2523 100.378 34.2978 100.545 34.2978C100.729 34.2978 100.877 34.2379 100.988 34.1172C101.068 34.0349 101.124 33.9223 101.158 33.7793C101.192 33.6355 101.208 33.4397 101.208 33.1904V32.1534H101.583V34.5838H101.208V34.2059C101.091 34.3553 100.976 34.4632 100.863 34.5287C100.75 34.5942 100.625 34.6278 100.487 34.6278C100.147 34.6278 99.9083 34.4999 99.7708 34.2451L99.7716 34.2443Z" fill="white"/>
<path d="M102.498 34.464C102.319 34.3553 102.18 34.2051 102.08 34.011C101.98 33.8176 101.93 33.5995 101.93 33.3566C101.93 33.1137 101.98 32.9052 102.08 32.7151C102.18 32.5249 102.319 32.3763 102.498 32.2692C102.677 32.1622 102.881 32.1086 103.109 32.1086C103.381 32.1086 103.612 32.1782 103.801 32.3172C103.991 32.4562 104.113 32.6447 104.168 32.882H103.768C103.721 32.747 103.639 32.64 103.52 32.5593C103.401 32.4786 103.264 32.4386 103.109 32.4386C102.954 32.4386 102.819 32.4778 102.698 32.5569C102.576 32.636 102.48 32.7454 102.41 32.8844C102.34 33.0235 102.304 33.1808 102.304 33.3566C102.304 33.5324 102.339 33.7002 102.408 33.8424C102.476 33.9846 102.572 34.0957 102.695 34.1763C102.818 34.257 102.956 34.297 103.109 34.297C103.276 34.297 103.421 34.2515 103.542 34.1604C103.664 34.0693 103.745 33.9494 103.786 33.8H104.186C104.133 34.0581 104.009 34.2602 103.814 34.4064C103.619 34.5527 103.384 34.6262 103.108 34.6262C102.879 34.6262 102.675 34.5718 102.497 34.4632L102.498 34.464Z" fill="white"/>
<path d="M104.49 31.654C104.434 31.5997 104.406 31.5349 104.406 31.4582C104.406 31.3815 104.434 31.3176 104.49 31.2649C104.546 31.2122 104.613 31.1858 104.692 31.1858C104.771 31.1858 104.838 31.2122 104.894 31.2649C104.95 31.3176 104.978 31.3823 104.978 31.4582C104.978 31.5341 104.95 31.5997 104.894 31.654C104.838 31.7083 104.771 31.7355 104.692 31.7355C104.613 31.7355 104.546 31.7083 104.49 31.654ZM104.877 34.5822H104.502V32.1517H104.877V34.5822Z" fill="white"/>
<path d="M105.798 34.4639C105.619 34.3553 105.478 34.2051 105.376 34.0109C105.275 33.8176 105.224 33.5994 105.224 33.3566C105.224 33.1137 105.275 32.9052 105.376 32.715C105.478 32.5248 105.619 32.3762 105.798 32.2692C105.979 32.1621 106.183 32.1086 106.412 32.1086C106.64 32.1086 106.846 32.1621 107.027 32.2692C107.209 32.3762 107.351 32.5248 107.453 32.715C107.556 32.9052 107.607 33.1193 107.607 33.3566C107.607 33.5939 107.557 33.8176 107.455 34.0093C107.354 34.2011 107.212 34.3521 107.031 34.4623C106.849 34.5726 106.642 34.6269 106.411 34.6269C106.18 34.6269 105.978 34.5726 105.798 34.4639H105.798ZM106.827 34.1739C106.952 34.0916 107.051 33.9798 107.122 33.8375C107.194 33.6953 107.23 33.5347 107.23 33.3566C107.23 33.1784 107.194 33.0314 107.124 32.8908C107.054 32.7502 106.956 32.6399 106.831 32.5592C106.707 32.4785 106.567 32.4386 106.412 32.4386C106.257 32.4386 106.121 32.4777 105.996 32.5568C105.871 32.6359 105.774 32.7454 105.703 32.886C105.633 33.0266 105.598 33.1832 105.598 33.3566C105.598 33.5299 105.633 33.6961 105.703 33.8399C105.774 33.9837 105.871 34.0956 105.996 34.1763C106.121 34.257 106.259 34.2969 106.412 34.2969C106.564 34.2969 106.703 34.2562 106.827 34.1739ZM106.556 31.8977H106.213L106.728 31.2297H107.185L106.556 31.8977H106.556Z" fill="white"/>
<path d="M107.96 34.582V32.1516H108.333V32.5295C108.453 32.3745 108.57 32.2651 108.682 32.2019C108.795 32.1388 108.919 32.1077 109.054 32.1077C109.397 32.1077 109.636 32.2347 109.77 32.4896C109.82 32.5862 109.852 32.6853 109.865 32.786C109.878 32.8867 109.885 32.9977 109.885 33.1176V34.5804H109.511V33.1176C109.511 32.8595 109.463 32.6781 109.37 32.5727C109.288 32.4816 109.164 32.4368 108.996 32.4368C108.811 32.4368 108.663 32.4968 108.552 32.6174C108.473 32.6997 108.416 32.8123 108.382 32.9554C108.349 33.0992 108.332 33.2949 108.332 33.5442V34.5812H107.959L107.96 34.582Z" fill="white"/>
</g>
<defs>
<clipPath id="clip0_22844_1601">
<rect width="157" height="35" fill="white" transform="translate(0.166748 0.504883)"/>
</clipPath>
</defs>
</svg>
