<svg width="137" height="37" viewBox="0 0 137 37" fill="none" xmlns="http://www.w3.org/2000/svg">
<path d="M52.4956 4.94067V9.59402H45.8998V29.6203H41.0858V9.59402H34.5264V4.94067H52.4956Z" fill="white"/>
<path d="M65.0563 11.9901H69.5571V29.6199H65.0563V27.5397C63.7065 29.2568 61.8106 30.1129 59.3684 30.1129C57.0427 30.1129 55.0472 29.2151 53.3843 27.4146C51.7213 25.6166 50.8887 23.4138 50.8887 20.8038C50.8887 18.1938 51.7213 15.991 53.3843 14.1929C55.0472 12.3949 57.0427 11.4946 59.3684 11.4946C61.8106 11.4946 63.7065 12.3532 65.0563 14.0678V11.9901ZM56.7514 24.3827C57.6593 25.3124 58.81 25.776 60.2059 25.776C61.6018 25.776 62.7598 25.3124 63.6774 24.3827C64.595 23.4555 65.0563 22.2609 65.0563 20.8038C65.0563 19.3467 64.5975 18.1545 63.6774 17.2248C62.7573 16.2976 61.6018 15.8315 60.2059 15.8315C58.81 15.8315 57.6593 16.2952 56.7514 17.2248C55.8435 18.1545 55.3895 19.3467 55.3895 20.8038C55.3919 22.2633 55.8459 23.4555 56.7514 24.3827Z" fill="white"/>
<path d="M77.6533 16.9972C77.6533 17.4682 77.9616 17.8484 78.5782 18.1427C79.1948 18.4371 79.945 18.6947 80.8286 18.9179C81.7123 19.1411 82.5959 19.4232 83.4796 19.7642C84.3633 20.1051 85.1134 20.6742 85.73 21.4739C86.3466 22.2736 86.6549 23.272 86.6549 24.4715C86.6549 26.2818 85.9849 27.6751 84.6497 28.6489C83.3121 29.6252 81.6419 30.1109 79.6415 30.1109C76.0583 30.1109 73.6161 28.7127 72.3149 25.9163L76.2234 23.6963C76.7356 25.2245 77.8742 25.9874 79.6439 25.9874C81.2486 25.9874 82.0522 25.4821 82.0522 24.4715C82.0522 24.0005 81.7438 23.6203 81.1272 23.3259C80.5106 23.0316 79.7605 22.7666 78.8768 22.5336C77.9932 22.2981 77.1095 22.0038 76.2258 21.653C75.3422 21.2997 74.5921 20.7429 73.9754 19.9776C73.3588 19.2147 73.0505 18.2556 73.0505 17.1051C73.0505 15.3659 73.6841 13.9972 74.9513 12.9988C76.2186 12.0004 77.7941 11.5 79.6804 11.5C81.0981 11.5 82.3896 11.8238 83.5524 12.4689C84.7153 13.1165 85.6329 14.0389 86.3078 15.2359L82.4697 17.3504C81.9113 16.1509 80.9816 15.5524 79.6779 15.5524C79.0953 15.5524 78.6146 15.6824 78.2311 15.9399C77.8451 16.2 77.6533 16.5507 77.6533 16.9972Z" fill="white"/>
<path d="M102.531 11.9901H107.032V36.6698H102.531V27.5373C101.206 29.2544 99.3221 30.1105 96.8799 30.1105C94.53 30.1105 92.5247 29.2127 90.8618 27.4122C89.1989 25.6141 88.3662 23.4113 88.3662 20.8013C88.3662 18.1913 89.1989 15.9885 90.8618 14.1905C92.5247 12.3924 94.53 11.4922 96.8799 11.4922C99.3221 11.4922 101.206 12.3507 102.531 14.0654V11.9901ZM94.2435 24.3827C95.1611 25.3124 96.3191 25.776 97.715 25.776C99.1109 25.776 100.262 25.3124 101.17 24.3827C102.077 23.4555 102.531 22.2609 102.531 20.8038C102.531 19.3467 102.077 18.1545 101.17 17.2249C100.262 16.2976 99.1109 15.8315 97.715 15.8315C96.3191 15.8315 95.1611 16.2952 94.2435 17.2249C93.3234 18.1545 92.8646 19.3467 92.8646 20.8038C92.867 22.2633 93.3259 23.4555 94.2435 24.3827Z" fill="white"/>
<path d="M122.664 11.99H127.165V29.6197H122.664V27.645C121.569 29.291 119.838 30.1128 117.464 30.1128C115.556 30.1128 113.98 29.4676 112.735 28.1749C111.489 26.8822 110.868 25.0964 110.868 22.8151V11.99H115.369V22.2509C115.369 23.4259 115.682 24.3261 116.311 24.9492C116.939 25.5723 117.777 25.8838 118.823 25.8838C119.986 25.8838 120.916 25.5207 121.615 24.7898C122.312 24.0612 122.661 22.9672 122.661 21.5101V11.99H122.664Z" fill="white"/>
<path d="M133.515 9.87563C132.77 9.87563 132.124 9.59844 131.578 9.04651C131.032 8.49459 130.757 7.84209 130.757 7.08902C130.757 6.33595 131.032 5.67854 131.578 5.11435C132.124 4.55016 132.77 4.26807 133.515 4.26807C134.282 4.26807 134.94 4.55016 135.486 5.11435C136.033 5.67854 136.307 6.33595 136.307 7.08902C136.307 7.84209 136.033 8.49459 135.486 9.04651C134.94 9.59844 134.282 9.87563 133.515 9.87563ZM131.282 29.6198V11.9901H135.783V29.6198H131.282Z" fill="white"/>
<path d="M17.3411 0L8.18653 9.24782L6.92174 7.9698H0.359863L8.18653 15.8783L23.903 0H17.3411Z" fill="white"/>
<path opacity="0.8" d="M17.3411 9.58643L8.18653 18.8342L6.92174 17.5562H0.359863L8.18653 25.4647L23.903 9.58643H17.3411Z" fill="white"/>
<path opacity="0.35" d="M17.3411 19.1699L8.18653 28.4202L6.92174 27.1397H0.359863L8.18653 35.0482L23.903 19.1699H17.3411Z" fill="white"/>
</svg>
