<svg width="172" height="18" viewBox="0 0 172 18" fill="none" xmlns="http://www.w3.org/2000/svg">
<g clip-path="url(#clip0_22844_1286)">
<path d="M12.505 5.55798H6.66919V2.60036C6.66919 2.3046 6.74372 2.02457 6.87657 1.7823C7.18116 1.22224 7.78709 0.838379 8.48375 0.838379H10.6872C11.3871 0.838379 11.993 1.22224 12.2943 1.7823C12.4272 2.02772 12.5017 2.3046 12.5017 2.60036V5.55798H12.505Z" fill="white"/>
<path d="M5.69711 6.50146V12.1681H2.65123C2.34665 12.1681 2.0615 12.0958 1.80876 11.9668C1.24495 11.6804 0.856112 11.1141 0.83667 10.4596C0.83667 10.4408 0.83667 10.4219 0.83667 10.4061V8.2666C0.83667 8.24772 0.83667 8.22884 0.83667 8.21311C0.856112 7.55866 1.24495 6.9923 1.80876 6.70598C2.0615 6.57698 2.34665 6.50461 2.65123 6.50461H5.69711V6.50146Z" fill="white"/>
<path d="M18.3408 8.2666V10.4061C18.3408 11.3815 17.5275 12.1713 16.523 12.1713H12.505V16.076C12.505 17.0513 11.6917 17.8411 10.6872 17.8411H8.48382C7.47933 17.8411 6.66602 17.0513 6.66602 16.076V13.1498V6.50146H16.5197C17.5275 6.50146 18.3408 7.29121 18.3408 8.2666Z" fill="white"/>
<path d="M24.0693 3.604H32.1992V6.1463H26.7815V8.5061H31.1721V11.0452H26.7815V15.038H24.0726V3.604H24.0693Z" fill="white"/>
<path d="M34.7948 12.8607L34.0463 15.038H31.2434L35.4493 3.604H38.2522L42.4581 15.038H39.6552L38.9067 12.8607H34.7948ZM38.1582 10.5922L36.8491 6.78187L35.54 10.5922H38.1582Z" fill="white"/>
<path d="M48.0834 3.604C48.6925 3.604 49.2499 3.70154 49.7554 3.89347C50.2608 4.08855 50.6918 4.34655 51.0547 4.67378C51.4144 5.00101 51.6963 5.38487 51.8972 5.82536C52.0948 6.269 52.1953 6.73467 52.1953 7.2318C52.1953 7.87367 52.0786 8.4117 51.8486 8.84591C51.6185 9.28011 51.3625 9.63565 51.0806 9.90624C50.7987 10.18 50.4229 10.4348 49.9498 10.6771L52.5679 15.0317H49.5771L47.4288 11.2214H46.0258V15.0317H43.3169V3.604H48.0834ZM48.0834 8.68544C48.5565 8.68544 48.9226 8.56588 49.1851 8.3236C49.4475 8.08133 49.5771 7.77928 49.5771 7.41744C49.5771 7.0556 49.4475 6.75355 49.1851 6.51128C48.9226 6.26901 48.5565 6.14944 48.0834 6.14944H46.029V8.69173H48.0834V8.68544Z" fill="white"/>
<path d="M63.831 3.604H66.2612V15.038H63.5523V9.32101L60.8434 15.038H59.1585L56.4496 9.32101V15.038H53.7407V3.604H56.1709L60.001 11.6808L63.831 3.604Z" fill="white"/>
<path d="M70.6681 12.8607L69.9196 15.038H67.1167L71.3226 3.604H74.1255L78.3314 15.038H75.5285L74.78 12.8607H70.6681ZM74.0315 10.5922L72.7224 6.78187L71.4133 10.5922H74.0315Z" fill="white"/>
<path d="M83.9758 12.5872C84.7243 12.5872 85.3108 12.4142 85.7418 12.0712C86.1728 11.7251 86.4547 11.3255 86.5908 10.863L89.3936 11.0455C89.2575 11.5898 89.0307 12.109 88.7196 12.6061C88.4086 13.1032 88.023 13.5343 87.5596 13.9024C87.0995 14.2705 86.5648 14.5694 85.9621 14.7928C85.3562 15.0162 84.6952 15.1295 83.9726 15.1295C83.1755 15.1295 82.4237 14.9816 81.7206 14.6859C81.0175 14.3901 80.4018 13.9779 79.8801 13.4525C79.3584 12.927 78.9437 12.3135 78.6358 11.6118C78.3313 10.9102 78.179 10.1488 78.179 9.3244C78.179 8.51262 78.3313 7.75434 78.6358 7.0464C78.9404 6.33846 79.3552 5.72177 79.8801 5.19632C80.4018 4.67087 81.0175 4.25869 81.7206 3.96293C82.4237 3.66717 83.1755 3.51929 83.9726 3.51929C84.6693 3.51929 85.3141 3.63256 85.9071 3.85595C86.5 4.07935 87.0217 4.37511 87.4754 4.74638C87.929 5.11451 88.3146 5.54872 88.6257 6.0427C88.9367 6.53983 89.1603 7.05899 89.2996 7.60331L86.4968 7.78581C86.4223 7.55612 86.3153 7.33902 86.1792 7.13136C86.0432 6.92684 85.8682 6.74435 85.6543 6.58703C85.4437 6.42971 85.1974 6.30385 84.9155 6.20631C84.6336 6.10877 84.3193 6.06158 83.9726 6.06158C83.5481 6.06158 83.1496 6.14338 82.7769 6.307C82.4043 6.47061 82.077 6.69715 81.7951 6.98662C81.5165 7.27609 81.2929 7.62219 81.1309 8.02179C80.9688 8.42138 80.8878 8.85558 80.8878 9.32754C80.8878 9.7995 80.9688 10.2337 81.1309 10.6333C81.2929 11.0329 81.5132 11.379 81.7951 11.6685C82.077 11.9579 82.4043 12.1845 82.7769 12.3481C83.1528 12.5054 83.5514 12.5872 83.9758 12.5872Z" fill="white"/>
<path d="M93.2951 15.038H90.5862V3.604H93.2951V15.038Z" fill="white"/>
<path d="M97.7147 12.8607L96.9662 15.038H94.1633L98.3692 3.604H101.172L105.378 15.038H102.575L101.827 12.8607H97.7147ZM101.078 10.5922L99.769 6.78187L98.46 10.5922H101.078Z" fill="white"/>
<path d="M116.201 15.038H113.492V6.1463H110.128V3.604H119.567V6.1463H116.204V15.038H116.201Z" fill="white"/>
<path d="M131.391 9.32098C131.391 10.1422 131.239 10.9068 130.934 11.6084C130.63 12.3101 130.215 12.9236 129.69 13.4491C129.165 13.9745 128.553 14.3867 127.85 14.6824C127.146 14.9782 126.395 15.1261 125.598 15.1261C124.8 15.1261 124.049 14.9782 123.346 14.6824C122.642 14.3867 122.027 13.9745 121.505 13.4491C120.983 12.9236 120.569 12.3101 120.261 11.6084C119.956 10.9068 119.804 10.1453 119.804 9.32098C119.804 8.50921 119.956 7.75092 120.261 7.04298C120.565 6.33504 120.98 5.71835 121.505 5.1929C122.03 4.66745 122.642 4.25527 123.346 3.95951C124.049 3.66375 124.8 3.51587 125.598 3.51587C126.395 3.51587 127.146 3.66375 127.85 3.95951C128.553 4.25527 129.168 4.66745 129.69 5.1929C130.215 5.71835 130.627 6.33504 130.934 7.04298C131.239 7.75092 131.391 8.50921 131.391 9.32098ZM128.679 9.32098C128.679 8.84902 128.598 8.41481 128.436 8.01522C128.274 7.61563 128.054 7.26952 127.772 6.98006C127.49 6.69059 127.166 6.46405 126.79 6.30043C126.417 6.13682 126.019 6.05501 125.594 6.05501C125.17 6.05501 124.771 6.13682 124.399 6.30043C124.026 6.46405 123.699 6.69059 123.417 6.98006C123.135 7.26952 122.915 7.61563 122.753 8.01522C122.591 8.41481 122.51 8.84902 122.51 9.32098C122.51 9.79294 122.591 10.2271 122.753 10.6267C122.915 11.0263 123.135 11.3724 123.417 11.6619C123.699 11.9514 124.023 12.1779 124.399 12.3415C124.771 12.5051 125.17 12.5869 125.594 12.5869C126.019 12.5869 126.417 12.5051 126.79 12.3415C127.163 12.1779 127.49 11.9514 127.772 11.6619C128.054 11.3724 128.274 11.0263 128.436 10.6267C128.598 10.2271 128.679 9.79294 128.679 9.32098Z" fill="white"/>
<path d="M137.425 3.604C138.034 3.604 138.591 3.70154 139.097 3.89347C139.602 4.0854 140.033 4.34655 140.396 4.67378C140.756 5.00101 141.037 5.38487 141.235 5.82536C141.436 6.269 141.533 6.73467 141.533 7.2318C141.533 7.87367 141.417 8.4117 141.187 8.84591C140.956 9.28011 140.701 9.63565 140.419 9.90624C140.137 10.18 139.761 10.4348 139.288 10.6771L141.903 15.0317H138.912L136.764 11.2214H135.361V15.0317H132.652V3.604H137.425ZM137.425 8.68544C137.898 8.68544 138.264 8.56588 138.526 8.3236C138.789 8.08133 138.918 7.77928 138.918 7.41744C138.918 7.0556 138.789 6.75355 138.526 6.51128C138.264 6.26901 137.898 6.14944 137.425 6.14944H135.37V8.69173H137.425V8.68544Z" fill="white"/>
<path d="M147.845 3.604C148.455 3.604 149.012 3.70154 149.517 3.89347C150.023 4.0854 150.454 4.34655 150.817 4.67378C151.176 5.00101 151.458 5.38487 151.656 5.82536C151.857 6.269 151.954 6.73467 151.954 7.2318C151.954 7.87367 151.838 8.4117 151.607 8.84591C151.377 9.28011 151.121 9.63565 150.839 9.90624C150.558 10.18 150.182 10.4348 149.709 10.6771L152.324 15.0317H149.333L147.184 11.2214H145.781V15.0317H143.073V3.604H147.845ZM147.845 8.68544C148.319 8.68544 148.685 8.56588 148.947 8.3236C149.21 8.08133 149.339 7.77928 149.339 7.41744C149.339 7.0556 149.21 6.75355 148.947 6.51128C148.685 6.26901 148.319 6.14944 147.845 6.14944H145.791V8.69173H147.845V8.68544Z" fill="white"/>
<path d="M153.503 3.604H161.915V6.1463H156.215V7.96177H161.448V10.5009H156.215V12.4957H162.103V15.038H153.506V3.604H153.503Z" fill="white"/>
<path d="M163.237 6.77863C163.237 6.34443 163.334 5.9291 163.525 5.5358C163.716 5.1425 163.995 4.79955 164.358 4.50064C164.721 4.20488 165.158 3.96575 165.677 3.78326C166.192 3.60077 166.782 3.50952 167.443 3.50952C168.078 3.50952 168.648 3.60077 169.154 3.78326C169.659 3.96575 170.087 4.21746 170.443 4.54469C170.8 4.87191 171.072 5.25577 171.266 5.69627C171.461 6.13677 171.555 6.61817 171.555 7.13732L168.936 7.31981C168.936 6.86044 168.807 6.50175 168.544 6.25004C168.282 5.99518 167.916 5.86932 167.443 5.86932C167.018 5.86932 166.678 5.98259 166.425 6.20599C166.172 6.42938 166.043 6.68109 166.043 6.95798C166.043 7.23486 166.185 7.44881 166.474 7.59355C166.759 7.73828 167.119 7.87358 167.55 8.00258C167.981 8.12844 168.444 8.26688 168.943 8.41161C169.442 8.55635 169.905 8.76401 170.336 9.02831C170.767 9.29575 171.124 9.645 171.412 10.0792C171.697 10.5134 171.843 11.0766 171.843 11.7657C171.843 12.2251 171.746 12.6593 171.555 13.062C171.36 13.4679 171.078 13.8203 170.706 14.1223C170.333 14.4244 169.87 14.6667 169.322 14.8491C168.774 15.0316 168.149 15.1229 167.452 15.1229C166.778 15.1229 166.176 15.0316 165.641 14.8491C165.106 14.6667 164.653 14.4118 164.287 14.0783C163.92 13.7448 163.639 13.3515 163.444 12.8984C163.25 12.4453 163.156 11.945 163.156 11.4007L165.771 11.2182C165.771 12.2471 166.331 12.7599 167.452 12.7599C167.974 12.7599 168.369 12.6435 168.638 12.4075C168.907 12.1716 169.04 11.8978 169.04 11.5832C169.04 11.2937 168.898 11.0703 168.609 10.913C168.321 10.7557 167.964 10.6109 167.533 10.4788C167.102 10.3466 166.639 10.2051 166.14 10.0603C165.641 9.91559 165.178 9.71422 164.747 9.45307C164.316 9.19192 163.959 8.85211 163.671 8.42734C163.379 8.00887 163.237 7.45825 163.237 6.77863Z" fill="white"/>
</g>
<defs>
<clipPath id="clip0_22844_1286">
<rect width="171" height="17" fill="white" transform="translate(0.833252 0.834961)"/>
</clipPath>
</defs>
</svg>
